<svg width="50" height="24" viewBox="0 0 50 24" fill="none" xmlns="http://www.w3.org/2000/svg">
<path fill-rule="evenodd" clip-rule="evenodd" d="M27.9475 18V9.27273H30.368V18H27.9475ZM29.1634 8.14773C28.8036 8.14773 28.4949 8.02841 28.2373 7.78978C27.9835 7.54735 27.8566 7.25758 27.8566 6.92046C27.8566 6.58713 27.9835 6.30114 28.2373 6.0625C28.4949 5.82008 28.8036 5.69887 29.1634 5.69887C29.5233 5.69887 29.8301 5.82008 30.0839 6.0625C30.3414 6.30114 30.4702 6.58713 30.4702 6.92046C30.4702 7.25758 30.3414 7.54735 30.0839 7.78978C29.8301 8.02841 29.5233 8.14773 29.1634 8.14773ZM42.5797 17.625C43.2274 17.9886 44.0002 18.1705 44.8979 18.1705C45.6176 18.1705 46.2521 18.0606 46.8013 17.8409C47.3543 17.6174 47.8051 17.3068 48.1536 16.9091C48.5059 16.5076 48.7388 16.0379 48.8524 15.5L46.6138 15.3523C46.5305 15.572 46.4093 15.7576 46.2502 15.9091C46.0911 16.0606 45.8998 16.1742 45.6763 16.25C45.4528 16.3258 45.2066 16.3636 44.9377 16.3636C44.5324 16.3636 44.182 16.2784 43.8865 16.108C43.5911 15.9375 43.3619 15.6951 43.199 15.3807C43.0399 15.0663 42.9604 14.6932 42.9604 14.2614V14.2557H48.9036V13.5909C48.9036 12.8485 48.7994 12.2008 48.5911 11.6477C48.3828 11.0909 48.0911 10.6288 47.7161 10.2614C47.3449 9.89394 46.9093 9.61932 46.4093 9.43751C45.9131 9.2519 45.3771 9.1591 44.8013 9.1591C43.9453 9.1591 43.199 9.34849 42.5627 9.72728C41.9301 10.1061 41.4396 10.6345 41.0911 11.3125C40.7426 11.9905 40.5684 12.7784 40.5684 13.6761C40.5684 14.5966 40.7426 15.3939 41.0911 16.0682C41.4396 16.7386 41.9358 17.2576 42.5797 17.625ZM42.9627 12.7557C42.9773 12.4423 43.058 12.1563 43.2047 11.8977C43.3638 11.6136 43.5835 11.3883 43.8638 11.2216C44.1479 11.0511 44.4737 10.9659 44.8411 10.9659C45.1934 10.9659 45.5021 11.0436 45.7672 11.1989C46.0362 11.3504 46.2464 11.5606 46.3979 11.8296C46.5494 12.0985 46.6252 12.4072 46.6252 12.7557H42.9627ZM37.1521 18L40.2032 9.27273H37.6407L35.8339 15.5171H35.743L33.9305 9.27273H31.3737L34.4248 18H37.1521ZM21.6406 9.27273V18H24.0611V13.0625C24.0611 12.7064 24.1406 12.3921 24.2997 12.1193C24.4626 11.8466 24.6823 11.6345 24.9588 11.483C25.2391 11.3277 25.5573 11.25 25.9134 11.25C26.08 11.25 26.2637 11.2633 26.4645 11.2898C26.6653 11.3163 26.8224 11.3466 26.9361 11.3807V9.23296C26.83 9.20644 26.7069 9.18561 26.5668 9.17046C26.4266 9.15531 26.2959 9.14773 26.1747 9.14773C25.6861 9.14773 25.2543 9.28788 24.8793 9.56819C24.5043 9.8447 24.2372 10.2538 24.0781 10.7955H23.9872V9.27273H21.6406ZM14.3167 12.9546V18H11.8963V6.36364H14.2485V10.8125H14.3508C14.5478 10.2974 14.8659 9.89394 15.3053 9.60228C15.7447 9.30682 16.2959 9.1591 16.9588 9.1591C17.5648 9.1591 18.0932 9.29167 18.544 9.55682C18.9985 9.81819 19.3508 10.1951 19.6008 10.6875C19.8546 11.1761 19.9796 11.7614 19.9758 12.4432V18H17.5553V12.875C17.5591 12.3371 17.4228 11.9186 17.1463 11.6193C16.8735 11.3201 16.4909 11.1705 15.9985 11.1705C15.669 11.1705 15.3773 11.2405 15.1235 11.3807C14.8735 11.5208 14.6766 11.7254 14.5326 11.9943C14.3925 12.2595 14.3205 12.5796 14.3167 12.9546ZM1.05103 6.36364V8.39205H4.61353V18H7.04534V8.39205H10.6078V6.36364H1.05103Z" fill="black"/>
</svg>
