<svg xmlns="http://www.w3.org/2000/svg" width="522" height="246" fill="none"><g clip-path="url(#a)"><rect width="521.309" height="245.602" x=".578" y=".012" fill="#fff" rx="34.337"/><path fill="#000" d="m46.325 190.728 4.763-13.397h-2.21l-3.593 10.797h-.157l-3.612-10.797H39.25l4.79 13.397h2.284zm6.908 0h1.987v-10.111h-1.987v10.111zm.993-11.884c.743 0 1.29-.529 1.29-1.216 0-.697-.547-1.226-1.29-1.226s-1.29.529-1.29 1.226c0 .687.547 1.216 1.29 1.216zm7.623 12.051c1.392 0 2.571-.659 3.175-1.764h.158v1.597h1.912v-14.056h-1.996v5.552h-.148c-.548-1.115-1.718-1.774-3.101-1.774-2.554 0-4.197 2.024-4.197 5.218 0 3.203 1.625 5.227 4.197 5.227zm.566-8.653c1.671 0 2.72 1.328 2.72 3.435 0 2.117-1.04 3.426-2.72 3.426-1.69 0-2.702-1.29-2.702-3.435 0-2.126 1.021-3.426 2.702-3.426zm11.828-.121c1.476 0 2.442 1.031 2.488 2.619h-5.106c.111-1.579 1.142-2.619 2.618-2.619zm2.48 5.877c-.372.79-1.199 1.226-2.406 1.226-1.596 0-2.627-1.123-2.692-2.897v-.111h7.14v-.696c0-3.176-1.7-5.098-4.513-5.098-2.85 0-4.66 2.052-4.66 5.283 0 3.231 1.773 5.218 4.67 5.218 2.311 0 3.927-1.114 4.382-2.925h-1.922zm8.708 2.925c2.952 0 4.763-1.978 4.763-5.255 0-3.259-1.82-5.246-4.763-5.246-2.953 0-4.772 1.987-4.772 5.246 0 3.277 1.81 5.255 4.772 5.255zm0-1.773c-1.736 0-2.711-1.272-2.711-3.482 0-2.191.975-3.472 2.71-3.472 1.728 0 2.712 1.281 2.712 3.472 0 2.2-.984 3.482-2.711 3.482zm20.927-5.227c-.26-2.024-1.792-3.501-4.327-3.501-2.943 0-4.735 1.978-4.735 5.218 0 3.296 1.801 5.283 4.744 5.283 2.498 0 4.058-1.411 4.318-3.444h-1.941c-.26 1.086-1.123 1.661-2.386 1.661-1.662 0-2.692-1.309-2.692-3.5 0-2.154 1.021-3.435 2.692-3.435 1.337 0 2.154.733 2.386 1.718h1.941zm5.589 5.292c-1.086 0-1.876-.53-1.876-1.439 0-.892.632-1.365 2.024-1.458l2.47-.158v.845c0 1.253-1.114 2.21-2.618 2.21zm-.511 1.68c1.328 0 2.433-.575 3.036-1.587h.158v1.42h1.922v-6.908c0-2.135-1.43-3.398-3.965-3.398-2.293 0-3.927 1.115-4.131 2.851h1.931c.223-.715.994-1.124 2.108-1.124 1.364 0 2.07.604 2.07 1.671v.873l-2.739.158c-2.404.149-3.76 1.198-3.76 3.017 0 1.848 1.421 3.027 3.37 3.027zm8.05-.167h1.996v-14.056h-1.996v14.056zm5.088 0h1.996v-14.056h-1.996v14.056z"/><path fill="#000" fill-opacity=".5" d="M43.261 216.082h2.08v-13.398h-2.07l-3.528 2.488v2.127l3.36-2.377h.158v11.16zm10.622.324c2.887 0 4.846-1.884 4.846-4.66 0-2.637-1.792-4.494-4.336-4.494-1.272 0-2.219.427-2.831 1.216h-.158l.352-3.927h6.193v-1.857h-7.817l-.706 7.669h1.903c.52-.863 1.449-1.374 2.6-1.374 1.634 0 2.767 1.142 2.767 2.822 0 1.672-1.124 2.776-2.795 2.776-1.467 0-2.553-.863-2.71-2.163h-1.978c.12 2.349 2.005 3.992 4.67 3.992zm8.978-1.782c.789 0 1.364-.604 1.364-1.383 0-.78-.575-1.384-1.364-1.384-.78 0-1.365.604-1.365 1.384 0 .779.585 1.383 1.365 1.383zm0-7.01c.789 0 1.364-.603 1.364-1.383 0-.789-.575-1.384-1.364-1.384-.78 0-1.365.595-1.365 1.384 0 .78.585 1.383 1.365 1.383zm7.297 2.451h1.69c1.755 0 2.84.864 2.84 2.247 0 1.318-1.15 2.256-2.785 2.256-1.624 0-2.738-.826-2.868-2.126h-1.996c.12 2.395 2.051 3.964 4.864 3.964 2.795 0 4.912-1.708 4.912-3.982 0-1.792-1.114-3.046-2.943-3.259v-.158c1.476-.334 2.395-1.523 2.395-3.101 0-2.015-1.912-3.547-4.4-3.547-2.684 0-4.43 1.495-4.569 3.918h1.978c.112-1.318 1.068-2.126 2.525-2.126 1.458 0 2.414.817 2.414 2.061 0 1.263-.993 2.136-2.432 2.136h-1.625v1.717zm13.992 6.341c3.12 0 4.939-2.571 4.939-7.018 0-4.438-1.848-7.029-4.94-7.029-3.11 0-4.957 2.581-4.957 7.01 0 4.456 1.829 7.037 4.958 7.037zm0-1.819c-1.82 0-2.86-1.829-2.86-5.218 0-3.352 1.058-5.19 2.86-5.19 1.8 0 2.84 1.829 2.84 5.19 0 3.398-1.02 5.218-2.84 5.218zm13.74-2.925v-1.959H91.8v1.959h6.09zm6.147 4.42h2.079v-13.398h-2.07l-3.528 2.488v2.127l3.361-2.377h.158v11.16zm10.927.324c2.841 0 4.856-1.949 4.856-4.679 0-2.59-1.857-4.466-4.401-4.466-1.587 0-2.869.734-3.519 2.024h-.157c.046-3.221 1.234-5.087 3.296-5.087 1.216 0 2.163.668 2.497 1.764h2.089c-.408-2.191-2.2-3.603-4.568-3.603-3.352 0-5.311 2.656-5.311 7.196 0 1.634.27 2.998.818 4.075.872 1.792 2.413 2.776 4.4 2.776zm-.018-1.829c-1.597 0-2.813-1.225-2.813-2.822 0-1.588 1.188-2.739 2.822-2.739 1.643 0 2.804 1.151 2.804 2.776 0 1.579-1.216 2.785-2.813 2.785zm9.061.047c.789 0 1.365-.604 1.365-1.383 0-.78-.576-1.384-1.365-1.384-.78 0-1.365.604-1.365 1.384 0 .779.585 1.383 1.365 1.383zm0-7.01c.789 0 1.365-.603 1.365-1.383 0-.789-.576-1.384-1.365-1.384-.78 0-1.365.595-1.365 1.384 0 .78.585 1.383 1.365 1.383zm9.127 8.792c3.119 0 4.939-2.571 4.939-7.018 0-4.438-1.848-7.029-4.939-7.029-3.111 0-4.958 2.581-4.958 7.01 0 4.456 1.829 7.037 4.958 7.037zm0-1.819c-1.82 0-2.86-1.829-2.86-5.218 0-3.352 1.059-5.19 2.86-5.19s2.841 1.829 2.841 5.19c0 3.398-1.022 5.218-2.841 5.218zm12.348 1.819c3.119 0 4.939-2.571 4.939-7.018 0-4.438-1.847-7.029-4.939-7.029-3.11 0-4.958 2.581-4.958 7.01 0 4.456 1.829 7.037 4.958 7.037zm0-1.819c-1.82 0-2.86-1.829-2.86-5.218 0-3.352 1.059-5.19 2.86-5.19s2.841 1.829 2.841 5.19c0 3.398-1.021 5.218-2.841 5.218z"/><path fill="#000" d="M40.104 164.036V146.75h6.82c1.311 0 2.428.251 3.351.752.923.495 1.626 1.184 2.11 2.067.49.878.734 1.891.734 3.039 0 1.148-.247 2.161-.742 3.038-.495.878-1.213 1.562-2.153 2.051-.934.49-2.065.735-3.393.735h-4.346v-2.929h3.755c.704 0 1.283-.121 1.74-.363a2.41 2.41 0 0 0 1.029-1.021c.23-.439.346-.943.346-1.511 0-.574-.115-1.075-.346-1.502a2.312 2.312 0 0 0-1.03-1.005c-.461-.242-1.046-.363-1.755-.363h-2.465v14.298h-3.655zm15.322 0v-12.964h3.485v2.262h.136c.236-.805.633-1.413 1.19-1.823a3.125 3.125 0 0 1 1.924-.625 5.316 5.316 0 0 1 1.131.127v3.19a4.868 4.868 0 0 0-.7-.135 6.36 6.36 0 0 0-.82-.059c-.528 0-1 .115-1.417.346-.41.225-.737.54-.98.945-.236.406-.354.873-.354 1.402v7.334h-3.595zm14.98.253c-1.312 0-2.446-.278-3.402-.835a5.718 5.718 0 0 1-2.203-2.347c-.518-1.007-.777-2.174-.777-3.502 0-1.34.26-2.51.777-3.512a5.65 5.65 0 0 1 2.203-2.346c.956-.563 2.09-.844 3.401-.844s2.442.281 3.393.844a5.634 5.634 0 0 1 2.212 2.346c.517 1.002.776 2.172.776 3.512 0 1.328-.259 2.495-.776 3.502a5.703 5.703 0 0 1-2.212 2.347c-.95.557-2.082.835-3.393.835zm.016-2.785c.597 0 1.094-.169 1.494-.506.4-.344.7-.811.903-1.401.208-.591.312-1.264.312-2.018 0-.754-.104-1.426-.312-2.017-.203-.591-.504-1.058-.903-1.401-.4-.343-.897-.515-1.494-.515-.602 0-1.108.172-1.52.515-.404.343-.711.81-.92 1.401-.202.591-.303 1.263-.303 2.017s.101 1.427.304 2.018c.208.59.515 1.057.92 1.401.41.337.917.506 1.519.506zm13.48 2.743a4.897 4.897 0 0 1-2.676-.759c-.794-.513-1.424-1.264-1.891-2.254-.461-.996-.692-2.217-.692-3.663 0-1.486.239-2.721.717-3.705.479-.991 1.114-1.731 1.908-2.22a4.89 4.89 0 0 1 2.625-.743c.726 0 1.33.124 1.814.371.49.242.884.546 1.182.912.304.36.535.715.692 1.063h.11v-6.499h3.587v17.286h-3.545v-2.076h-.152c-.169.36-.408.717-.717 1.072-.304.349-.7.638-1.19.869-.484.231-1.075.346-1.773.346zm1.139-2.861c.58 0 1.069-.158 1.468-.473.405-.321.715-.768.929-1.342.22-.574.329-1.246.329-2.017 0-.771-.107-1.441-.32-2.009-.215-.568-.524-1.007-.93-1.317-.404-.309-.897-.464-1.476-.464-.591 0-1.09.161-1.494.481-.405.321-.712.766-.92 1.334-.209.568-.313 1.227-.313 1.975 0 .754.105 1.421.313 2 .214.574.52 1.024.92 1.351.405.321.903.481 1.494.481zm17.507-2.87v-7.444h3.596v12.964h-3.453v-2.355h-.135a3.826 3.826 0 0 1-1.46 1.832c-.675.461-1.5.692-2.473.692-.866 0-1.629-.197-2.287-.591-.659-.394-1.173-.954-1.545-1.68-.365-.725-.551-1.595-.557-2.608v-8.254h3.596v7.613c.005.765.21 1.37.616 1.815.405.444.948.666 1.629.666.433 0 .838-.098 1.215-.295.377-.203.681-.501.912-.895.236-.394.352-.88.346-1.46zm12.329 5.773c-1.328 0-2.47-.281-3.427-.844a5.702 5.702 0 0 1-2.194-2.363c-.507-1.007-.76-2.166-.76-3.477 0-1.328.256-2.493.768-3.495a5.711 5.711 0 0 1 2.203-2.355c.951-.568 2.082-.852 3.393-.852 1.131 0 2.122.205 2.971.616.85.411 1.522.988 2.017 1.73.496.743.769 1.615.819 2.617h-3.393c-.095-.647-.349-1.168-.759-1.562-.406-.399-.937-.599-1.596-.599-.557 0-1.043.152-1.46.456-.411.298-.731.734-.962 1.308-.231.574-.346 1.269-.346 2.085 0 .827.112 1.53.338 2.11.23.58.554 1.021.97 1.325.417.304.903.456 1.46.456.411 0 .78-.084 1.106-.253.332-.169.605-.414.819-.735.219-.326.363-.717.43-1.173h3.393c-.056.991-.326 1.863-.81 2.617-.478.748-1.14 1.333-1.984 1.755-.844.422-1.842.633-2.996.633zm14.988-13.217v2.701h-7.807v-2.701h7.807zm-6.035-3.106h3.596v12.086c0 .332.05.591.152.777.101.18.242.306.422.38.185.073.399.109.641.109.169 0 .338-.014.507-.042.168-.034.298-.059.388-.076l.565 2.676c-.18.056-.433.121-.759.194a6.092 6.092 0 0 1-1.19.143c-.867.034-1.627-.081-2.279-.346a3.178 3.178 0 0 1-1.511-1.232c-.36-.557-.537-1.26-.532-2.11v-12.559zm13.878 16.07v-12.964h3.427v2.287h.152c.27-.759.72-1.359 1.35-1.798.631-.439 1.385-.658 2.262-.658.889 0 1.646.222 2.271.667a3.141 3.141 0 0 1 1.249 1.789h.135c.264-.743.743-1.336 1.435-1.781.698-.45 1.522-.675 2.473-.675 1.21 0 2.191.385 2.945 1.156.76.766 1.14 1.852 1.14 3.258v8.719h-3.587v-8.01c0-.72-.192-1.26-.574-1.62-.383-.36-.861-.54-1.435-.54-.653 0-1.162.208-1.528.624-.365.411-.548.954-.548 1.629v7.917h-3.486v-8.086c0-.636-.183-1.142-.549-1.519-.36-.377-.835-.565-1.426-.565-.4 0-.76.101-1.081.303a2.092 2.092 0 0 0-.751.836c-.185.354-.278.771-.278 1.249v7.782h-3.596zm27.587.253c-1.333 0-2.481-.27-3.443-.81a5.552 5.552 0 0 1-2.212-2.313c-.517-1.001-.776-2.186-.776-3.553 0-1.334.259-2.504.776-3.511a5.75 5.75 0 0 1 2.186-2.355c.946-.563 2.054-.844 3.326-.844.855 0 1.651.138 2.388.414.743.27 1.39.678 1.942 1.223.557.546.99 1.233 1.3 2.06.309.821.464 1.784.464 2.886v.988h-10.947v-2.228h7.562c0-.518-.112-.977-.337-1.376a2.425 2.425 0 0 0-.937-.937c-.394-.231-.853-.346-1.376-.346-.546 0-1.03.127-1.452.38a2.658 2.658 0 0 0-.979 1.004 2.847 2.847 0 0 0-.363 1.393v2.118c0 .642.118 1.196.355 1.663a2.6 2.6 0 0 0 1.021 1.081c.439.253.959.379 1.561.379.4 0 .766-.056 1.098-.168a2.28 2.28 0 0 0 .852-.507 2.21 2.21 0 0 0 .54-.827l3.326.219a4.55 4.55 0 0 1-1.038 2.094c-.518.59-1.188 1.052-2.009 1.384-.816.326-1.759.489-2.828.489zm14.205 0c-1.333 0-2.481-.27-3.443-.81a5.552 5.552 0 0 1-2.212-2.313c-.517-1.001-.776-2.186-.776-3.553 0-1.334.259-2.504.776-3.511a5.75 5.75 0 0 1 2.186-2.355c.946-.563 2.054-.844 3.326-.844.855 0 1.651.138 2.388.414.743.27 1.39.678 1.942 1.223.557.546.99 1.233 1.3 2.06.309.821.464 1.784.464 2.886v.988h-10.947v-2.228h7.562c0-.518-.112-.977-.337-1.376a2.418 2.418 0 0 0-.937-.937c-.394-.231-.853-.346-1.376-.346-.546 0-1.03.127-1.452.38a2.658 2.658 0 0 0-.979 1.004 2.847 2.847 0 0 0-.363 1.393v2.118c0 .642.118 1.196.355 1.663a2.6 2.6 0 0 0 1.021 1.081c.439.253.959.379 1.561.379.4 0 .766-.056 1.098-.168a2.28 2.28 0 0 0 .852-.507c.236-.225.417-.501.54-.827l3.326.219a4.55 4.55 0 0 1-1.038 2.094c-.518.59-1.188 1.052-2.009 1.384-.816.326-1.759.489-2.828.489zm15.193-13.217v2.701h-7.807v-2.701h7.807zm-6.035-3.106h3.596v12.086c0 .332.05.591.152.777.101.18.242.306.422.38.185.073.399.109.641.109.169 0 .338-.014.506-.042l.389-.076.565 2.676c-.18.056-.433.121-.759.194a6.092 6.092 0 0 1-1.19.143c-.867.034-1.627-.081-2.279-.346a3.178 3.178 0 0 1-1.511-1.232c-.36-.557-.538-1.26-.532-2.11v-12.559zm8.377 16.07v-12.964h3.596v12.964h-3.596zm1.806-14.635c-.534 0-.993-.178-1.375-.532-.377-.36-.566-.791-.566-1.291 0-.496.189-.92.566-1.275.382-.36.841-.54 1.375-.54.535 0 .991.18 1.368.54.382.355.574.779.574 1.275 0 .5-.192.931-.574 1.291a1.927 1.927 0 0 1-1.368.532zm8.265 7.14v7.495h-3.595v-12.964h3.427v2.287h.152a3.617 3.617 0 0 1 1.443-1.789c.675-.445 1.494-.667 2.456-.667.9 0 1.685.197 2.355.591.669.394 1.19.956 1.561 1.688.372.726.557 1.592.557 2.6v8.254h-3.595v-7.613c.005-.793-.197-1.412-.608-1.857-.411-.45-.976-.675-1.696-.675a2.58 2.58 0 0 0-1.283.312 2.171 2.171 0 0 0-.861.912c-.203.394-.307.869-.313 1.426zm17.031 12.627c-1.165 0-2.164-.161-2.996-.481-.828-.315-1.486-.746-1.975-1.292a3.96 3.96 0 0 1-.954-1.84l3.325-.447c.102.259.262.501.481.726.22.225.51.405.87.54.365.141.81.211 1.333.211.782 0 1.427-.191 1.933-.574.512-.377.768-1.01.768-1.899v-2.372h-.152c-.157.36-.394.701-.709 1.022-.315.32-.72.582-1.215.785-.495.202-1.086.303-1.773.303-.973 0-1.859-.225-2.658-.675-.794-.456-1.427-1.15-1.899-2.085-.467-.939-.701-2.126-.701-3.561 0-1.469.239-2.696.718-3.68.478-.985 1.114-1.722 1.907-2.212a4.934 4.934 0 0 1 2.625-.734c.726 0 1.334.124 1.823.371.49.242.884.546 1.182.912.304.36.537.715.7 1.063h.135v-2.177h3.571v13.091c0 1.103-.271 2.025-.811 2.768-.54.743-1.288 1.3-2.245 1.671-.951.377-2.045.566-3.283.566zm.076-8.018c.579 0 1.069-.144 1.468-.431.406-.293.715-.709.929-1.249.219-.546.329-1.199.329-1.958 0-.76-.107-1.418-.321-1.975-.213-.563-.523-.999-.928-1.309-.405-.309-.898-.464-1.477-.464-.591 0-1.089.161-1.494.481-.405.315-.712.754-.92 1.317-.208.563-.312 1.213-.312 1.95 0 .748.104 1.395.312 1.941.214.54.52.959.92 1.258.405.292.903.439 1.494.439z"/><rect width="3.169" height="71.304" x="25.932" y="144.205" fill="#71B548" rx="1.585"/><path fill="#000" d="M45.99 61.33c-3.843 0-6.257 2.692-6.257 7.019 0 4.317 2.368 7.028 6.258 7.028 3.88 0 6.239-2.72 6.239-7.028 0-4.317-2.377-7.019-6.24-7.019zm0 1.94c2.545 0 4.114 1.969 4.114 5.079 0 3.092-1.57 5.088-4.113 5.088-2.572 0-4.132-1.996-4.132-5.088 0-3.11 1.607-5.079 4.132-5.079zm8.821 11.782h1.996v-5.914c0-1.578.938-2.562 2.414-2.562 1.476 0 2.182.807 2.182 2.432v6.044h1.996v-6.545c0-2.405-1.244-3.76-3.5-3.76-1.523 0-2.526.677-3.017 1.8h-.15v-1.605h-1.921v10.11zm11.494 0h1.996V60.996h-1.996v14.056zm5.032 0h1.987v-10.11h-1.987v10.11zm.994-11.884c.742 0 1.29-.529 1.29-1.216 0-.696-.548-1.225-1.29-1.225-.743 0-1.29.529-1.29 1.225 0 .687.547 1.216 1.29 1.216zm3.927 11.884h1.996v-5.914c0-1.578.938-2.562 2.414-2.562 1.476 0 2.182.807 2.182 2.432v6.044h1.996v-6.545c0-2.405-1.244-3.76-3.5-3.76-1.523 0-2.526.677-3.018 1.8h-.148v-1.605h-1.922v10.11zm15.551-8.606c1.476 0 2.442 1.03 2.488 2.618h-5.106c.111-1.578 1.142-2.618 2.618-2.618zm2.48 5.877c-.372.789-1.199 1.225-2.406 1.225-1.596 0-2.627-1.123-2.692-2.897v-.11h7.14v-.697c0-3.175-1.7-5.097-4.513-5.097-2.85 0-4.66 2.052-4.66 5.282 0 3.231 1.773 5.218 4.67 5.218 2.311 0 3.927-1.114 4.382-2.924h-1.922z"/><path fill="#000" fill-opacity=".5" d="M43.261 100.405h2.08V87.008h-2.07l-3.528 2.488v2.126l3.36-2.376h.158v11.159zm10.714.325c3.12 0 4.94-2.572 4.94-7.019 0-4.438-1.848-7.028-4.94-7.028-3.11 0-4.957 2.581-4.957 7.01 0 4.456 1.829 7.037 4.957 7.037zm0-1.82c-1.82 0-2.86-1.828-2.86-5.217 0-3.352 1.06-5.19 2.86-5.19 1.802 0 2.841 1.829 2.841 5.19 0 3.398-1.02 5.218-2.84 5.218zm9.108.038c.79 0 1.365-.604 1.365-1.384 0-.78-.575-1.383-1.365-1.383-.78 0-1.364.603-1.364 1.383s.584 1.384 1.364 1.384zm0-7.01c.79 0 1.365-.603 1.365-1.383 0-.79-.575-1.384-1.365-1.384-.78 0-1.364.594-1.364 1.384 0 .78.584 1.383 1.364 1.383zm9.127 8.792c3.12 0 4.94-2.572 4.94-7.019 0-4.438-1.848-7.028-4.94-7.028-3.11 0-4.958 2.581-4.958 7.01 0 4.456 1.83 7.037 4.958 7.037zm0-1.82c-1.82 0-2.86-1.828-2.86-5.217 0-3.352 1.059-5.19 2.86-5.19s2.84 1.829 2.84 5.19c0 3.398-1.02 5.218-2.84 5.218zm12.348 1.82c3.12 0 4.94-2.572 4.94-7.019 0-4.438-1.848-7.028-4.94-7.028-3.11 0-4.958 2.581-4.958 7.01 0 4.456 1.83 7.037 4.958 7.037zm0-1.82c-1.82 0-2.86-1.828-2.86-5.217 0-3.352 1.059-5.19 2.86-5.19s2.841 1.829 2.841 5.19c0 3.398-1.021 5.218-2.84 5.218zm13.74-2.924v-1.96h-6.09v1.96h6.09zm6.147 4.419h2.08V87.008h-2.071l-3.528 2.488v2.126l3.361-2.376h.158v11.159zm9.192 0h2.079V87.008h-2.07l-3.528 2.488v2.126l3.361-2.376h.158v11.159zm7.529-1.457c.789 0 1.365-.604 1.365-1.384 0-.78-.576-1.383-1.365-1.383-.78 0-1.365.603-1.365 1.383s.585 1.384 1.365 1.384zm0-7.01c.789 0 1.365-.603 1.365-1.383 0-.79-.576-1.384-1.365-1.384-.78 0-1.365.594-1.365 1.384 0 .78.585 1.383 1.365 1.383zm7.298 2.451h1.689c1.755 0 2.841.864 2.841 2.247 0 1.318-1.151 2.256-2.785 2.256-1.625 0-2.739-.826-2.869-2.126h-1.996c.121 2.395 2.052 3.964 4.865 3.964 2.795 0 4.912-1.708 4.912-3.983 0-1.792-1.115-3.045-2.944-3.259v-.157c1.477-.335 2.396-1.523 2.396-3.101 0-2.015-1.913-3.547-4.401-3.547-2.683 0-4.429 1.495-4.568 3.918h1.978c.111-1.318 1.067-2.126 2.525-2.126s2.414.817 2.414 2.061c0 1.263-.993 2.135-2.433 2.135h-1.624v1.718zm13.991 6.341c3.12 0 4.939-2.572 4.939-7.019 0-4.438-1.847-7.028-4.939-7.028-3.11 0-4.958 2.581-4.958 7.01 0 4.456 1.829 7.037 4.958 7.037zm0-1.82c-1.82 0-2.859-1.828-2.859-5.217 0-3.352 1.058-5.19 2.859-5.19s2.841 1.829 2.841 5.19c0 3.398-1.021 5.218-2.841 5.218z"/><path fill="#000" d="M43.084 48.364h-3.916l5.967-17.286h4.71l5.958 17.286h-3.916l-4.33-13.336h-.135l-4.338 13.336zm-.245-6.795h9.25v2.853h-9.25V41.57zm14.977 11.656V35.4h3.545v2.177h.16c.158-.349.386-.703.684-1.063.304-.366.698-.67 1.182-.912.49-.248 1.097-.371 1.823-.371.945 0 1.818.247 2.617.742.799.49 1.437 1.23 1.916 2.22.478.985.717 2.22.717 3.706 0 1.446-.233 2.667-.7 3.663-.462.99-1.092 1.741-1.891 2.253-.794.507-1.683.76-2.667.76-.698 0-1.292-.116-1.781-.346a3.677 3.677 0 0 1-1.19-.87 4.415 4.415 0 0 1-.71-1.072h-.109v6.938h-3.596zm3.52-11.343c0 .77.107 1.443.32 2.017.215.574.524 1.021.93 1.342.404.315.897.473 1.476.473.585 0 1.08-.16 1.486-.482.405-.326.712-.776.92-1.35.213-.58.32-1.246.32-2 0-.749-.104-1.407-.312-1.975-.208-.569-.515-1.013-.92-1.334-.405-.32-.903-.481-1.494-.481-.585 0-1.08.155-1.485.464-.4.31-.706.748-.92 1.317-.214.568-.321 1.238-.321 2.009zm11.521 11.343V35.4h3.545v2.177h.16c.158-.349.386-.703.684-1.063.304-.366.698-.67 1.182-.912.49-.248 1.097-.371 1.823-.371.945 0 1.817.247 2.616.742.8.49 1.438 1.23 1.916 2.22.478.985.718 2.22.718 3.706 0 1.446-.234 2.667-.7 3.663-.462.99-1.093 1.741-1.892 2.253-.793.507-1.682.76-2.667.76-.697 0-1.291-.116-1.78-.346a3.666 3.666 0 0 1-1.19-.87 4.415 4.415 0 0 1-.71-1.072h-.11v6.938h-3.595zm3.52-11.343c0 .77.107 1.443.32 2.017.214.574.524 1.021.929 1.342.405.315.897.473 1.477.473.585 0 1.08-.16 1.485-.482.406-.326.712-.776.92-1.35.214-.58.321-1.246.321-2 0-.749-.104-1.407-.312-1.975-.208-.569-.515-1.013-.92-1.334-.405-.32-.903-.481-1.494-.481-.585 0-1.08.155-1.486.464-.4.31-.706.748-.92 1.317-.213.568-.32 1.238-.32 2.009zm15.116-10.804v17.286h-3.595V31.078h3.595zm8.789 17.539c-1.334 0-2.482-.27-3.444-.81a5.55 5.55 0 0 1-2.211-2.313c-.518-1.002-.777-2.186-.777-3.553 0-1.334.259-2.504.777-3.512a5.74 5.74 0 0 1 2.186-2.354c.945-.563 2.054-.844 3.325-.844.856 0 1.652.137 2.389.413.743.27 1.39.678 1.941 1.224.557.546.99 1.232 1.3 2.06.309.821.464 1.783.464 2.886v.988H95.285v-2.229h7.563c0-.517-.113-.976-.338-1.375a2.415 2.415 0 0 0-.937-.937c-.394-.231-.852-.346-1.376-.346-.546 0-1.03.126-1.451.38a2.663 2.663 0 0 0-.98 1.004 2.83 2.83 0 0 0-.362 1.392v2.119c0 .642.118 1.196.354 1.663.242.467.582.827 1.021 1.08.44.253.96.38 1.562.38.399 0 .765-.056 1.097-.169.332-.112.616-.281.853-.506a2.21 2.21 0 0 0 .54-.827l3.325.219a4.545 4.545 0 0 1-1.038 2.093c-.518.591-1.187 1.052-2.009 1.384-.816.327-1.758.49-2.827.49zm19.366-.253V31.078h3.655V38.7h.228l6.22-7.622h4.381l-6.415 7.74 6.491 9.546h-4.373l-4.735-7.107-1.797 2.195v4.912h-3.655zm21.276.253c-1.334 0-2.482-.27-3.444-.81a5.554 5.554 0 0 1-2.211-2.313c-.518-1.002-.777-2.186-.777-3.553 0-1.334.259-2.504.777-3.512a5.74 5.74 0 0 1 2.186-2.354c.945-.563 2.054-.844 3.325-.844.856 0 1.652.137 2.389.413.743.27 1.39.678 1.941 1.224.557.546.991 1.232 1.3 2.06.31.821.464 1.783.464 2.886v.988h-10.947v-2.229h7.563c0-.517-.113-.976-.338-1.375a2.415 2.415 0 0 0-.937-.937c-.394-.231-.852-.346-1.375-.346-.546 0-1.03.126-1.452.38a2.656 2.656 0 0 0-.979 1.004 2.82 2.82 0 0 0-.363 1.392v2.119c0 .642.118 1.196.354 1.663.242.467.583.827 1.022 1.08.438.253.959.38 1.561.38.399 0 .765-.056 1.097-.169.332-.112.616-.281.853-.506a2.21 2.21 0 0 0 .54-.827l3.325.219a4.526 4.526 0 0 1-1.038 2.093c-.517.591-1.187 1.052-2.009 1.384-.815.327-1.758.49-2.827.49zm10.168 4.608c-.455 0-.883-.036-1.283-.11a4.694 4.694 0 0 1-.979-.261l.811-2.684c.422.13.801.2 1.139.211.343.011.639-.068.886-.236.254-.17.459-.456.616-.861l.211-.549-4.65-13.335h3.781l2.684 9.52h.135l2.71-9.52h3.806l-5.039 14.365a6.042 6.042 0 0 1-.987 1.823 4.052 4.052 0 0 1-1.562 1.207c-.63.287-1.39.43-2.279.43zm15.303-12.356v7.495h-3.596V35.4h3.427v2.287h.152a3.618 3.618 0 0 1 1.443-1.79c.675-.444 1.494-.666 2.456-.666.9 0 1.685.197 2.355.59.67.394 1.19.957 1.561 1.689.372.725.558 1.592.558 2.6v8.254h-3.596V40.75c.006-.794-.197-1.413-.608-1.857-.41-.45-.976-.675-1.696-.675a2.58 2.58 0 0 0-1.283.312 2.174 2.174 0 0 0-.861.911c-.203.394-.307.87-.312 1.427zm17.047 7.748c-1.311 0-2.445-.279-3.401-.836a5.713 5.713 0 0 1-2.203-2.346c-.518-1.007-.777-2.175-.777-3.503 0-1.339.259-2.51.777-3.51a5.645 5.645 0 0 1 2.203-2.347c.956-.563 2.09-.844 3.401-.844s2.442.281 3.393.844a5.626 5.626 0 0 1 2.211 2.346c.518 1.002.777 2.172.777 3.511 0 1.328-.259 2.496-.777 3.503a5.694 5.694 0 0 1-2.211 2.346c-.951.557-2.082.836-3.393.836zm.017-2.785c.596 0 1.094-.17 1.494-.507.399-.343.7-.81.903-1.4.208-.592.312-1.264.312-2.018 0-.754-.104-1.426-.312-2.017-.203-.591-.504-1.058-.903-1.401-.4-.344-.898-.515-1.494-.515-.602 0-1.109.171-1.519.515-.406.343-.712.81-.92 1.4-.203.591-.304 1.264-.304 2.018 0 .754.101 1.426.304 2.017.208.591.514 1.058.92 1.401.41.338.917.507 1.519.507zM199.057 35.4v2.7h-7.808v-2.7h7.808zm-6.035-3.107h3.595V44.38c0 .332.051.59.152.776.101.18.242.307.422.38.186.073.4.11.642.11.168 0 .337-.014.506-.042.169-.034.298-.06.388-.076l.566 2.675c-.18.057-.433.121-.76.194a6.086 6.086 0 0 1-1.19.144c-.866.034-1.626-.082-2.279-.346a3.186 3.186 0 0 1-1.511-1.232c-.36-.557-.537-1.26-.531-2.11v-12.56zm14.146 16.324c-1.334 0-2.482-.27-3.444-.81a5.542 5.542 0 0 1-2.211-2.313c-.518-1.002-.777-2.186-.777-3.553 0-1.334.259-2.504.777-3.512a5.733 5.733 0 0 1 2.186-2.354c.945-.563 2.054-.844 3.325-.844a6.76 6.76 0 0 1 2.389.413c.743.27 1.39.678 1.941 1.224.557.546.99 1.232 1.3 2.06.309.821.464 1.783.464 2.886v.988h-10.947v-2.229h7.563c0-.517-.113-.976-.338-1.375a2.415 2.415 0 0 0-.937-.937c-.394-.231-.852-.346-1.376-.346-.546 0-1.029.126-1.451.38a2.666 2.666 0 0 0-.98 1.004 2.83 2.83 0 0 0-.362 1.392v2.119c0 .642.118 1.196.354 1.663.242.467.582.827 1.021 1.08.439.253.96.38 1.562.38.399 0 .765-.056 1.097-.169.332-.112.616-.281.852-.506a2.2 2.2 0 0 0 .541-.827l3.325.219a4.545 4.545 0 0 1-1.038 2.093c-.518.591-1.187 1.052-2.009 1.384-.816.327-1.758.49-2.827.49z"/><rect width="3.169" height="71.304" x="25.932" y="28.533" fill="#B54896" rx="1.585"/><path fill="#EE5C51" d="M272.295 36.796c0 2.247 1.662 3.723 4.085 3.723 2.581 0 4.141-1.532 4.141-4.196v-9.526h-2.08v9.516c0 1.532-.752 2.35-2.079 2.35-1.189 0-1.997-.753-2.024-1.867h-2.043zm13.639-9.999h-2.08v8.783c0 2.897 2.07 4.94 5.422 4.94 3.37 0 5.431-2.043 5.431-4.94v-8.783h-2.079v8.616c0 1.913-1.217 3.259-3.352 3.259-2.126 0-3.342-1.346-3.342-3.26v-8.615zm14.149 13.397v-9.73h.149l6.879 9.73h1.876V26.797h-2.024v9.749h-.149l-6.88-9.749h-1.875v13.397h2.024zm20.778-1.791h-6.424v-4.17h6.081v-1.726h-6.081v-3.918h6.424v-1.792h-8.504v13.397h8.504v-1.791z"/><circle cx="322.235" cy="182.231" r="14.261" fill="#EE5C51"/><path fill="#000" fill-opacity=".5" d="M281.541 207.977h1.64c0-1.238.828-2.074 2.089-2.074 1.238 0 1.973.828 1.973 1.911 0 .906-.371 1.463-1.787 2.94l-3.822 3.977v1.176h7.52v-1.478h-5.153v-.131l2.461-2.476c1.957-1.965 2.522-2.886 2.522-4.178 0-1.833-1.509-3.172-3.605-3.172-2.252 0-3.838 1.455-3.838 3.505zm13.896 8.201c2.483 0 4.201-1.338 4.201-3.265 0-1.439-.944-2.569-2.375-2.839v-.132c1.176-.302 1.918-1.253 1.918-2.468 0-1.756-1.555-3.002-3.744-3.002-2.19 0-3.745 1.246-3.745 3.002 0 1.207.758 2.174 1.919 2.468v.132c-1.432.286-2.368 1.415-2.368 2.847 0 1.926 1.71 3.257 4.194 3.257zm0-6.77c-1.215 0-2.035-.712-2.035-1.772 0-1.075.812-1.795 2.035-1.795 1.222 0 2.042.72 2.042 1.795 0 1.06-.828 1.772-2.042 1.772zm0 5.393c-1.432 0-2.422-.828-2.422-2.02 0-1.191.99-2.011 2.422-2.011 1.431 0 2.421.82 2.421 2.011 0 1.192-.99 2.02-2.421 2.02z"/><path fill="#000" d="M313.27 207.977h1.64c0-1.238.828-2.074 2.089-2.074 1.238 0 1.973.828 1.973 1.911 0 .906-.371 1.463-1.787 2.94l-3.822 3.977v1.176h7.52v-1.478h-5.152v-.131l2.46-2.476c1.957-1.965 2.522-2.886 2.522-4.178 0-1.833-1.509-3.172-3.605-3.172-2.252 0-3.838 1.455-3.838 3.505zm13.64 8.193c2.794 0 4.426-2.212 4.426-6.004 0-3.744-1.795-5.694-4.356-5.694-2.367 0-4.046 1.617-4.046 3.884 0 2.151 1.547 3.721 3.675 3.721 1.323 0 2.39-.619 2.924-1.686h.132c-.047 2.77-1.029 4.317-2.739 4.317-1.021 0-1.818-.557-2.081-1.478h-1.749c.333 1.795 1.834 2.94 3.814 2.94zm.078-5.493c-1.377 0-2.329-.967-2.329-2.375 0-1.346 1.006-2.383 2.344-2.383 1.331 0 2.337 1.052 2.337 2.429 0 1.354-.983 2.329-2.352 2.329zm20.392.178h1.393c1.455 0 2.352.743 2.352 1.934 0 1.161-.959 1.934-2.329 1.934-1.354 0-2.29-.704-2.39-1.802h-1.664c.093 1.965 1.718 3.257 4.077 3.257 2.329 0 4.086-1.393 4.086-3.296 0-1.532-.96-2.522-2.445-2.747v-.131c1.168-.325 2.011-1.215 2.019-2.561.008-1.586-1.3-2.971-3.605-2.971-2.352 0-3.807 1.354-3.923 3.25h1.64c.101-1.169.913-1.826 2.182-1.826 1.253 0 1.996.781 1.996 1.764 0 1.075-.835 1.833-2.042 1.833h-1.347v1.362zm11.629 5.323c2.6 0 4.116-2.143 4.116-5.841 0-3.706-1.54-5.865-4.116-5.865-2.592 0-4.132 2.159-4.132 5.841 0 3.714 1.525 5.865 4.132 5.865zm0-1.439c-1.516 0-2.383-1.547-2.383-4.426 0-2.839.882-4.394 2.383-4.394s2.368 1.539 2.368 4.394c0 2.886-.852 4.426-2.368 4.426z"/><path fill="#000" fill-opacity=".5" d="M282.934 177.872h1.64c0-1.238.828-2.074 2.089-2.074 1.238 0 1.973.828 1.973 1.911 0 .906-.371 1.463-1.787 2.94l-3.822 3.977v1.176h7.52v-1.478h-5.153v-.131l2.46-2.476c1.958-1.965 2.523-2.886 2.523-4.178 0-1.833-1.509-3.172-3.606-3.172-2.251 0-3.837 1.455-3.837 3.505zm12.565 7.93h1.733v-11.164h-1.726l-2.94 2.089v1.702l2.801-2.004h.132v9.377z"/><path fill="#fff" d="M313.557 177.865v.023h1.64v-.023c0-1.192.828-1.997 2.058-1.997 1.153 0 2.027.766 2.027 1.788 0 .82-.364 1.408-1.857 2.963l-3.776 3.93v1.254h7.521v-1.555h-5.107v-.132l2.484-2.514c1.872-1.896 2.445-2.863 2.445-4.047 0-1.841-1.563-3.187-3.683-3.187-2.197 0-3.752 1.439-3.752 3.497zm9.794 0v.023h1.641v-.023c0-1.192.828-1.997 2.058-1.997 1.153 0 2.027.766 2.027 1.788 0 .82-.364 1.408-1.857 2.963l-3.776 3.93v1.254h7.521v-1.555h-5.107v-.132l2.484-2.514c1.872-1.896 2.445-2.863 2.445-4.047 0-1.841-1.563-3.187-3.683-3.187-2.197 0-3.753 1.439-3.753 3.497z"/><path fill="#000" d="M345.052 177.872h1.64c0-1.238.828-2.073 2.089-2.073 1.238 0 1.973.828 1.973 1.911 0 .905-.372 1.462-1.788 2.94l-3.822 3.977v1.176h7.521v-1.478h-5.153v-.132l2.46-2.475c1.958-1.966 2.523-2.886 2.523-4.178 0-1.834-1.509-3.172-3.606-3.172-2.251 0-3.837 1.454-3.837 3.504zm12.355 2.879h1.393c1.455 0 2.352.742 2.352 1.934 0 1.16-.959 1.934-2.329 1.934-1.354 0-2.29-.704-2.39-1.803h-1.664c.093 1.965 1.718 3.258 4.078 3.258 2.328 0 4.085-1.393 4.085-3.296 0-1.532-.96-2.523-2.445-2.747v-.132c1.168-.325 2.011-1.214 2.019-2.56.008-1.587-1.3-2.971-3.605-2.971-2.352 0-3.807 1.353-3.923 3.249h1.64c.101-1.168.913-1.826 2.182-1.826 1.254 0 1.996.782 1.996 1.764 0 1.076-.835 1.834-2.042 1.834h-1.347v1.362zm19.295-2.879h1.64c0-1.238.828-2.073 2.089-2.073 1.238 0 1.973.828 1.973 1.911 0 .905-.371 1.462-1.787 2.94l-3.822 3.977v1.176h7.52v-1.478h-5.153v-.132l2.461-2.475c1.957-1.966 2.522-2.886 2.522-4.178 0-1.834-1.509-3.172-3.606-3.172-2.251 0-3.837 1.454-3.837 3.504zm14.824 7.931h1.671v-2.221h1.54v-1.47h-1.54v-7.474h-2.468a152.553 152.553 0 0 0-4.65 7.474v1.47h5.447v2.221zm-3.784-3.768a127.884 127.884 0 0 1 3.706-5.934h.101v6.042h-3.807v-.108zm20.761-4.163h1.64c0-1.238.828-2.073 2.089-2.073 1.238 0 1.973.828 1.973 1.911 0 .905-.371 1.462-1.787 2.94l-3.822 3.977v1.176h7.52v-1.478h-5.153v-.132l2.461-2.475c1.957-1.966 2.522-2.886 2.522-4.178 0-1.834-1.509-3.172-3.605-3.172-2.252 0-3.838 1.454-3.838 3.504zm13.787 8.202c2.368 0 3.969-1.587 3.969-3.908 0-2.228-1.547-3.682-3.435-3.682-1.129 0-1.957.363-2.468 1.052h-.131l.325-3.428h5.129v-1.47h-6.476l-.626 6.445h1.586c.41-.773 1.191-1.238 2.182-1.238 1.315 0 2.22.944 2.22 2.352 0 1.455-.913 2.43-2.267 2.43-1.215 0-2.12-.735-2.244-1.849h-1.655c.108 1.942 1.671 3.296 3.891 3.296zm17.747-8.202h1.64c0-1.238.828-2.073 2.089-2.073 1.238 0 1.973.828 1.973 1.911 0 .905-.371 1.462-1.787 2.94l-3.822 3.977v1.176h7.52v-1.478h-5.153v-.132l2.461-2.475c1.957-1.966 2.522-2.886 2.522-4.178 0-1.834-1.509-3.172-3.606-3.172-2.251 0-3.837 1.454-3.837 3.504zm14.011 8.194c2.368 0 4.047-1.617 4.047-3.884 0-2.151-1.548-3.722-3.667-3.722-1.323 0-2.399.619-2.933 1.695h-.131c.031-2.832 1.052-4.325 2.793-4.325 1.052 0 1.818.541 2.035 1.485h1.74c-.278-1.771-1.717-2.947-3.814-2.947-2.716 0-4.418 2.212-4.418 6.003 0 3.799 1.834 5.695 4.348 5.695zm-.015-1.447c-1.331 0-2.344-1.052-2.344-2.429 0-1.362.982-2.345 2.359-2.345 1.378 0 2.329.983 2.329 2.383 0 1.354-1.013 2.391-2.344 2.391z"/><path fill="#000" fill-opacity=".5" d="M472.291 177.872h1.64c0-1.238.828-2.073 2.089-2.073 1.238 0 1.973.828 1.973 1.911 0 .905-.372 1.462-1.788 2.94l-3.822 3.977v1.176h7.521v-1.478h-5.153v-.132l2.46-2.475c1.958-1.966 2.523-2.886 2.523-4.178 0-1.834-1.509-3.172-3.606-3.172-2.251 0-3.837 1.454-3.837 3.504zm10.359 7.931h1.819l4.858-9.664v-1.501h-7.605v1.463h5.849v.123l-4.921 9.579zm-197.279-30.107h1.733v-11.164h-1.725l-2.94 2.089v1.702l2.8-2.004h.132v9.377zm10.12 0h1.671v-2.22h1.54v-1.47h-1.54v-7.474h-2.468a152.079 152.079 0 0 0-4.65 7.474v1.47h5.447v2.22zm-3.784-3.768a128.955 128.955 0 0 1 3.706-5.934h.101v6.043h-3.807v-.109z"/><path fill="#000" d="M317.263 155.696h1.733v-11.164h-1.726l-2.94 2.089v1.702l2.801-2.004h.132v9.377zm8.882.271c2.367 0 3.969-1.586 3.969-3.907 0-2.228-1.548-3.683-3.436-3.683-1.129 0-1.957.364-2.468 1.052h-.131l.325-3.427h5.129v-1.47h-6.476l-.626 6.445h1.586c.41-.774 1.191-1.238 2.182-1.238 1.315 0 2.22.944 2.22 2.352 0 1.454-.913 2.429-2.267 2.429-1.214 0-2.12-.735-2.243-1.849h-1.656c.108 1.942 1.671 3.296 3.892 3.296zm22.651-.271h1.733v-11.164h-1.725l-2.94 2.089v1.702l2.801-2.004h.131v9.377zm9.107.263c2.367 0 4.046-1.617 4.046-3.884 0-2.15-1.547-3.721-3.667-3.721-1.323 0-2.399.619-2.933 1.694h-.131c.031-2.831 1.052-4.325 2.793-4.325 1.052 0 1.818.542 2.035 1.486h1.741c-.279-1.772-1.718-2.948-3.815-2.948-2.715 0-4.418 2.213-4.418 6.004 0 3.799 1.834 5.694 4.349 5.694zm-.016-1.446c-1.331 0-2.344-1.053-2.344-2.43 0-1.362.982-2.344 2.36-2.344 1.377 0 2.328.982 2.328 2.383 0 1.354-1.013 2.391-2.344 2.391zm23.163 1.183h1.733v-11.164h-1.725l-2.94 2.073v1.772l2.8-1.981h.132v9.3zm5.455 0h1.818l4.859-9.594v-1.57h-7.606v1.54h5.849v.123l-4.92 9.501zm25.642 0h1.733v-11.164h-1.725l-2.94 2.089v1.702l2.801-2.004h.131v9.377zm8.991.271c2.483 0 4.201-1.338 4.201-3.265 0-1.439-.944-2.569-2.376-2.839v-.132c1.176-.302 1.919-1.253 1.919-2.468 0-1.756-1.555-3.002-3.744-3.002-2.19 0-3.745 1.246-3.745 3.002 0 1.207.758 2.174 1.919 2.468v.132c-1.432.286-2.368 1.415-2.368 2.847 0 1.926 1.71 3.257 4.194 3.257zm0-6.77c-1.215 0-2.035-.712-2.035-1.772 0-1.075.812-1.794 2.035-1.794 1.222 0 2.042.719 2.042 1.794 0 1.06-.828 1.772-2.042 1.772zm0 5.393c-1.432 0-2.422-.828-2.422-2.019 0-1.192.99-2.012 2.422-2.012 1.431 0 2.421.82 2.421 2.012 0 1.191-.99 2.019-2.421 2.019zm22.736 1.106h1.733v-11.164h-1.725l-2.94 2.089v1.702l2.801-2.004h.131v9.377zm8.735.263c2.793 0 4.426-2.212 4.426-6.004 0-3.744-1.795-5.694-4.356-5.694-2.367 0-4.046 1.617-4.046 3.884 0 2.151 1.547 3.721 3.675 3.721 1.323 0 2.39-.618 2.924-1.686h.132c-.047 2.77-1.029 4.317-2.739 4.317-1.021 0-1.818-.557-2.081-1.478h-1.749c.333 1.795 1.834 2.94 3.814 2.94zm.078-5.493c-1.377 0-2.329-.967-2.329-2.375 0-1.346 1.006-2.383 2.344-2.383 1.331 0 2.337 1.052 2.337 2.429 0 1.354-.983 2.329-2.352 2.329z"/><path fill="#000" fill-opacity=".5" d="M471.764 147.766h1.641c0-1.238.828-2.074 2.089-2.074 1.238 0 1.973.828 1.973 1.911 0 .906-.372 1.463-1.788 2.94l-3.822 3.977v1.176h7.521v-1.477h-5.153v-.132l2.46-2.476c1.958-1.965 2.522-2.886 2.522-4.178 0-1.833-1.508-3.172-3.605-3.172-2.251 0-3.838 1.455-3.838 3.505zm13.834 8.201c2.6 0 4.116-2.143 4.116-5.841 0-3.706-1.539-5.865-4.116-5.865-2.592 0-4.131 2.159-4.131 5.841 0 3.714 1.524 5.865 4.131 5.865zm0-1.439c-1.516 0-2.383-1.547-2.383-4.426 0-2.839.882-4.394 2.383-4.394s2.368 1.54 2.368 4.394c0 2.886-.851 4.426-2.368 4.426zm-197.991-27.354h1.818l4.859-9.664v-1.501h-7.606v1.463h5.85v.123l-4.921 9.579z"/><path fill="#000" d="M322.23 127.445c2.483 0 4.201-1.339 4.201-3.265 0-1.439-.944-2.569-2.375-2.84v-.131c1.176-.302 1.918-1.254 1.918-2.468 0-1.757-1.555-3.002-3.744-3.002-2.19 0-3.745 1.245-3.745 3.002 0 1.207.758 2.174 1.919 2.468v.131c-1.432.286-2.368 1.416-2.368 2.847 0 1.927 1.71 3.258 4.194 3.258zm0-6.77c-1.215 0-2.035-.712-2.035-1.772 0-1.075.812-1.795 2.035-1.795 1.222 0 2.042.72 2.042 1.795 0 1.06-.828 1.772-2.042 1.772zm0 5.392c-1.432 0-2.422-.827-2.422-2.019 0-1.191.99-2.012 2.422-2.012 1.431 0 2.421.821 2.421 2.012 0 1.192-.99 2.019-2.421 2.019zm31.471 1.37c2.794 0 4.426-2.213 4.426-6.004 0-3.745-1.795-5.694-4.356-5.694-2.367 0-4.046 1.617-4.046 3.884 0 2.15 1.547 3.721 3.675 3.721 1.323 0 2.39-.619 2.924-1.687h.132c-.047 2.77-1.029 4.318-2.739 4.318-1.021 0-1.818-.557-2.081-1.478h-1.749c.333 1.795 1.834 2.94 3.814 2.94zm.078-5.493c-1.377 0-2.329-.967-2.329-2.376 0-1.346 1.006-2.383 2.344-2.383 1.331 0 2.337 1.053 2.337 2.43 0 1.354-.983 2.329-2.352 2.329zm26.745 5.23h1.733v-11.165h-1.725l-2.94 2.089v1.703l2.8-2.004h.132v9.377zm8.928.271c2.6 0 4.116-2.144 4.116-5.842 0-3.706-1.539-5.864-4.116-5.864-2.592 0-4.131 2.158-4.131 5.841 0 3.714 1.524 5.865 4.131 5.865zm0-1.439c-1.516 0-2.383-1.548-2.383-4.426 0-2.839.882-4.395 2.383-4.395s2.368 1.54 2.368 4.395c0 2.886-.851 4.426-2.368 4.426zm24.088 1.168h1.733v-11.165h-1.725l-2.94 2.089v1.703l2.8-2.004h.132v9.377zm7.659 0h1.734v-11.165h-1.726l-2.94 2.089v1.703l2.801-2.004h.131v9.377zm22.962 0h1.733v-11.165h-1.726l-2.94 2.089v1.703l2.801-2.004h.132v9.377zm4.889-7.931h1.641c0-1.237.827-2.073 2.089-2.073 1.238 0 1.973.828 1.973 1.911 0 .905-.372 1.462-1.788 2.94l-3.822 3.977v1.176h7.521v-1.478h-5.153v-.131l2.46-2.476c1.958-1.965 2.522-2.886 2.522-4.178 0-1.834-1.508-3.172-3.605-3.172-2.252 0-3.838 1.454-3.838 3.504z"/><path fill="#000" fill-opacity=".5" d="M475.656 127.174h1.733v-11.165h-1.725l-2.94 2.089v1.703l2.801-2.004h.131v9.377zm7.451-5.052h1.393c1.454 0 2.352.742 2.352 1.934 0 1.16-.96 1.934-2.329 1.934-1.354 0-2.29-.704-2.391-1.803h-1.663c.092 1.966 1.717 3.258 4.077 3.258 2.329 0 4.085-1.393 4.085-3.296 0-1.532-.959-2.523-2.445-2.747v-.131c1.168-.325 2.012-1.215 2.02-2.561.007-1.586-1.3-2.971-3.606-2.971-2.352 0-3.806 1.354-3.923 3.249h1.641c.1-1.168.913-1.826 2.182-1.826 1.253 0 1.996.782 1.996 1.764 0 1.076-.836 1.834-2.043 1.834h-1.346v1.362z"/><path fill="#000" d="M322.29 97.07h1.733V85.904h-1.726l-2.94 2.089v1.702l2.801-2.004h.132v9.377zm27.851-7.932h1.64c0-1.237.828-2.073 2.089-2.073 1.238 0 1.973.828 1.973 1.911 0 .905-.371 1.462-1.787 2.94l-3.822 3.977v1.176h7.52V95.59h-5.153v-.131l2.461-2.476c1.957-1.965 2.522-2.886 2.522-4.178 0-1.834-1.509-3.172-3.605-3.172-2.252 0-3.838 1.454-3.838 3.504zm34.056 2.879h1.393c1.455 0 2.352.742 2.352 1.934 0 1.16-.959 1.934-2.329 1.934-1.354 0-2.29-.704-2.39-1.803h-1.664c.093 1.966 1.718 3.258 4.078 3.258 2.328 0 4.085-1.393 4.085-3.296 0-1.532-.96-2.522-2.445-2.747v-.131c1.168-.325 2.011-1.215 2.019-2.561.008-1.586-1.3-2.971-3.605-2.971-2.352 0-3.807 1.354-3.923 3.25h1.64c.101-1.17.913-1.827 2.182-1.827 1.254 0 1.996.782 1.996 1.764 0 1.076-.835 1.834-2.042 1.834h-1.347v1.362zm34.219 5.052h1.671v-2.22h1.54v-1.47h-1.54v-7.475h-2.468a152.17 152.17 0 0 0-4.65 7.474v1.47h5.447v2.22zm-3.783-3.768a126.842 126.842 0 0 1 3.706-5.934h.1v6.042h-3.806v-.108zm34.447 4.039c2.367 0 3.969-1.586 3.969-3.907 0-2.229-1.547-3.683-3.435-3.683-1.13 0-1.958.363-2.468 1.052h-.132l.325-3.428h5.13v-1.47h-6.476l-.627 6.445h1.586c.41-.773 1.192-1.238 2.182-1.238 1.315 0 2.221.944 2.221 2.352 0 1.455-.913 2.43-2.267 2.43-1.215 0-2.12-.735-2.244-1.85h-1.656c.109 1.943 1.671 3.297 3.892 3.297z"/><path fill="#000" fill-opacity=".5" d="M480.838 97.332c2.368 0 4.047-1.617 4.047-3.884 0-2.15-1.547-3.721-3.667-3.721-1.323 0-2.399.618-2.933 1.694h-.131c.031-2.832 1.052-4.325 2.793-4.325 1.052 0 1.818.541 2.035 1.485h1.74c-.278-1.771-1.717-2.947-3.814-2.947-2.716 0-4.418 2.212-4.418 6.004 0 3.798 1.834 5.694 4.348 5.694zm-.015-1.447c-1.331 0-2.344-1.052-2.344-2.43 0-1.361.982-2.344 2.359-2.344 1.378 0 2.329.983 2.329 2.383 0 1.354-1.013 2.391-2.344 2.391zM286.689 65.866c.112 1.783 1.609 2.925 3.837 2.925 2.381 0 3.872-1.198 3.872-3.1 0-1.503-.85-2.332-2.911-2.826l-1.107-.272c-1.309-.32-1.838-.738-1.838-1.469 0-.94.821-1.546 2.054-1.546 1.17 0 1.977.585 2.123 1.54h1.518c-.09-1.68-1.58-2.863-3.62-2.863-2.194 0-3.656 1.184-3.656 2.953 0 1.462.828 2.325 2.646 2.764l1.295.313c1.33.32 1.915.808 1.915 1.595 0 .92-.919 1.58-2.173 1.58-1.343 0-2.277-.62-2.409-1.594h-1.546zm40.632 2.68V58.498h-1.825l-3.203 7.632h-.118l-3.196-7.632h-1.825v10.048h1.449v-7.255h.097l2.945 6.963h1.184l2.946-6.963h.097v7.255h1.449zm27.385 0V59.92h3.154V58.5h-7.875v1.42h3.161v8.627h1.56zm30.853-7.374h.098l2.158 7.374h1.469L392 58.498h-1.622l-1.839 7.695h-.097l-2.11-7.695h-1.448l-2.096 7.695h-.098l-1.845-7.695h-1.622l2.708 10.048h1.476l2.152-7.374zm32.536 7.374V59.92h3.155V58.5h-7.876v1.42h3.162v8.627h1.559zm29.579 0v-4.164h4.317v-1.378h-4.317v-3.085h4.714v-1.42h-6.274v10.047h1.56zm29.161-2.681c.112 1.783 1.609 2.925 3.837 2.925 2.381 0 3.872-1.198 3.872-3.099 0-1.504-.85-2.332-2.911-2.827l-1.107-.271c-1.309-.32-1.838-.738-1.838-1.47 0-.94.821-1.545 2.054-1.545 1.169 0 1.977.585 2.123 1.539h1.518c-.09-1.679-1.58-2.862-3.62-2.862-2.194 0-3.656 1.183-3.656 2.952 0 1.462.828 2.326 2.646 2.764l1.295.314c1.33.32 1.915.808 1.915 1.594 0 .92-.919 1.581-2.173 1.581-1.343 0-2.277-.62-2.409-1.594h-1.546z"/></g><defs><clipPath id="a"><rect width="521.309" height="245.602" x=".578" y=".012" fill="#fff" rx="36.583"/></clipPath></defs></svg>