<svg xmlns="http://www.w3.org/2000/svg" width="530" height="520" fill="none"><g clip-path="url(#a)"><rect width="529.261" height="555" fill="#fff" rx="34.86"/><path fill="#323136" d="M27.352 183.391h501.913v.804H27.352z"/><path fill="#DCDCDC" d="M27.352 273.477h501.913v.804H27.352zm0 90.087h501.913v.804H27.352zm0 90.087h501.913v.804H27.352zm0-361.956h501.913v.804H27.352zm0 91.696h501.913v.804H27.352z"/><path fill="#000" d="M91.942 43.265V58h5.32c4.391 0 6.934-2.706 6.934-7.413 0-4.637-2.563-7.322-6.934-7.322h-5.32zm2.287 2.083h2.778c3.053 0 4.861 1.94 4.861 5.27 0 3.38-1.777 5.299-4.861 5.299h-2.778V45.348zm22.169 1.532h-2.195v6.504c0 1.747-.97 2.798-2.747 2.798-1.613 0-2.338-.857-2.338-2.655V46.88h-2.196v7.22c0 2.613 1.369 4.114 3.83 4.114 1.684 0 2.818-.714 3.359-1.98h.174V58h2.113V46.88zm6.822 9.456c-1.195 0-2.063-.582-2.063-1.583 0-.98.694-1.501 2.226-1.603l2.716-.174v.93c0 1.378-1.225 2.43-2.879 2.43zm-.562 1.848c1.46 0 2.675-.633 3.339-1.746h.174V58h2.114v-7.597c0-2.349-1.573-3.738-4.361-3.738-2.522 0-4.319 1.226-4.544 3.135h2.124c.245-.786 1.093-1.235 2.318-1.235 1.501 0 2.277.663 2.277 1.838v.96l-3.012.173c-2.645.163-4.136 1.317-4.136 3.319 0 2.032 1.563 3.329 3.707 3.329zm10.457-9.099 1.715-5.82h-2.338l-.94 5.82h1.563zm3.145.94c0 1.654.98 2.604 3.094 3.104l1.94.45c1.113.265 1.634.694 1.634 1.358 0 .888-.97 1.5-2.339 1.5-1.327 0-2.144-.53-2.42-1.388h-2.195c.194 1.97 1.92 3.165 4.564 3.165 2.655 0 4.606-1.398 4.606-3.492 0-1.634-.991-2.543-3.105-3.033l-1.848-.429c-1.205-.275-1.766-.694-1.766-1.358 0-.868.929-1.45 2.154-1.45 1.246 0 2.042.521 2.247 1.338h2.103c-.214-1.96-1.848-3.125-4.35-3.125-2.512 0-4.319 1.39-4.319 3.36zM153.548 58h2.185V46.88h-2.185V58zm1.092-13.07c.817 0 1.42-.583 1.42-1.338 0-.766-.603-1.348-1.42-1.348s-1.419.582-1.419 1.348c0 .755.602 1.337 1.419 1.337zm4.575-1.665V58h2.287v-4.963h3.411c2.89 0 4.932-1.98 4.932-4.86 0-2.92-1.981-4.912-4.861-4.912h-5.769zm2.287 2.022h2.88c2.012 0 3.125 1.02 3.125 2.89 0 1.827-1.154 2.849-3.125 2.849h-2.88v-5.74zM172.643 58h2.196v-6.495c0-1.684 1-2.818 2.797-2.818 1.553 0 2.38.899 2.38 2.676V58h2.195v-7.179c0-2.644-1.46-4.145-3.829-4.145-1.675 0-2.849.745-3.39 1.99h-.174V42.54h-2.175V58zm17.36.214c3.247 0 5.238-2.175 5.238-5.78 0-3.584-2.001-5.769-5.238-5.769-3.248 0-5.249 2.185-5.249 5.77 0 3.604 1.991 5.78 5.249 5.78zm0-1.95c-1.91 0-2.982-1.399-2.982-3.83 0-2.41 1.072-3.818 2.982-3.818 1.899 0 2.981 1.409 2.981 3.819 0 2.42-1.082 3.83-2.981 3.83zM197.886 58h2.195v-6.505c0-1.736 1.032-2.818 2.655-2.818 1.624 0 2.4.888 2.4 2.675V58h2.195v-7.2c0-2.644-1.368-4.135-3.849-4.135-1.675 0-2.778.746-3.319 1.981H200V46.88h-2.114V58zm17.104-9.466c1.624 0 2.686 1.133 2.737 2.88h-5.617c.123-1.736 1.256-2.88 2.88-2.88zm2.726 6.464c-.408.868-1.317 1.348-2.644 1.348-1.757 0-2.89-1.236-2.962-3.186v-.123h7.853v-.766c0-3.492-1.869-5.606-4.963-5.606-3.135 0-5.126 2.257-5.126 5.81 0 3.554 1.95 5.74 5.136 5.74 2.543 0 4.32-1.226 4.82-3.217h-2.114zM231.849 58h2.287V43.265h-2.277L227.979 46v2.339l3.696-2.614h.174V58zm10.109 0h2.288V43.265h-2.277L238.088 46v2.339l3.697-2.614h.173V58zm12.55-14.735V58h2.288v-4.963h3.41c2.89 0 4.932-1.98 4.932-4.86 0-2.92-1.981-4.912-4.86-4.912h-5.77zm2.288 2.022h2.879c2.012 0 3.125 1.02 3.125 2.89 0 1.827-1.154 2.849-3.125 2.849h-2.879v-5.74zM267.834 58h2.196v-6.566c0-1.562 1.174-2.614 2.838-2.614.388 0 1.042.071 1.226.133v-2.165c-.235-.061-.654-.092-.98-.092-1.451 0-2.686.796-3.003 1.889h-.163V46.88h-2.114V58zm12.785.214c3.247 0 5.238-2.175 5.238-5.78 0-3.584-2.001-5.769-5.238-5.769-3.247 0-5.249 2.185-5.249 5.77 0 3.604 1.991 5.78 5.249 5.78zm0-1.95c-1.91 0-2.982-1.399-2.982-3.83 0-2.41 1.072-3.818 2.982-3.818 1.899 0 2.982 1.409 2.982 3.819 0 2.42-1.083 3.83-2.982 3.83zm133.906 2.093c3.176 0 5.33-2.072 5.33-5.126 0-2.9-1.971-4.942-4.769-4.942-1.399 0-2.44.47-3.114 1.338h-.174l.388-4.32h6.811v-2.042h-8.598l-.776 8.434h2.094c.571-.95 1.593-1.51 2.859-1.51 1.797 0 3.043 1.255 3.043 3.103 0 1.839-1.236 3.054-3.074 3.054-1.613 0-2.808-.95-2.982-2.38h-2.175c.133 2.584 2.206 4.391 5.137 4.391zm13.377 0c3.431 0 5.432-2.828 5.432-7.72 0-4.88-2.032-7.73-5.432-7.73-3.421 0-5.453 2.84-5.453 7.71 0 4.902 2.011 7.74 5.453 7.74zm0-2.001c-2.002 0-3.145-2.012-3.145-5.739 0-3.686 1.164-5.708 3.145-5.708s3.124 2.012 3.124 5.708c0 3.738-1.123 5.739-3.124 5.739zm14.04-9.752c0-2.155-1.327-3.635-3.247-3.635s-3.247 1.49-3.247 3.635c0 2.144 1.338 3.635 3.247 3.635 1.92 0 3.247-1.49 3.247-3.635zm-3.247 2.042c-.837 0-1.389-.806-1.389-2.052s.542-2.032 1.389-2.032c.858 0 1.389.766 1.389 2.032 0 1.246-.551 2.052-1.389 2.052zm.276 9.354 4.799-6.934 5.698-7.801h-2.226l-4.901 7.036L436.735 58h2.236zm11.723-3.35c0-2.144-1.328-3.624-3.248-3.624-1.919 0-3.257 1.48-3.257 3.625 0 2.154 1.338 3.645 3.257 3.645 1.92 0 3.248-1.49 3.248-3.645zm-3.248 2.053c-.837 0-1.388-.807-1.388-2.052 0-1.246.541-2.032 1.388-2.032.848 0 1.379.765 1.379 2.032 0 1.245-.541 2.052-1.379 2.052z"/><path fill="#1D1D1F" d="M54.963 25.74h-17.59a3.603 3.603 0 0 0-3.592 3.591v42.364a3.604 3.604 0 0 0 3.593 3.592h17.589a3.604 3.604 0 0 0 3.592-3.592V29.332a3.603 3.603 0 0 0-3.592-3.593zm-6.453 1.294a.372.372 0 1 1 0 .744.372.372 0 0 1 0-.744zm-3.468.08h2.252a.281.281 0 1 1 0 .562h-2.252a.281.281 0 1 1 0-.563zm12.387 44.58a2.466 2.466 0 0 1-2.466 2.467h-17.59a2.466 2.466 0 0 1-2.466-2.466V29.332a2.466 2.466 0 0 1 2.467-2.467h2.6a.563.563 0 0 1 .564.563v.563a1.126 1.126 0 0 0 1.126 1.127h9.009a1.126 1.126 0 0 0 1.126-1.127v-.563a.563.563 0 0 1 .563-.563h2.6a2.465 2.465 0 0 1 2.467 2.466v42.364z"/><path fill="#FA3E3E" d="M460.094 33.783h43.435v32.174h-43.435z" opacity=".01"/><path fill="#000" fill-opacity=".38" fill-rule="evenodd" d="M494.674 41.023h-27.348a4.021 4.021 0 0 0-4.021 4.022v10.457c0 2.22 1.8 4.021 4.021 4.021h27.348c2.221 0 4.022-1.8 4.022-4.021V45.045a4.022 4.022 0 0 0-4.022-4.022zm-29.76 4.022a2.413 2.413 0 0 1 2.413-2.413h27.348a2.413 2.413 0 0 1 2.413 2.413V55.5a2.413 2.413 0 0 1-2.413 2.413h-27.348a2.413 2.413 0 0 1-2.413-2.413V45.045zm37.409 4.825a4.018 4.018 0 0 0-2.011-3.483v6.967a4.018 4.018 0 0 0 2.011-3.484z" clip-rule="evenodd"/><rect width="14.478" height="12.065" x="466.523" y="44.239" fill="#11B826" rx="1.609"/><path fill="#000" d="M91.934 131.741v14.736h5.32c4.391 0 6.934-2.706 6.934-7.414 0-4.636-2.563-7.322-6.934-7.322h-5.32zm2.288 2.084h2.777c3.053 0 4.861 1.94 4.861 5.269 0 3.38-1.777 5.299-4.86 5.299h-2.778v-10.568zm22.169 1.531h-2.196v6.505c0 1.746-.97 2.798-2.747 2.798-1.613 0-2.338-.858-2.338-2.655v-6.648h-2.196v7.22c0 2.614 1.369 4.115 3.83 4.115 1.685 0 2.818-.715 3.359-1.981h.174v1.767h2.114v-11.121zm6.821 9.456c-1.195 0-2.063-.582-2.063-1.583 0-.98.695-1.501 2.226-1.603l2.716-.173v.929c0 1.378-1.225 2.43-2.879 2.43zm-.562 1.848c1.46 0 2.676-.633 3.339-1.746h.174v1.563h2.114v-7.598c0-2.348-1.573-3.737-4.361-3.737-2.522 0-4.319 1.225-4.544 3.135h2.124c.245-.787 1.093-1.236 2.318-1.236 1.501 0 2.277.664 2.277 1.838v.96l-3.012.174c-2.645.163-4.136 1.317-4.136 3.318 0 2.033 1.563 3.329 3.707 3.329zm10.457-9.098 1.715-5.821h-2.338l-.94 5.821h1.563zm3.145.939c0 1.655.98 2.604 3.094 3.105l1.94.449c1.113.266 1.634.694 1.634 1.358 0 .889-.97 1.501-2.338 1.501-1.328 0-2.145-.531-2.421-1.389h-2.195c.194 1.971 1.92 3.166 4.564 3.166 2.655 0 4.606-1.399 4.606-3.492 0-1.634-.991-2.543-3.104-3.033l-1.849-.429c-1.205-.276-1.766-.694-1.766-1.358 0-.868.929-1.45 2.154-1.45 1.246 0 2.043.521 2.247 1.338h2.103c-.214-1.961-1.848-3.125-4.35-3.125-2.512 0-4.319 1.389-4.319 3.359zm27.04 7.976h2.43l-5.32-14.736h-2.461l-5.32 14.736h2.348l1.359-3.911h5.616l1.348 3.911zm-4.238-12.06h.174l2.134 6.229h-4.452l2.144-6.229zm14.756.755c-1.512 0-2.819.756-3.493 2.022h-.163v-1.838h-2.114v14.817h2.196v-5.381h.173c.582 1.174 1.838 1.868 3.421 1.868 2.808 0 4.595-2.216 4.595-5.749 0-3.533-1.787-5.739-4.615-5.739zm-.623 9.518c-1.838 0-2.992-1.45-2.992-3.768 0-2.329 1.154-3.779 3.002-3.779 1.858 0 2.971 1.42 2.971 3.768 0 2.359-1.113 3.779-2.981 3.779zm13.652-9.518c-1.511 0-2.818.756-3.492 2.022h-.163v-1.838h-2.114v14.817h2.195v-5.381h.174c.582 1.174 1.838 1.868 3.421 1.868 2.808 0 4.595-2.216 4.595-5.749 0-3.533-1.787-5.739-4.616-5.739zm-.622 9.518c-1.839 0-2.992-1.45-2.992-3.768 0-2.329 1.153-3.779 3.002-3.779 1.858 0 2.971 1.42 2.971 3.768 0 2.359-1.113 3.779-2.981 3.779zm7.985 1.787h2.195v-15.461h-2.195v15.461zm10.058-9.466c1.624 0 2.686 1.133 2.737 2.879h-5.617c.123-1.736 1.257-2.879 2.88-2.879zm2.727 6.463c-.409.868-1.318 1.348-2.645 1.348-1.757 0-2.89-1.235-2.962-3.186v-.122h7.853v-.766c0-3.492-1.869-5.606-4.963-5.606-3.135 0-5.126 2.257-5.126 5.81 0 3.554 1.951 5.739 5.137 5.739 2.542 0 4.319-1.225 4.819-3.217h-2.113zm19.207-7.811h.143l3.166 10.814h2.154l3.983-14.736h-2.379l-2.696 11.284h-.143l-3.094-11.284h-2.124l-3.074 11.284h-.143l-2.706-11.284h-2.379l3.972 14.736h2.165l3.155-10.814zm14.47 9.149c-1.195 0-2.063-.582-2.063-1.583 0-.98.695-1.501 2.226-1.603l2.717-.173v.929c0 1.378-1.226 2.43-2.88 2.43zm-.562 1.848c1.461 0 2.676-.633 3.339-1.746h.174v1.563h2.114v-7.598c0-2.348-1.573-3.737-4.36-3.737-2.523 0-4.32 1.225-4.545 3.135h2.124c.245-.787 1.093-1.236 2.318-1.236 1.501 0 2.278.664 2.278 1.838v.96l-3.013.174c-2.645.163-4.135 1.317-4.135 3.318 0 2.033 1.562 3.329 3.706 3.329zm9.528-14.071v2.818h-1.767v1.849h1.767v6.28c0 2.144.97 3.002 3.41 3.002a7.12 7.12 0 0 0 1.195-.112v-1.828c-.306.03-.5.051-.837.051-1.093 0-1.573-.511-1.573-1.675v-5.718h2.41v-1.849h-2.41v-2.818h-2.195zm16.481 6.403c-.286-2.227-1.971-3.85-4.759-3.85-3.237 0-5.208 2.175-5.208 5.739 0 3.625 1.982 5.81 5.219 5.81 2.746 0 4.462-1.552 4.748-3.788h-2.134c-.286 1.194-1.236 1.827-2.625 1.827-1.828 0-2.961-1.439-2.961-3.849 0-2.369 1.123-3.779 2.961-3.779 1.471 0 2.369.807 2.625 1.89h2.134zm2.614 7.485h2.195v-6.495c0-1.685 1.001-2.818 2.798-2.818 1.553 0 2.38.898 2.38 2.675v6.638h2.195v-7.179c0-2.645-1.46-4.146-3.829-4.146-1.675 0-2.849.746-3.39 1.991h-.174v-6.127h-2.175v15.461zm145.787.357c3.278 0 5.545-1.756 5.545-4.309 0-1.9-1.246-3.39-3.135-3.748v-.173c1.552-.399 2.532-1.655 2.532-3.248 0-2.328-2.052-3.972-4.942-3.972s-4.942 1.644-4.942 3.972c0 1.583 1.001 2.86 2.532 3.248v.173c-1.889.388-3.124 1.879-3.124 3.758 0 2.543 2.256 4.299 5.534 4.299zm0-1.899c-1.889 0-3.196-1.062-3.196-2.594 0-1.542 1.307-2.604 3.196-2.604 1.889 0 3.196 1.062 3.196 2.604 0 1.532-1.307 2.594-3.196 2.594zm0-7.067c-1.603 0-2.685-.929-2.685-2.287 0-1.379 1.072-2.318 2.685-2.318 1.614 0 2.696.939 2.696 2.318 0 1.358-1.093 2.287-2.696 2.287zm13.602 8.966c3.176 0 5.33-2.073 5.33-5.126 0-2.9-1.971-4.943-4.769-4.943-1.399 0-2.44.47-3.114 1.338h-.174l.388-4.319h6.811v-2.043h-8.598l-.776 8.435h2.094c.571-.95 1.593-1.511 2.859-1.511 1.797 0 3.043 1.256 3.043 3.104 0 1.838-1.236 3.053-3.074 3.053-1.613 0-2.808-.949-2.982-2.379h-2.175c.133 2.584 2.206 4.391 5.137 4.391zm13.836-11.753c0-2.155-1.327-3.636-3.247-3.636s-3.247 1.491-3.247 3.636c0 2.144 1.338 3.635 3.247 3.635 1.92 0 3.247-1.491 3.247-3.635zm-3.247 2.042c-.837 0-1.389-.807-1.389-2.053 0-1.245.542-2.032 1.389-2.032.858 0 1.389.766 1.389 2.032 0 1.246-.552 2.053-1.389 2.053zm.276 9.354 4.799-6.934 5.698-7.802h-2.226l-4.901 7.036-5.607 7.7h2.237zm11.723-3.35c0-2.144-1.328-3.625-3.248-3.625-1.919 0-3.257 1.481-3.257 3.625 0 2.155 1.338 3.646 3.257 3.646 1.92 0 3.248-1.491 3.248-3.646zm-3.248 2.053c-.837 0-1.388-.807-1.388-2.053s.541-2.032 1.388-2.032c.848 0 1.379.766 1.379 2.032 0 1.246-.541 2.053-1.379 2.053z"/><path fill="#1D1D1F" d="M32.555 127.821c.2.029.404-.003.586-.09.161-.078.303-.189.417-.327a3.79 3.79 0 0 0 .236-.417l.102-.214.236-.461.236-.473.293-.473c.113-.18.237-.36.36-.529.273-.394.57-.77.89-1.126.158-.192.36-.372.552-.564.191-.191.405-.382.63-.574.48-.407.983-.783 1.51-1.126l.427-.27.44-.248.112-.067.124-.068.248-.124.248-.135.123-.068a18.74 18.74 0 0 1 1.025-.428c.368-.141.744-.261 1.126-.36.776-.251 1.57-.439 2.376-.563a17.577 17.577 0 0 1 6.261.248 11.32 11.32 0 0 1 3.085 1.16 17.597 17.597 0 0 1 7.14 7.59 3.376 3.376 0 0 1 .113 2.59c0 .18-.102.371-.135.574a5.48 5.48 0 0 0 .169 2.747c0 .282.157.766.191 1.07a21.145 21.145 0 0 1-1.059 9.245.772.772 0 0 0 0 .136.615.615 0 0 0 .175.666c.06.054.131.095.208.122a.562.562 0 0 0 .457-.003.548.548 0 0 0 .298-.346 20.528 20.528 0 0 0 1.238-10.011c0-.349-.112-.653-.168-.935a5.507 5.507 0 0 1-.068-2.41c0-.169.079-.326.124-.506a4.743 4.743 0 0 0-.236-3.503 19.144 19.144 0 0 0-7.703-8.242 14.305 14.305 0 0 0-.923-.496c-.87-.4-1.774-.717-2.703-.946a19.782 19.782 0 0 0-6.565-.281c-1.736.207-3.427.69-5.011 1.43l-.135.067h-.147l-.259.124-.247.135-.124.057-.124.067-.518.282-.473.292c-.593.368-1.161.774-1.7 1.217-.26.202-.496.416-.721.619l-.327.315-.315.304c-.101.102-.191.203-.293.293l-.27.304c-.18.18-.338.372-.496.552-.11.112-.212.232-.304.36-.281.338-.529.687-.788 1.036l-.113.158-.36.518c-.067.101-.124.191-.18.259a1.57 1.57 0 0 0-.236.619v.102a1.06 1.06 0 0 0 .957 1.069l-.012.057z"/><path fill="#1D1D1F" d="M60.787 131.232c0-.202.09-.405.146-.585a3.155 3.155 0 0 0-.09-2.388l-.169-.36a2.743 2.743 0 0 0-.124-.259c0-.09-.101-.18-.135-.259a19.995 19.995 0 0 0-1.126-1.723 48.42 48.42 0 0 0-1.126-1.396c-.35-.417-.754-.777-1.126-1.126l-.484-.394c-.17-.124-.316-.259-.45-.372l-.406-.293c-.315-.225-.642-.439-.969-.653a.595.595 0 0 0-.68.006.596.596 0 0 0-.164.174.61.61 0 0 0 .169.845l.158.101.19.135.125.079.135.09.304.214c.113.09.236.18.36.293l.417.327.462.405c.35.322.68.664.99 1.025.383.41.737.846 1.06 1.306.375.506.718 1.036 1.024 1.588l.113.225c.041.065.079.133.112.203.068.157.135.315.191.473.136.335.252.677.35 1.024 0 .18.112.361.202.597.126.305.3.586.518.833 0 0 .011-.09.023-.135zm3.575 1.948a6.689 6.689 0 0 0-1.047-1.678 1.522 1.522 0 0 0 0 .191c-.16.72-.16 1.466 0 2.185.067.304.124.608.169.968a21.174 21.174 0 0 1-1.262 10.282 1.213 1.213 0 0 1-.506.596 19.925 19.925 0 0 1-2.252 4.066 16.524 16.524 0 0 1-4.145 4.065 14.36 14.36 0 0 1-5.135 2.173c-.877.195-1.77.308-2.668.338h-1.318c-.416 0-.844 0-1.261-.101a14.122 14.122 0 0 1-2.376-.462 10.554 10.554 0 0 1-1.126-.36c-.36-.136-.698-.282-1.025-.44h-.124l-.248-.123-.371-.237-.113-.056-.112-.068-.44-.248-.427-.27a14.874 14.874 0 0 1-1.51-1.126c-.225-.18-.427-.383-.63-.563a5.205 5.205 0 0 1-.552-.563 9.946 9.946 0 0 1-.89-1.126 8.795 8.795 0 0 1-.36-.529l-.293-.473a4.636 4.636 0 0 1-.236-.473l-.236-.462-.102-.214a3.767 3.767 0 0 0-.248-.417 1.061 1.061 0 0 0-.405-.326 1.006 1.006 0 0 0-.585-.101 1.125 1.125 0 0 0-.744.427 1.13 1.13 0 0 0-.214.642v.113c.03.219.11.427.237.608l.18.259c.113.18.236.349.36.518l.113.158c.244.359.507.705.788 1.036.095.129.196.253.304.371.158.169.316.372.496.552l.27.293.293.304.315.304.327.304c.225.203.461.428.72.631.54.439 1.108.841 1.7 1.204l.474.293.518.282.123.067.124.068.248.124.26.135h.145l.135.056a16.1 16.1 0 0 0 5.01 1.352c.462 0 .913.078 1.397.09h.698l.744.135a18.862 18.862 0 0 0 2.927-.383 16.103 16.103 0 0 0 5.63-2.444 18.162 18.162 0 0 0 4.505-4.504 21.722 21.722 0 0 0 2.872-5.495c.191-.575.405-1.126.551-1.735.068-.247.124-.506.192-.765.732-2.962 1.137-6.532.135-9.448z"/><path fill="#1D1D1F" d="M32.703 146.558a2.129 2.129 0 0 1 1.745.856c.139.191.26.394.36.608l.102.202.203.394a3.374 3.374 0 0 0 .608-1.925v-18.018a3.379 3.379 0 0 0-.563-1.858c-.079.181-.17.338-.248.496l-.079.158a4.736 4.736 0 0 1-.338.585 2.255 2.255 0 0 1-.833.687 2.109 2.109 0 0 1-.946.214h-.281a2.254 2.254 0 0 1-1.937-2.196v-.203c.042-.294.133-.58.27-.844a3.373 3.373 0 0 0-1.813 2.961v18.018a3.38 3.38 0 0 0 1.7 2.916 2.48 2.48 0 0 1-.168-.619v-.225c.003-.475.157-.936.439-1.318a2.26 2.26 0 0 1 1.509-.878l.27-.011zm-.372-15.63a2.255 2.255 0 0 1 2.081 1.39 2.25 2.25 0 0 1-1.641 3.071 2.255 2.255 0 0 1-2.312-.958 2.251 2.251 0 0 1 1.872-3.503zm-2.252 12.387v-4.505a2.25 2.25 0 0 1 3.845-1.592c.422.422.66.995.66 1.592v4.505a2.25 2.25 0 0 1-3.845 1.592 2.25 2.25 0 0 1-.66-1.592z"/><path fill="#1D1D1F" d="M32.337 137.685a1.126 1.126 0 0 0-1.126 1.126v4.504a1.125 1.125 0 0 0 1.922.796c.211-.211.33-.497.33-.796v-4.504a1.129 1.129 0 0 0-1.126-1.126zm0-3.377a1.126 1.126 0 1 0 0-2.252 1.126 1.126 0 0 0 0 2.252z"/><path fill="#FA3E3E" d="M460.094 122.26h43.435v32.174h-43.435z" opacity=".01"/><path fill="#000" fill-opacity=".38" fill-rule="evenodd" d="M494.674 129.499h-27.348a4.022 4.022 0 0 0-4.021 4.022v10.456c0 2.221 1.8 4.022 4.021 4.022h27.348a4.022 4.022 0 0 0 4.022-4.022v-10.456a4.022 4.022 0 0 0-4.022-4.022zm-29.76 4.021a2.413 2.413 0 0 1 2.413-2.413h27.348a2.413 2.413 0 0 1 2.413 2.413v10.457a2.413 2.413 0 0 1-2.413 2.413h-27.348a2.413 2.413 0 0 1-2.413-2.413V133.52zm37.409 4.827a4.02 4.02 0 0 0-2.011-3.484v6.968a4.02 4.02 0 0 0 2.011-3.484z" clip-rule="evenodd"/><rect width="25.739" height="12.065" x="466.523" y="132.716" fill="#11B826" rx="1.609"/><path fill="#000" d="M91.95 220.221v14.735h5.32c4.391 0 6.934-2.706 6.934-7.413 0-4.636-2.564-7.322-6.934-7.322h-5.32zm2.287 2.083h2.778c3.053 0 4.86 1.94 4.86 5.269 0 3.38-1.776 5.3-4.86 5.3h-2.778v-10.569zm22.169 1.532h-2.195v6.504c0 1.747-.97 2.798-2.747 2.798-1.613 0-2.339-.857-2.339-2.655v-6.647h-2.195v7.219c0 2.614 1.368 4.115 3.829 4.115 1.685 0 2.819-.714 3.36-1.981h.173v1.767h2.114v-11.12zm6.821 9.456c-1.194 0-2.062-.582-2.062-1.583 0-.98.694-1.501 2.226-1.603l2.716-.174v.929c0 1.379-1.225 2.431-2.88 2.431zm-.561 1.848c1.46 0 2.675-.633 3.339-1.746h.174v1.562h2.113v-7.597c0-2.349-1.572-3.738-4.36-3.738-2.522 0-4.319 1.226-4.544 3.135h2.124c.245-.786 1.093-1.235 2.318-1.235 1.501 0 2.277.663 2.277 1.838v.96l-3.012.173c-2.645.164-4.136 1.317-4.136 3.319 0 2.032 1.562 3.329 3.707 3.329zm10.456-9.099 1.716-5.82h-2.339l-.939 5.82h1.562zm3.146.94c0 1.654.98 2.604 3.094 3.104l1.94.449c1.113.266 1.634.695 1.634 1.359 0 .888-.97 1.501-2.339 1.501-1.327 0-2.144-.531-2.42-1.389h-2.195c.194 1.971 1.919 3.165 4.564 3.165 2.655 0 4.605-1.398 4.605-3.492 0-1.634-.99-2.542-3.104-3.033l-1.848-.429c-1.205-.275-1.767-.694-1.767-1.358 0-.868.93-1.45 2.155-1.45 1.246 0 2.042.521 2.246 1.338h2.104c-.214-1.961-1.848-3.125-4.35-3.125-2.512 0-4.319 1.389-4.319 3.36zm27.039 7.975h2.431l-5.32-14.735h-2.461l-5.321 14.735h2.349l1.358-3.911h5.617l1.347 3.911zm-4.237-12.06h.173l2.134 6.229h-4.452l2.145-6.229zm9.027 12.06h2.185v-11.12h-2.185v11.12zm1.092-13.071c.817 0 1.42-.582 1.42-1.337 0-.766-.603-1.348-1.42-1.348s-1.419.582-1.419 1.348c0 .755.602 1.337 1.419 1.337zm4.32 13.071h2.195v-6.566c0-1.562 1.174-2.614 2.839-2.614.388 0 1.041.071 1.225.133v-2.165c-.235-.061-.653-.092-.98-.092-1.45 0-2.686.796-3.002 1.889h-.164v-1.705h-2.113v11.12zm8.628-14.735v14.735h2.288v-4.963h3.41c2.89 0 4.932-1.981 4.932-4.86 0-2.921-1.981-4.912-4.86-4.912h-5.77zm2.288 2.022h2.879c2.012 0 3.125 1.021 3.125 2.89 0 1.827-1.154 2.849-3.125 2.849h-2.879v-5.739zm15.429 12.927c3.247 0 5.239-2.175 5.239-5.779 0-3.584-2.002-5.77-5.239-5.77-3.247 0-5.248 2.186-5.248 5.77 0 3.604 1.991 5.779 5.248 5.779zm0-1.95c-1.909 0-2.982-1.399-2.982-3.829 0-2.41 1.073-3.819 2.982-3.819 1.9 0 2.982 1.409 2.982 3.819 0 2.42-1.082 3.829-2.982 3.829zm11.948 1.92c1.531 0 2.828-.725 3.492-1.94h.174v1.756h2.103v-15.46h-2.195v6.106h-.164c-.602-1.225-1.889-1.95-3.41-1.95-2.809 0-4.616 2.226-4.616 5.739 0 3.523 1.787 5.749 4.616 5.749zm.622-9.517c1.839 0 2.992 1.46 2.992 3.778 0 2.328-1.143 3.768-2.992 3.768-1.858 0-2.971-1.419-2.971-3.778 0-2.339 1.123-3.768 2.971-3.768zm8.19 1.358c0 1.654.98 2.604 3.094 3.104l1.94.449c1.113.266 1.634.695 1.634 1.359 0 .888-.97 1.501-2.338 1.501-1.328 0-2.145-.531-2.42-1.389h-2.196c.194 1.971 1.92 3.165 4.565 3.165 2.655 0 4.605-1.398 4.605-3.492 0-1.634-.99-2.542-3.104-3.033l-1.849-.429c-1.204-.275-1.766-.694-1.766-1.358 0-.868.929-1.45 2.155-1.45 1.245 0 2.042.521 2.246 1.338h2.104c-.215-1.961-1.849-3.125-4.35-3.125-2.513 0-4.32 1.389-4.32 3.36zm190.82 1.358h1.859c1.93 0 3.125.95 3.125 2.471 0 1.45-1.267 2.482-3.064 2.482-1.787 0-3.012-.909-3.155-2.339h-2.196c.133 2.635 2.257 4.36 5.351 4.36 3.074 0 5.402-1.878 5.402-4.38 0-1.971-1.225-3.35-3.237-3.584v-.174c1.624-.368 2.635-1.675 2.635-3.411 0-2.216-2.104-3.9-4.841-3.9-2.951 0-4.871 1.644-5.024 4.309h2.175c.123-1.45 1.175-2.339 2.778-2.339s2.655.899 2.655 2.267c0 1.389-1.093 2.349-2.676 2.349h-1.787v1.889zm15.624 6.974c3.125 0 5.341-2.144 5.341-5.146 0-2.849-2.043-4.912-4.841-4.912-1.746 0-3.155.807-3.87 2.226h-.173c.051-3.543 1.358-5.596 3.625-5.596 1.337 0 2.379.736 2.747 1.941h2.297c-.449-2.41-2.42-3.962-5.024-3.962-3.686 0-5.841 2.92-5.841 7.913 0 1.798.296 3.299.899 4.483.96 1.971 2.655 3.053 4.84 3.053zm-.02-2.011c-1.757 0-3.095-1.348-3.095-3.104 0-1.747 1.308-3.013 3.105-3.013 1.807 0 3.084 1.266 3.084 3.053 0 1.736-1.338 3.064-3.094 3.064zm13.928-9.742c0-2.155-1.328-3.635-3.247-3.635-1.92 0-3.248 1.491-3.248 3.635 0 2.144 1.338 3.635 3.248 3.635 1.919 0 3.247-1.491 3.247-3.635zm-3.247 2.042c-.838 0-1.389-.806-1.389-2.052s.541-2.032 1.389-2.032c.857 0 1.388.766 1.388 2.032 0 1.246-.551 2.052-1.388 2.052zm.275 9.354 4.8-6.934 5.698-7.801h-2.226l-4.902 7.036-5.606 7.699h2.236zm11.723-3.349c0-2.145-1.327-3.625-3.247-3.625s-3.258 1.48-3.258 3.625c0 2.154 1.338 3.645 3.258 3.645s3.247-1.491 3.247-3.645zm-3.247 2.052c-.837 0-1.389-.807-1.389-2.052 0-1.246.541-2.032 1.389-2.032.847 0 1.378.765 1.378 2.032 0 1.245-.541 2.052-1.378 2.052zM38.696 210.755c-2.68.101-4.38 1.79-5.957 3.445-.676.744-.54 1.284-.54 2.827 0 2.083 0 2.331.563 3.232a7.162 7.162 0 0 0 5.934 3.457c4.077.304 7.59-2.894 7.59-6.475 0-3.581-3.514-6.633-7.59-6.486zm-3.48 8.456a.675.675 0 0 1-1.34 0v-3.851a.675.675 0 0 1 1.34 0v3.851zm7.556-1.936a1.002 1.002 0 0 1-1.013.991h-2.185a1.012 1.012 0 0 1-.712-.286 1.003 1.003 0 0 1-.301-.705v-.124a1.003 1.003 0 0 1 1.013-.991h2.196a.993.993 0 0 1 .712.285 1.005 1.005 0 0 1 .302.706l-.011.124zm-3.378 7.792v15.169a1.724 1.724 0 0 0 1.543 1.497h1.813a1.778 1.778 0 0 0 1.633-1.7v-16.317a7.816 7.816 0 0 1-5.011 1.374l.022-.023zm22.522-10.945c-1.577-1.656-3.378-3.289-6.025-3.379-4.076-.146-7.567 2.917-7.567 6.509a6.964 6.964 0 0 0 2.33 4.818 6.957 6.957 0 0 0 5.057 1.747 7.533 7.533 0 0 0 6.059-3.603c.608-.901.563-1.126.563-3.232.045-1.554.225-2.095-.485-2.838l.068-.022zm-5.89 3.153a1 1 0 0 1-1.013.991h-2.252a1.011 1.011 0 0 1-.712-.286 1.003 1.003 0 0 1-.302-.705v-.124a1.003 1.003 0 0 1 1.014-.991h2.184a.993.993 0 0 1 .712.285 1.003 1.003 0 0 1 .302.706l.067.124zm4.595 1.936a.669.669 0 0 1-1.144.474.669.669 0 0 1-.196-.474v-3.839a.669.669 0 0 1 1.144-.474.669.669 0 0 1 .196.474v3.839zm-10.54 4.505v16.283a1.765 1.765 0 0 0 1.7 1.734h1.802a1.709 1.709 0 0 0 1.565-1.475v-15.18a7.765 7.765 0 0 1-5.067-1.362z"/><path fill="#FA3E3E" d="M460.102 210.738h43.435v32.174h-43.435z" opacity=".01"/><path fill="#000" fill-opacity=".38" fill-rule="evenodd" d="M494.682 217.977h-27.348a4.022 4.022 0 0 0-4.022 4.021v10.457a4.022 4.022 0 0 0 4.022 4.022h27.348a4.022 4.022 0 0 0 4.022-4.022v-10.457a4.022 4.022 0 0 0-4.022-4.021zm-29.76 4.021a2.413 2.413 0 0 1 2.413-2.413h27.348a2.413 2.413 0 0 1 2.413 2.413v10.457a2.414 2.414 0 0 1-2.413 2.413h-27.348a2.413 2.413 0 0 1-2.413-2.413v-10.457zm37.409 4.826a4.02 4.02 0 0 0-2.011-3.484v6.967a4.02 4.02 0 0 0 2.011-3.483z" clip-rule="evenodd"/><rect width="9.652" height="12.065" x="466.531" y="221.194" fill="#11B826" rx="1.609"/><path fill="#000" d="M91.934 313.524v14.735h5.32c4.391 0 6.934-2.706 6.934-7.414 0-4.636-2.563-7.321-6.934-7.321h-5.32zm2.288 2.083h2.777c3.053 0 4.861 1.94 4.861 5.269 0 3.38-1.777 5.3-4.86 5.3h-2.778v-10.569zm22.169 1.532h-2.196v6.504c0 1.746-.97 2.798-2.747 2.798-1.613 0-2.338-.858-2.338-2.655v-6.647h-2.196v7.219c0 2.614 1.369 4.115 3.83 4.115 1.685 0 2.818-.715 3.359-1.981h.174v1.767h2.114v-11.12zm6.821 9.455c-1.195 0-2.063-.582-2.063-1.582 0-.981.695-1.502 2.226-1.604l2.716-.173v.929c0 1.379-1.225 2.43-2.879 2.43zm-.562 1.849c1.46 0 2.676-.634 3.339-1.747h.174v1.563h2.114v-7.598c0-2.348-1.573-3.737-4.361-3.737-2.522 0-4.319 1.225-4.544 3.135h2.124c.245-.786 1.093-1.236 2.318-1.236 1.501 0 2.277.664 2.277 1.838v.96l-3.012.174c-2.645.163-4.136 1.317-4.136 3.319 0 2.032 1.563 3.329 3.707 3.329zm10.457-9.099 1.715-5.82h-2.338l-.94 5.82h1.563zm3.145.94c0 1.654.98 2.604 3.094 3.104l1.94.449c1.113.266 1.634.695 1.634 1.358 0 .889-.97 1.501-2.338 1.501-1.328 0-2.145-.531-2.421-1.388h-2.195c.194 1.97 1.92 3.165 4.564 3.165 2.655 0 4.606-1.399 4.606-3.492 0-1.634-.991-2.543-3.104-3.033l-1.849-.429c-1.205-.275-1.766-.694-1.766-1.358 0-.868.929-1.45 2.154-1.45 1.246 0 2.043.521 2.247 1.338h2.103c-.214-1.961-1.848-3.125-4.35-3.125-2.512 0-4.319 1.389-4.319 3.36zm17.288 7.975h2.185v-11.12h-2.185v11.12zm1.092-13.071c.817 0 1.42-.582 1.42-1.338 0-.765-.603-1.347-1.42-1.347-.816 0-1.419.582-1.419 1.347 0 .756.603 1.338 1.419 1.338zm4.575-1.664v14.735h2.288v-4.963h3.41c2.89 0 4.932-1.981 4.932-4.861 0-2.92-1.981-4.911-4.86-4.911h-5.77zm2.288 2.022h2.879c2.012 0 3.125 1.021 3.125 2.889 0 1.828-1.154 2.849-3.125 2.849h-2.879v-5.738zm14.265 11.048c-1.195 0-2.063-.582-2.063-1.582 0-.981.695-1.502 2.226-1.604l2.717-.173v.929c0 1.379-1.226 2.43-2.88 2.43zm-.562 1.849c1.461 0 2.676-.634 3.339-1.747h.174v1.563h2.114v-7.598c0-2.348-1.573-3.737-4.36-3.737-2.523 0-4.32 1.225-4.545 3.135h2.124c.246-.786 1.093-1.236 2.318-1.236 1.502 0 2.278.664 2.278 1.838v.96l-3.013.174c-2.645.163-4.135 1.317-4.135 3.319 0 2.032 1.562 3.329 3.706 3.329zm12.816 0c1.531 0 2.828-.725 3.492-1.941h.174v1.757h2.103v-15.46h-2.195v6.106h-.164c-.602-1.225-1.889-1.95-3.41-1.95-2.808 0-4.616 2.226-4.616 5.739 0 3.522 1.787 5.749 4.616 5.749zm.623-9.517c1.838 0 2.992 1.46 2.992 3.778 0 2.328-1.144 3.768-2.992 3.768-1.859 0-2.972-1.42-2.972-3.778 0-2.339 1.123-3.768 2.972-3.768zm212.555 9.333h2.288v-14.735h-2.277l-3.881 2.736v2.339l3.697-2.614h.173v12.274zm11.784.357c3.431 0 5.433-2.828 5.433-7.72 0-4.881-2.032-7.73-5.433-7.73-3.42 0-5.452 2.839-5.452 7.71 0 4.901 2.011 7.74 5.452 7.74zm0-2.001c-2.001 0-3.145-2.012-3.145-5.739 0-3.686 1.164-5.708 3.145-5.708s3.125 2.011 3.125 5.708c0 3.737-1.123 5.739-3.125 5.739zm13.582 2.001c3.431 0 5.432-2.828 5.432-7.72 0-4.881-2.032-7.73-5.432-7.73-3.421 0-5.453 2.839-5.453 7.71 0 4.901 2.011 7.74 5.453 7.74zm0-2.001c-2.002 0-3.145-2.012-3.145-5.739 0-3.686 1.164-5.708 3.145-5.708s3.124 2.011 3.124 5.708c0 3.737-1.123 5.739-3.124 5.739zm14.04-9.752c0-2.155-1.327-3.635-3.247-3.635s-3.247 1.49-3.247 3.635c0 2.144 1.338 3.635 3.247 3.635 1.92 0 3.247-1.491 3.247-3.635zm-3.247 2.042c-.837 0-1.389-.807-1.389-2.052 0-1.246.542-2.032 1.389-2.032.858 0 1.389.765 1.389 2.032 0 1.245-.551 2.052-1.389 2.052zm.276 9.354 4.799-6.934 5.698-7.801h-2.226l-4.901 7.035-5.606 7.7h2.236zm11.723-3.35c0-2.144-1.328-3.625-3.248-3.625-1.919 0-3.257 1.481-3.257 3.625 0 2.155 1.338 3.646 3.257 3.646 1.92 0 3.248-1.491 3.248-3.646zm-3.248 2.053c-.837 0-1.388-.807-1.388-2.053 0-1.245.541-2.032 1.388-2.032.848 0 1.379.766 1.379 2.032 0 1.246-.541 2.053-1.379 2.053z"/><path fill="#1D1D1F" fill-rule="evenodd" d="M61.26 294.39H30.486a1.698 1.698 0 0 0-1.532 1.7v45.235a1.511 1.511 0 0 0 .952 1.38c.185.073.381.109.58.106H61.26a1.46 1.46 0 0 0 1.475-1.486V296.09a1.658 1.658 0 0 0-1.475-1.7zm-15.416 1.599a.74.74 0 0 1 .73.888.74.74 0 0 1-.585.584.743.743 0 1 1-.145-1.472zm0 45.64a1.208 1.208 0 0 1-1.113-.744 1.204 1.204 0 1 1 2.318-.461 1.206 1.206 0 0 1-1.205 1.194v.011zm14.64-3.322H31.205v-39.413h29.279v39.413z" clip-rule="evenodd"/><path fill="#FA3E3E" d="M460.078 304.042h43.435v32.174h-43.435z" opacity=".01"/><path fill="#000" fill-opacity=".38" fill-rule="evenodd" d="M494.659 311.281h-27.348a4.022 4.022 0 0 0-4.022 4.022v10.457a4.022 4.022 0 0 0 4.022 4.021h27.348a4.02 4.02 0 0 0 4.021-4.021v-10.457c0-2.221-1.8-4.022-4.021-4.022zm-29.761 4.022a2.413 2.413 0 0 1 2.413-2.413h27.348a2.413 2.413 0 0 1 2.413 2.413v10.456a2.413 2.413 0 0 1-2.413 2.413h-27.348a2.413 2.413 0 0 1-2.413-2.413v-10.456zm37.41 4.825a4.02 4.02 0 0 0-2.011-3.483v6.967a4.02 4.02 0 0 0 2.011-3.484z" clip-rule="evenodd"/><rect width="28.956" height="12.065" x="466.508" y="314.498" fill="#11B826" rx="1.609"/><path fill="#000" fill-rule="evenodd" d="M32.188 403.781a4.826 4.826 0 0 1 4.826-4.826h20.913a4.826 4.826 0 0 1 4.826 4.826v3.218H32.187v-3.218zm9.656 4.825h-9.657v9.652a4.826 4.826 0 0 0 4.827 4.826h20.913a4.826 4.826 0 0 0 4.826-4.826v-9.652h-9.648a1.61 1.61 0 0 1-1.61 1.609h-8.043c-.888 0-1.608-.72-1.608-1.609zm6.42 5.631a.804.804 0 1 1-1.607 0 .804.804 0 0 1 1.608 0z" clip-rule="evenodd"/><path fill="#000" d="M91.934 403.611v14.735h5.32c4.391 0 6.934-2.706 6.934-7.414 0-4.636-2.563-7.321-6.934-7.321h-5.32zm2.288 2.083h2.777c3.053 0 4.861 1.94 4.861 5.269 0 3.38-1.777 5.3-4.86 5.3h-2.778v-10.569zm22.169 1.531h-2.196v6.505c0 1.746-.97 2.798-2.747 2.798-1.613 0-2.338-.858-2.338-2.655v-6.648h-2.196v7.22c0 2.614 1.369 4.115 3.83 4.115 1.685 0 2.818-.715 3.359-1.981h.174v1.767h2.114v-11.121zm6.821 9.456c-1.195 0-2.063-.582-2.063-1.583 0-.98.695-1.501 2.226-1.603l2.716-.173v.929c0 1.378-1.225 2.43-2.879 2.43zm-.562 1.849c1.46 0 2.676-.634 3.339-1.747h.174v1.563h2.114v-7.598c0-2.348-1.573-3.737-4.361-3.737-2.522 0-4.319 1.225-4.544 3.135h2.124c.245-.786 1.093-1.236 2.318-1.236 1.501 0 2.277.664 2.277 1.838v.96l-3.012.174c-2.645.163-4.136 1.317-4.136 3.319 0 2.032 1.563 3.329 3.707 3.329zm10.457-9.099 1.715-5.82h-2.338l-.94 5.82h1.563zm3.145.94c0 1.654.98 2.603 3.094 3.104l1.94.449c1.113.266 1.634.695 1.634 1.358 0 .889-.97 1.501-2.338 1.501-1.328 0-2.145-.531-2.421-1.388h-2.195c.194 1.97 1.92 3.165 4.564 3.165 2.655 0 4.606-1.399 4.606-3.492 0-1.634-.991-2.543-3.104-3.033l-1.849-.429c-1.205-.276-1.766-.694-1.766-1.358 0-.868.929-1.45 2.154-1.45 1.246 0 2.043.521 2.247 1.338h2.103c-.214-1.961-1.848-3.125-4.35-3.125-2.512 0-4.319 1.389-4.319 3.36zm27.04 7.975h2.43l-5.32-14.735h-2.461l-5.32 14.735h2.348l1.359-3.911h5.616l1.348 3.911zm-4.238-12.06h.174l2.134 6.229h-4.452l2.144-6.229zm9.027 12.06h2.185v-11.121h-2.185v11.121zm1.093-13.071c.817 0 1.419-.582 1.419-1.338 0-.766-.602-1.348-1.419-1.348-.817 0-1.42.582-1.42 1.348 0 .756.603 1.338 1.42 1.338zm4.319 13.071h2.196v-6.566c0-1.563 1.174-2.614 2.838-2.614.388 0 1.042.071 1.226.132v-2.164c-.235-.062-.654-.092-.981-.092-1.45 0-2.685.796-3.002 1.889h-.163v-1.706h-2.114v11.121zm8.629-14.735v14.735h2.287v-4.963h3.411c2.89 0 4.932-1.981 4.932-4.861 0-2.92-1.981-4.911-4.861-4.911h-5.769zm2.287 2.021h2.88c2.011 0 3.124 1.022 3.124 2.89 0 1.828-1.153 2.849-3.124 2.849h-2.88v-5.739zm15.43 12.928c3.247 0 5.238-2.175 5.238-5.78 0-3.584-2.001-5.769-5.238-5.769-3.248 0-5.249 2.185-5.249 5.769 0 3.605 1.991 5.78 5.249 5.78zm0-1.95c-1.91 0-2.982-1.399-2.982-3.83 0-2.409 1.072-3.819 2.982-3.819 1.899 0 2.981 1.41 2.981 3.819 0 2.421-1.082 3.83-2.981 3.83zm11.947 1.92c1.532 0 2.829-.726 3.492-1.941h.174v1.757h2.103v-15.46h-2.195v6.106h-.163c-.603-1.225-1.89-1.95-3.411-1.95-2.808 0-4.616 2.226-4.616 5.738 0 3.523 1.787 5.75 4.616 5.75zm.623-9.518c1.838 0 2.992 1.461 2.992 3.779 0 2.328-1.144 3.768-2.992 3.768-1.859 0-2.972-1.42-2.972-3.779 0-2.338 1.124-3.768 2.972-3.768zm8.189 1.359c0 1.654.981 2.603 3.095 3.104l1.94.449c1.113.266 1.634.695 1.634 1.358 0 .889-.971 1.501-2.339 1.501-1.327 0-2.144-.531-2.42-1.388h-2.195c.194 1.97 1.919 3.165 4.564 3.165 2.655 0 4.605-1.399 4.605-3.492 0-1.634-.99-2.543-3.104-3.033l-1.848-.429c-1.205-.276-1.767-.694-1.767-1.358 0-.868.93-1.45 2.155-1.45 1.246 0 2.042.521 2.246 1.338h2.104c-.214-1.961-1.848-3.125-4.35-3.125-2.512 0-4.32 1.389-4.32 3.36zm23.548 8.332c3.288 0 5.708-1.94 6.117-4.85h-2.277c-.409 1.664-1.89 2.716-3.84 2.716-2.655 0-4.309-2.155-4.309-5.586 0-3.441 1.654-5.596 4.299-5.596 1.94 0 3.421 1.164 3.85 2.972h2.277c-.368-3.002-2.88-5.106-6.127-5.106-4.095 0-6.638 2.951-6.638 7.73 0 4.769 2.553 7.72 6.648 7.72zm12.509-2.022c-1.195 0-2.063-.582-2.063-1.583 0-.98.695-1.501 2.226-1.603l2.717-.173v.929c0 1.378-1.226 2.43-2.88 2.43zm-.562 1.849c1.461 0 2.676-.634 3.34-1.747h.173v1.563h2.114v-7.598c0-2.348-1.573-3.737-4.36-3.737-2.523 0-4.32 1.225-4.544 3.135h2.124c.245-.786 1.092-1.236 2.318-1.236 1.501 0 2.277.664 2.277 1.838v.96l-3.013.174c-2.644.163-4.135 1.317-4.135 3.319 0 2.032 1.562 3.329 3.706 3.329zm8.496-8.159c0 1.654.981 2.603 3.094 3.104l1.941.449c1.113.266 1.633.695 1.633 1.358 0 .889-.97 1.501-2.338 1.501-1.327 0-2.144-.531-2.42-1.388h-2.196c.194 1.97 1.92 3.165 4.565 3.165 2.655 0 4.605-1.399 4.605-3.492 0-1.634-.99-2.543-3.104-3.033l-1.848-.429c-1.205-.276-1.767-.694-1.767-1.358 0-.868.929-1.45 2.155-1.45 1.246 0 2.042.521 2.246 1.338h2.104c-.215-1.961-1.848-3.125-4.35-3.125-2.512 0-4.32 1.389-4.32 3.36zm16.094-1.491c1.623 0 2.685 1.133 2.736 2.879h-5.616c.123-1.736 1.256-2.879 2.88-2.879zm2.726 6.464c-.408.868-1.317 1.347-2.645 1.347-1.756 0-2.89-1.235-2.961-3.186v-.122h7.853v-.766c0-3.492-1.869-5.606-4.963-5.606-3.135 0-5.126 2.257-5.126 5.81 0 3.554 1.95 5.739 5.136 5.739 2.543 0 4.319-1.225 4.82-3.216h-2.114zm131.57 3.359c3.278 0 5.545-1.756 5.545-4.309 0-1.899-1.246-3.39-3.135-3.748v-.173c1.552-.399 2.532-1.655 2.532-3.248 0-2.328-2.052-3.972-4.942-3.972s-4.943 1.644-4.943 3.972c0 1.583 1.001 2.86 2.533 3.248v.173c-1.889.388-3.125 1.879-3.125 3.758 0 2.543 2.257 4.299 5.535 4.299zm0-1.899c-1.889 0-3.196-1.062-3.196-2.594 0-1.542 1.307-2.604 3.196-2.604 1.889 0 3.196 1.062 3.196 2.604 0 1.532-1.307 2.594-3.196 2.594zm0-7.067c-1.603 0-2.686-.929-2.686-2.287 0-1.378 1.072-2.318 2.686-2.318 1.613 0 2.696.94 2.696 2.318 0 1.358-1.093 2.287-2.696 2.287zm9.119 8.609h2.399l6.413-12.662v-2.073h-10.038v2.032h7.72v.163l-6.494 12.54zm17.236-11.396c0-2.155-1.327-3.636-3.247-3.636s-3.247 1.491-3.247 3.636c0 2.144 1.338 3.635 3.247 3.635 1.92 0 3.247-1.491 3.247-3.635zm-3.247 2.042c-.837 0-1.389-.807-1.389-2.052 0-1.246.542-2.033 1.389-2.033.858 0 1.389.766 1.389 2.033 0 1.245-.551 2.052-1.389 2.052zm.276 9.354 4.799-6.934 5.698-7.801h-2.226l-4.901 7.035-5.606 7.7h2.236zm11.723-3.35c0-2.144-1.328-3.625-3.248-3.625-1.919 0-3.257 1.481-3.257 3.625 0 2.155 1.338 3.646 3.257 3.646 1.92 0 3.248-1.491 3.248-3.646zm-3.248 2.053c-.837 0-1.388-.807-1.388-2.053 0-1.245.541-2.032 1.388-2.032.848 0 1.379.766 1.379 2.032 0 1.246-.541 2.053-1.379 2.053z"/><path fill="#FA3E3E" d="M460.086 394.129h43.435v32.174h-43.435z" opacity=".01"/><path fill="#000" fill-opacity=".38" fill-rule="evenodd" d="M494.666 401.366h-27.347a4.022 4.022 0 0 0-4.022 4.022v10.456c0 2.222 1.8 4.022 4.022 4.022h27.347c2.222 0 4.022-1.8 4.022-4.022v-10.456c0-2.221-1.8-4.022-4.022-4.022zm-29.76 4.022a2.413 2.413 0 0 1 2.413-2.413h27.348a2.413 2.413 0 0 1 2.413 2.413v10.456a2.413 2.413 0 0 1-2.413 2.413h-27.348a2.413 2.413 0 0 1-2.413-2.413v-10.456zm37.41 4.825a4.022 4.022 0 0 0-2.011-3.484v6.968a4.02 4.02 0 0 0 2.011-3.484z" clip-rule="evenodd"/><rect width="25.739" height="12.065" x="466.516" y="404.585" fill="#11B826" rx="1.609"/><path fill="#000" d="M91.95 493.7v14.736h5.32c4.391 0 6.934-2.706 6.934-7.414 0-4.636-2.564-7.322-6.934-7.322h-5.32zm2.287 2.084h2.778c3.053 0 4.86 1.94 4.86 5.269 0 3.38-1.776 5.299-4.86 5.299h-2.778v-10.568zm22.169 1.531h-2.195v6.505c0 1.746-.97 2.798-2.747 2.798-1.613 0-2.339-.858-2.339-2.655v-6.648h-2.195v7.22c0 2.614 1.368 4.115 3.829 4.115 1.685 0 2.819-.715 3.36-1.981h.173v1.767h2.114v-11.121zm6.821 9.456c-1.194 0-2.062-.582-2.062-1.583 0-.98.694-1.501 2.226-1.603l2.716-.173v.929c0 1.378-1.225 2.43-2.88 2.43zm-.561 1.848c1.46 0 2.675-.633 3.339-1.746h.174v1.563h2.113v-7.598c0-2.348-1.572-3.737-4.36-3.737-2.522 0-4.319 1.225-4.544 3.135h2.124c.245-.787 1.093-1.236 2.318-1.236 1.501 0 2.277.664 2.277 1.838v.96l-3.012.174c-2.645.163-4.136 1.317-4.136 3.318 0 2.032 1.562 3.329 3.707 3.329zm10.456-9.098 1.716-5.821h-2.339l-.939 5.821h1.562zm3.146.939c0 1.655.98 2.604 3.094 3.105l1.94.449c1.113.265 1.634.694 1.634 1.358 0 .889-.97 1.501-2.339 1.501-1.327 0-2.144-.531-2.42-1.389h-2.195c.194 1.971 1.919 3.166 4.564 3.166 2.655 0 4.605-1.399 4.605-3.492 0-1.634-.99-2.543-3.104-3.033l-1.848-.429c-1.205-.276-1.767-.694-1.767-1.358 0-.868.93-1.45 2.155-1.45 1.246 0 2.042.521 2.246 1.338h2.104c-.214-1.961-1.848-3.125-4.35-3.125-2.512 0-4.319 1.389-4.319 3.359zm27.039 7.976h2.431l-5.32-14.736h-2.461l-5.321 14.736h2.349l1.358-3.911h5.617l1.347 3.911zm-4.237-12.06h.173l2.134 6.229h-4.452l2.145-6.229zm9.027 12.06h2.185v-11.121h-2.185v11.121zm1.092-13.071c.817 0 1.42-.582 1.42-1.338 0-.766-.603-1.348-1.42-1.348s-1.419.582-1.419 1.348c0 .756.602 1.338 1.419 1.338zm4.32 13.071h2.195v-6.566c0-1.563 1.174-2.615 2.839-2.615.388 0 1.041.072 1.225.133v-2.165c-.235-.061-.653-.092-.98-.092-1.45 0-2.686.797-3.002 1.89h-.164v-1.706h-2.113v11.121zm14.306-11.305c-1.511 0-2.818.756-3.492 2.022h-.164v-1.838h-2.114v14.817h2.196v-5.381h.173c.583 1.174 1.839 1.868 3.421 1.868 2.808 0 4.595-2.216 4.595-5.749 0-3.533-1.787-5.739-4.615-5.739zm-.623 9.518c-1.838 0-2.992-1.45-2.992-3.768 0-2.329 1.154-3.779 3.002-3.779 1.859 0 2.972 1.42 2.972 3.768 0 2.359-1.113 3.779-2.982 3.779zm12.581 2.001c3.247 0 5.238-2.175 5.238-5.78 0-3.584-2.001-5.769-5.238-5.769-3.248 0-5.249 2.185-5.249 5.769 0 3.605 1.991 5.78 5.249 5.78zm0-1.95c-1.91 0-2.982-1.399-2.982-3.83 0-2.41 1.072-3.819 2.982-3.819 1.899 0 2.981 1.409 2.981 3.819 0 2.42-1.082 3.83-2.981 3.83zm11.947 1.919c1.532 0 2.828-.725 3.492-1.94h.174v1.757h2.103v-15.461h-2.195v6.107h-.163c-.603-1.226-1.89-1.951-3.411-1.951-2.808 0-4.616 2.227-4.616 5.739 0 3.523 1.787 5.749 4.616 5.749zm.623-9.517c1.838 0 2.992 1.461 2.992 3.779 0 2.328-1.144 3.768-2.992 3.768-1.859 0-2.972-1.42-2.972-3.779 0-2.338 1.124-3.768 2.972-3.768zm8.189 1.358c0 1.655.981 2.604 3.094 3.105l1.941.449c1.113.265 1.633.694 1.633 1.358 0 .889-.97 1.501-2.338 1.501-1.327 0-2.144-.531-2.42-1.389h-2.196c.194 1.971 1.92 3.166 4.565 3.166 2.655 0 4.605-1.399 4.605-3.492 0-1.634-.99-2.543-3.104-3.033l-1.848-.429c-1.205-.276-1.767-.694-1.767-1.358 0-.868.929-1.45 2.155-1.45 1.246 0 2.042.521 2.246 1.338h2.104c-.215-1.961-1.848-3.125-4.35-3.125-2.512 0-4.32 1.389-4.32 3.359zm17.125-2.501v.03h2.165v-.03c0-1.573 1.092-2.635 2.716-2.635 1.522 0 2.675 1.011 2.675 2.359 0 1.082-.479 1.858-2.45 3.911l-4.983 5.187v1.655h9.925v-2.053h-6.74v-.174l3.278-3.318c2.472-2.502 3.227-3.779 3.227-5.341 0-2.43-2.063-4.207-4.86-4.207-2.901 0-4.953 1.899-4.953 4.616zM415.7 508.436h2.288V493.7h-2.277l-3.881 2.737v2.339l3.697-2.615h.173v12.275zm13.357 0h2.206v-2.849h2.032v-2.043h-2.032V493.7h-3.258c-2.624 3.932-4.82 7.353-6.137 9.763v2.124h7.189v2.849zm-4.993-4.984a112.833 112.833 0 0 1 4.891-7.74h.133v7.883h-5.024v-.143zm17.686-6.412c0-2.155-1.328-3.636-3.247-3.636-1.92 0-3.248 1.491-3.248 3.636 0 2.144 1.338 3.635 3.248 3.635 1.919 0 3.247-1.491 3.247-3.635zm-3.247 2.042c-.838 0-1.389-.807-1.389-2.053 0-1.245.541-2.032 1.389-2.032.857 0 1.388.766 1.388 2.032 0 1.246-.551 2.053-1.388 2.053zm.275 9.354 4.8-6.934 5.698-7.802h-2.226l-4.902 7.036-5.606 7.7h2.236zm11.723-3.35c0-2.144-1.327-3.625-3.247-3.625s-3.258 1.481-3.258 3.625c0 2.155 1.338 3.646 3.258 3.646s3.247-1.491 3.247-3.646zm-3.247 2.053c-.837 0-1.389-.807-1.389-2.053s.541-2.032 1.389-2.032c.847 0 1.378.766 1.378 2.032 0 1.246-.541 2.053-1.378 2.053zM38.696 484.233c-2.68.101-4.38 1.791-5.957 3.446-.676.743-.54 1.284-.54 2.826 0 2.084 0 2.331.563 3.232a7.157 7.157 0 0 0 5.934 3.457c4.077.304 7.59-2.894 7.59-6.475 0-3.581-3.514-6.632-7.59-6.486zm-3.48 8.457a.678.678 0 0 1-.67.589.677.677 0 0 1-.67-.589v-3.851a.678.678 0 0 1 .67-.589.677.677 0 0 1 .67.589v3.851zm7.556-1.937a1.003 1.003 0 0 1-1.013.991h-2.185a.993.993 0 0 1-.712-.285 1.003 1.003 0 0 1-.301-.706v-.124a1.002 1.002 0 0 1 1.013-.991h2.196a1.012 1.012 0 0 1 .712.286 1.005 1.005 0 0 1 .302.705l-.011.124zm-3.378 7.793v15.168a1.722 1.722 0 0 0 1.543 1.498h1.813a1.783 1.783 0 0 0 1.633-1.701v-16.317a7.816 7.816 0 0 1-5.011 1.374l.022-.022zM61.916 487.6c-1.577-1.655-3.378-3.288-6.025-3.378-4.076-.147-7.567 2.916-7.567 6.509a6.969 6.969 0 0 0 7.387 6.565 7.535 7.535 0 0 0 6.059-3.604c.608-.901.563-1.126.563-3.232.045-1.554.225-2.094-.485-2.837l.068-.023zm-5.89 3.153a1.001 1.001 0 0 1-1.013.991h-2.252a.992.992 0 0 1-.712-.285 1.003 1.003 0 0 1-.302-.706v-.124a1.002 1.002 0 0 1 1.014-.991h2.184a1.012 1.012 0 0 1 .712.286 1.003 1.003 0 0 1 .302.705l.067.124zm4.595 1.937a.67.67 0 0 1-1.34 0v-3.84a.67.67 0 0 1 1.34 0v3.84zm-10.54 4.504v16.284a1.77 1.77 0 0 0 1.7 1.734h1.802a1.715 1.715 0 0 0 1.565-1.475v-15.18a7.772 7.772 0 0 1-5.067-1.363z"/><path fill="#FA3E3E" d="M460.102 484.217h43.435v32.174h-43.435z" opacity=".01"/><path fill="#000" fill-opacity=".38" fill-rule="evenodd" d="M494.682 491.455h-27.348a4.022 4.022 0 0 0-4.022 4.022v10.456a4.022 4.022 0 0 0 4.022 4.022h27.348a4.022 4.022 0 0 0 4.022-4.022v-10.456a4.022 4.022 0 0 0-4.022-4.022zm-29.76 4.022a2.413 2.413 0 0 1 2.413-2.414h27.348a2.414 2.414 0 0 1 2.413 2.414v10.456a2.413 2.413 0 0 1-2.413 2.413h-27.348a2.413 2.413 0 0 1-2.413-2.413v-10.456zm37.409 4.825a4.021 4.021 0 0 0-2.011-3.484v6.968a4.021 4.021 0 0 0 2.011-3.484z" clip-rule="evenodd"/><rect width="4.826" height="12.065" x="466.531" y="494.673" fill="#11B826" rx="1.609"/></g><defs><clipPath id="a"><path fill="#fff" d="M0 0h529.261v555H0z"/></clipPath></defs></svg>