<svg xmlns="http://www.w3.org/2000/svg" width="529" height="250" fill="none"><g clip-path="url(#a)"><rect width="529" height="249.225" fill="#fff" rx="34.843"/><path fill="#000" d="M56.116 193.84c3.521 0 5.935-2.355 5.935-5.806 0-3.345-2.26-5.688-5.487-5.688-1.567 0-2.768.483-3.592 1.448h-.189l.483-5.452h7.82v-1.896h-9.48l-.93 9.633h1.99c.694-1.213 1.966-1.908 3.509-1.908 2.226 0 3.757 1.59 3.757 3.922s-1.52 3.886-3.792 3.886c-2.002 0-3.463-1.225-3.651-3.062h-2.085c.189 2.933 2.497 4.923 5.712 4.923zm15.039 0c3.816 0 6.006-3.227 6.006-8.868 0-5.629-2.226-8.927-6.006-8.927-3.804 0-6.03 3.286-6.03 8.892 0 5.653 2.202 8.903 6.03 8.903zm0-1.849c-2.509 0-3.898-2.508-3.898-7.054 0-4.487 1.413-7.031 3.898-7.031 2.485 0 3.874 2.52 3.874 7.031 0 4.557-1.366 7.054-3.874 7.054zm15.769-11.753c0-2.403-1.496-4.087-3.616-4.087s-3.627 1.696-3.627 4.087c0 2.402 1.508 4.098 3.627 4.098 2.12 0 3.616-1.696 3.616-4.098zm-3.616 2.591c-1.048 0-1.743-1.025-1.743-2.591 0-1.566.683-2.579 1.743-2.579s1.731.989 1.731 2.579c0 1.554-.694 2.591-1.73 2.591zm-.188 10.61 5.83-7.972 6.594-9.021h-2.143l-5.96 8.137-6.488 8.856h2.167zm13.637-3.803c0-2.403-1.495-4.087-3.615-4.087s-3.627 1.696-3.627 4.087c0 2.402 1.507 4.098 3.627 4.098s3.615-1.696 3.615-4.098zm-3.615 2.59c-1.048 0-1.743-1.024-1.743-2.59 0-1.567.683-2.579 1.743-2.579s1.731.989 1.731 2.579c0 1.554-.695 2.59-1.731 2.59zm91.607 1.614c3.604 0 6.124-2.037 6.124-4.946 0-2.214-1.402-3.934-3.533-4.334v-.189c1.754-.482 2.838-1.931 2.838-3.792 0-2.649-2.249-4.534-5.429-4.534s-5.429 1.885-5.429 4.534c0 1.849 1.107 3.321 2.838 3.792v.189c-2.132.4-3.533 2.12-3.533 4.334 0 2.909 2.52 4.946 6.124 4.946zm0-1.814c-2.355 0-3.981-1.342-3.981-3.285 0-1.944 1.626-3.286 3.981-3.286s3.98 1.342 3.98 3.286c0 1.943-1.625 3.285-3.98 3.285zm0-8.361c-2.002 0-3.345-1.154-3.345-2.885 0-1.755 1.331-2.921 3.345-2.921 2.014 0 3.344 1.166 3.344 2.921 0 1.731-1.342 2.885-3.344 2.885zm13.072 1.943h2.155c2.414 0 3.91 1.225 3.91 3.191 0 1.861-1.59 3.192-3.827 3.192-2.191 0-3.722-1.166-3.91-2.98H194.1c.153 2.909 2.532 4.829 5.982 4.829 3.356 0 5.983-2.179 5.983-4.982 0-2.32-1.402-3.921-3.71-4.216v-.188c1.861-.448 2.979-1.931 2.979-3.957 0-2.473-2.367-4.452-5.334-4.452-3.239 0-5.347 1.814-5.559 4.758h2.061c.177-1.825 1.46-2.909 3.415-2.909s3.262 1.154 3.262 2.886c0 1.766-1.366 3.014-3.297 3.014h-2.061v1.814zm17.936-5.37c0-2.403-1.496-4.087-3.616-4.087-2.119 0-3.627 1.696-3.627 4.087 0 2.402 1.508 4.098 3.627 4.098 2.12 0 3.616-1.696 3.616-4.098zm-3.616 2.591c-1.048 0-1.743-1.025-1.743-2.591 0-1.566.683-2.579 1.743-2.579s1.732.989 1.732 2.579c0 1.554-.695 2.591-1.732 2.591zm-.188 10.61 5.829-7.972 6.595-9.021h-2.143l-5.959 8.137-6.489 8.856h2.167zm13.637-3.803c0-2.403-1.495-4.087-3.615-4.087s-3.627 1.696-3.627 4.087c0 2.402 1.507 4.098 3.627 4.098s3.615-1.696 3.615-4.098zm-3.615 2.59c-1.048 0-1.743-1.024-1.743-2.59 0-1.567.683-2.579 1.743-2.579s1.731.989 1.731 2.579c0 1.554-.695 2.59-1.731 2.59zm87.477-6.618h2.155c2.415 0 3.91 1.225 3.91 3.191 0 1.861-1.59 3.192-3.827 3.192-2.191 0-3.722-1.166-3.91-2.98h-2.049c.153 2.909 2.532 4.829 5.982 4.829 3.357 0 5.983-2.179 5.983-4.982 0-2.32-1.401-3.921-3.71-4.216v-.188c1.861-.448 2.98-1.931 2.98-3.957 0-2.473-2.367-4.452-5.335-4.452-3.239 0-5.347 1.814-5.559 4.758h2.061c.177-1.825 1.461-2.909 3.416-2.909 1.954 0 3.262 1.154 3.262 2.886 0 1.766-1.366 3.014-3.298 3.014h-2.061v1.814zm17.654 8.22c3.485 0 5.958-2.438 5.958-5.853 0-3.297-2.343-5.688-5.582-5.688-2.025 0-3.686.966-4.522 2.614h-.188c.117-4.522 1.684-6.971 4.451-6.971 1.673 0 2.956.965 3.415 2.555h2.179c-.542-2.732-2.685-4.44-5.57-4.44-4.157 0-6.536 3.345-6.536 9.186 0 1.873.271 3.439.824 4.734 1.06 2.497 3.015 3.863 5.571 3.863zm-.024-1.861c-2.179 0-3.839-1.719-3.839-3.992 0-2.249 1.613-3.851 3.863-3.851 2.249 0 3.815 1.602 3.815 3.922 0 2.226-1.66 3.921-3.839 3.921zm15.686-11.729c0-2.403-1.495-4.087-3.615-4.087s-3.627 1.696-3.627 4.087c0 2.402 1.507 4.098 3.627 4.098s3.615-1.696 3.615-4.098zm-3.615 2.591c-1.048 0-1.743-1.025-1.743-2.591 0-1.566.683-2.579 1.743-2.579s1.731.989 1.731 2.579c0 1.554-.695 2.591-1.731 2.591zm-.188 10.61 5.829-7.972 6.595-9.021h-2.143l-5.959 8.137-6.489 8.856h2.167zm13.637-3.803c0-2.403-1.496-4.087-3.616-4.087-2.119 0-3.627 1.696-3.627 4.087 0 2.402 1.508 4.098 3.627 4.098 2.12 0 3.616-1.696 3.616-4.098zm-3.616 2.59c-1.048 0-1.742-1.024-1.742-2.59 0-1.567.683-2.579 1.742-2.579 1.06 0 1.732.989 1.732 2.579 0 1.554-.695 2.59-1.732 2.59zm92.908 1.614c3.603 0 6.123-2.037 6.123-4.946 0-2.214-1.401-3.934-3.533-4.334v-.189c1.755-.482 2.839-1.931 2.839-3.792 0-2.649-2.25-4.534-5.429-4.534-3.18 0-5.429 1.885-5.429 4.534 0 1.849 1.107 3.321 2.838 3.792v.189c-2.132.4-3.533 2.12-3.533 4.334 0 2.909 2.52 4.946 6.124 4.946zm0-1.814c-2.356 0-3.981-1.342-3.981-3.285 0-1.944 1.625-3.286 3.981-3.286 2.355 0 3.98 1.342 3.98 3.286 0 1.943-1.625 3.285-3.98 3.285zm0-8.361c-2.002 0-3.345-1.154-3.345-2.885 0-1.755 1.331-2.921 3.345-2.921 2.013 0 3.344 1.166 3.344 2.921 0 1.731-1.342 2.885-3.344 2.885zm10.304 9.774h2.226l7.561-15.027v-1.966h-11.247v1.896h9.091v.165l-7.631 14.932zm19.337-13.201c0-2.403-1.495-4.087-3.615-4.087s-3.627 1.696-3.627 4.087c0 2.402 1.507 4.098 3.627 4.098s3.615-1.696 3.615-4.098zm-3.615 2.591c-1.048 0-1.743-1.025-1.743-2.591 0-1.566.683-2.579 1.743-2.579s1.731.989 1.731 2.579c0 1.554-.695 2.591-1.731 2.591zm-.188 10.61 5.829-7.972 6.595-9.021h-2.143l-5.959 8.137-6.489 8.856h2.167zm13.637-3.803c0-2.403-1.496-4.087-3.616-4.087-2.119 0-3.627 1.696-3.627 4.087 0 2.402 1.508 4.098 3.627 4.098 2.12 0 3.616-1.696 3.616-4.098zm-3.616 2.59c-1.048 0-1.742-1.024-1.742-2.59 0-1.567.683-2.579 1.742-2.579 1.06 0 1.732.989 1.732 2.579 0 1.554-.695 2.59-1.732 2.59z"/><circle cx="329.624" cy="102.906" r="43.413" stroke="#000" stroke-opacity=".1" stroke-width="8.04"/><path stroke="#11B826" stroke-linecap="round" stroke-width="8.04" d="M360.322 133.603a43.416 43.416 0 0 0 9.411-47.311 43.41 43.41 0 0 0-40.109-26.8"/><path fill="#000" d="M321.662 86.843c-2.679.1-4.379 1.79-5.954 3.444-.676.742-.541 1.283-.541 2.825 0 2.082 0 2.33.563 3.23a7.155 7.155 0 0 0 5.932 3.455c4.074.304 7.586-2.892 7.586-6.471 0-3.58-3.512-6.63-7.586-6.483zm-3.478 8.452a.676.676 0 0 1-1.34 0v-3.85a.676.676 0 0 1 1.34 0v3.85zm7.552-1.936a.988.988 0 0 1-.081.383.988.988 0 0 1-.548.536 1 1 0 0 1-.384.072h-2.183a1.005 1.005 0 0 1-.933-.608.987.987 0 0 1-.08-.383v-.123a.987.987 0 0 1 .301-.706 1.002 1.002 0 0 1 .712-.285h2.194a1.008 1.008 0 0 1 .712.285 1.008 1.008 0 0 1 .301.706l-.011.123zm-3.377 7.789v15.161a1.727 1.727 0 0 0 1.542 1.497h1.813a1.778 1.778 0 0 0 1.632-1.7V99.797a7.813 7.813 0 0 1-5.009 1.373l.022-.022zm22.511-10.94c-1.576-1.655-3.377-3.287-6.022-3.377-4.074-.146-7.563 2.915-7.563 6.506.052.916.284 1.813.683 2.64a6.979 6.979 0 0 0 3.998 3.553c.868.3 1.786.425 2.702.369a7.526 7.526 0 0 0 6.056-3.602c.608-.9.563-1.126.563-3.23.045-1.554.225-2.094-.484-2.837l.067-.022zm-5.886 3.151a1.007 1.007 0 0 1-.629.919 1.003 1.003 0 0 1-.384.072h-2.252a1.003 1.003 0 0 1-1.012-.99v-.124a.987.987 0 0 1 .301-.706 1.002 1.002 0 0 1 .711-.285h2.184a1 1 0 0 1 1.013.99l.068.124zm4.592 1.936a.672.672 0 0 1-.67.67.671.671 0 0 1-.67-.67v-3.838a.672.672 0 0 1 .67-.67.67.67 0 0 1 .67.67v3.838zm-10.535 4.502v16.276a1.764 1.764 0 0 0 1.699 1.733h1.801a1.715 1.715 0 0 0 1.565-1.475v-15.172a7.764 7.764 0 0 1-5.065-1.362z"/><circle cx="200.984" cy="102.906" r="43.413" stroke="#000" stroke-opacity=".1" stroke-width="8.04"/><path stroke="#11B826" stroke-linecap="round" stroke-width="8.04" d="M165.745 77.549a43.417 43.417 0 0 0 2.34 53.683 43.41 43.41 0 0 0 52.74 10.287 43.41 43.41 0 0 0 6.948-72.776 43.412 43.412 0 0 0-26.888-9.25"/><path fill="#1D1D1F" d="M186.907 92.385a1.01 1.01 0 0 0 .585-.09 1.22 1.22 0 0 0 .416-.326c.088-.134.167-.273.237-.417l.101-.214.236-.461.237-.473.292-.473c.113-.18.237-.36.36-.529.273-.393.57-.769.89-1.125.157-.192.36-.372.551-.563.191-.191.405-.383.63-.574.479-.406.983-.782 1.509-1.126l.427-.27.439-.247.113-.068.124-.067.247-.124.248-.135.124-.068c.326-.146.664-.292 1.024-.427.368-.142.744-.262 1.125-.36.776-.251 1.57-.44 2.375-.563a17.571 17.571 0 0 1 6.258.247 11.346 11.346 0 0 1 3.084 1.16 17.588 17.588 0 0 1 7.136 7.586 3.387 3.387 0 0 1 .113 2.588c0 .18-.102.372-.135.574-.179.915-.12 1.86.168 2.747 0 .281.158.765.192 1.069a21.144 21.144 0 0 1-1.058 9.241.76.76 0 0 0 0 .135.605.605 0 0 0 .028.473.608.608 0 0 0 .354.314.546.546 0 0 0 .643-.143.579.579 0 0 0 .112-.205 20.526 20.526 0 0 0 1.238-10.006c0-.35-.113-.653-.169-.935a5.517 5.517 0 0 1-.068-2.408c0-.17.079-.327.124-.507a4.742 4.742 0 0 0-.236-3.5 19.136 19.136 0 0 0-8.622-8.734 15.1 15.1 0 0 0-2.701-.946 19.766 19.766 0 0 0-6.562-.281c-1.735.207-3.426.69-5.009 1.43l-.135.067h-.146l-.259.124-.247.135-.124.056-.124.068-.518.28-.473.294c-.592.367-1.16.773-1.699 1.215-.259.203-.495.417-.72.62l-.327.314-.315.304c-.101.101-.191.203-.293.293l-.27.304c-.18.18-.337.371-.495.551a3.001 3.001 0 0 0-.304.36c-.281.338-.529.687-.788 1.036l-.112.157-.36.518c-.068.102-.124.192-.181.26a1.587 1.587 0 0 0-.236.618v.101a1.059 1.059 0 0 0 .957 1.07l-.011.056z"/><path fill="#1D1D1F" d="M215.119 95.794c0-.203.09-.405.147-.585a3.156 3.156 0 0 0-.09-2.387l-.169-.36a2.732 2.732 0 0 0-.124-.259c0-.09-.101-.18-.135-.258a19.732 19.732 0 0 0-1.126-1.722c-.394-.507-.776-.98-1.125-1.396-.349-.417-.754-.777-1.126-1.126l-.484-.394c-.169-.124-.315-.258-.45-.371l-.405-.293c-.315-.225-.642-.439-.968-.653a.6.6 0 0 0-.68.006.591.591 0 0 0-.164.175.595.595 0 0 0 0 .676.61.61 0 0 0 .169.168l.157.101.192.135.123.079.135.09.304.214c.113.09.237.18.36.292l.417.327.461.405c.35.322.681.664.991 1.024.382.41.736.846 1.058 1.306.376.506.718 1.036 1.024 1.587l.113.225c.041.065.079.133.112.203.068.157.135.315.192.472.134.335.251.677.348 1.025 0 .18.113.36.203.596.125.304.3.586.518.833 0 0 .011-.09.022-.135zm3.563 1.948a6.691 6.691 0 0 0-1.047-1.678 1.526 1.526 0 0 0 0 .192 5.024 5.024 0 0 0 0 2.183c.068.304.124.608.169.968a21.156 21.156 0 0 1-1.261 10.276c-.098.25-.276.459-.506.597a19.977 19.977 0 0 1-2.251 4.063 16.522 16.522 0 0 1-4.142 4.063 14.35 14.35 0 0 1-5.133 2.173c-.877.194-1.77.307-2.667.337h-1.317c-.417 0-.844 0-1.261-.101a14.119 14.119 0 0 1-2.375-.462 10.148 10.148 0 0 1-1.125-.36c-.36-.135-.698-.281-1.024-.439h-.124l-.248-.124-.371-.236-.113-.056-.112-.068-.439-.247-.428-.27c-.526-.344-1.03-.72-1.508-1.126-.225-.18-.428-.383-.63-.563a5.2 5.2 0 0 1-.552-.562c-.323-.354-.62-.73-.889-1.126a8.475 8.475 0 0 1-.36-.529l-.293-.473a4.516 4.516 0 0 1-.236-.472l-.237-.462-.101-.214a3.566 3.566 0 0 0-.248-.416 1.058 1.058 0 0 0-.405-.327 1.019 1.019 0 0 0-.585-.101 1.128 1.128 0 0 0-.743.428 1.13 1.13 0 0 0-.214.641v.113c.029.219.11.427.237.608l.18.259c.112.18.236.348.36.517l.112.158c.244.359.507.705.788 1.035.095.13.196.254.304.372.158.169.315.371.495.551l.271.293.292.304.315.304.327.304c.225.202.461.427.72.63.539.439 1.107.841 1.7 1.204l.472.293.518.281.124.068.124.067.247.124.259.135h.147l.135.056a16.055 16.055 0 0 0 5.008 1.351c.462 0 .912.079 1.396.09h.698l.743.135a18.72 18.72 0 0 0 2.926-.382 16.093 16.093 0 0 0 5.628-2.443 18.168 18.168 0 0 0 4.502-4.502 21.714 21.714 0 0 0 2.87-5.493c.191-.574.405-1.125.551-1.733.068-.248.124-.506.192-.765.731-2.96 1.136-6.528.135-9.444z"/><path fill="#1D1D1F" d="M187.045 111.113a2.13 2.13 0 0 1 1.744.855c.139.192.259.395.361.608l.101.203.203.394a3.375 3.375 0 0 0 .607-1.925V93.239a3.38 3.38 0 0 0-.562-1.857c-.079.18-.169.338-.248.496l-.079.157a4.598 4.598 0 0 1-.338.585 2.243 2.243 0 0 1-.832.687 2.117 2.117 0 0 1-.946.214h-.281a2.25 2.25 0 0 1-1.936-2.195v-.203c.042-.294.133-.58.27-.844a3.382 3.382 0 0 0-1.812 2.96v18.009a3.383 3.383 0 0 0 1.699 2.915 2.5 2.5 0 0 1-.168-.619v-.225c.004-.474.157-.935.439-1.317a2.253 2.253 0 0 1 1.508-.878l.27-.011zm-.372-15.623a2.25 2.25 0 0 1 1.592 3.843 2.253 2.253 0 0 1-3.463-.34 2.247 2.247 0 0 1 .28-2.843 2.25 2.25 0 0 1 1.591-.66zm-2.251 12.381v-4.502a2.254 2.254 0 0 1 2.251-2.251 2.252 2.252 0 0 1 2.252 2.251v4.502a2.253 2.253 0 0 1-4.503 0z"/><path fill="#1D1D1F" d="M186.672 102.246a1.125 1.125 0 0 0-1.125 1.126v4.502a1.123 1.123 0 0 0 1.125 1.125 1.125 1.125 0 0 0 1.126-1.125v-4.502a1.125 1.125 0 0 0-1.126-1.126zm0-3.378a1.126 1.126 0 1 0 0-2.251 1.126 1.126 0 0 0 0 2.251z"/><circle cx="458.257" cy="102.906" r="43.413" stroke="#000" stroke-opacity=".1" stroke-width="8.04"/><path stroke="#11B826" stroke-linecap="round" stroke-width="8.04" d="M430.221 69.759a43.414 43.414 0 1 0 27.659-10.265"/><path fill="#000" fill-rule="evenodd" d="M443.789 94.867a4.824 4.824 0 0 1 4.824-4.824h20.903a4.823 4.823 0 0 1 4.823 4.824v3.215h-30.55v-3.215zm9.649 4.822h-9.649v9.648a4.824 4.824 0 0 0 4.824 4.824h20.903a4.823 4.823 0 0 0 4.823-4.824v-9.648h-9.646v.001c0 .888-.72 1.608-1.608 1.608h-8.04c-.888 0-1.607-.72-1.607-1.608zm6.428 5.629a.804.804 0 1 1-1.608 0 .804.804 0 0 1 1.608 0z" clip-rule="evenodd"/><circle cx="72.351" cy="102.906" r="43.413" stroke="#000" stroke-opacity=".1" stroke-width="8.04"/><path stroke="#11B826" stroke-linecap="round" stroke-width="8.04" d="M72.35 146.319a43.413 43.413 0 0 0 0-86.827"/><rect width="16.079" height="30.55" x="64.313" y="86.826" fill="#E6E6E6" stroke="#000" stroke-width="1.608" rx="2.412"/><path fill="#000" d="M68.336 87.63c0-.444.36-.804.804-.804h6.431c.445 0 .805.36.805.804 0 .888-.72 1.608-1.609 1.608h-4.823c-.888 0-1.608-.72-1.608-1.608z"/></g><defs><clipPath id="a"><rect width="529" height="249.225" fill="#fff" rx="32"/></clipPath></defs></svg>