<svg xmlns="http://www.w3.org/2000/svg" width="397" height="487" fill="none"><g clip-path="url(#a)"><rect width="464.583" height="487.177" fill="#fff" rx="30.6"/><path fill="url(#b)" d="M0 30.6C0 13.7 13.7 0 30.6 0h403.383c16.9 0 30.6 13.7 30.6 30.6v41.417H0V30.6z"/><g filter="url(#c)" opacity=".7"><path fill="#fff" fill-rule="evenodd" d="M25.426 24.006a2.824 2.824 0 0 0-2.824 2.824v21.18a2.824 2.824 0 0 0 2.824 2.825h28.242a2.824 2.824 0 0 0 2.824-2.824V31.065a2.824 2.824 0 0 0-2.824-2.824H37.957a5.651 5.651 0 0 0-5.47-4.235h-7.061z" clip-rule="evenodd"/></g><path fill="#000" fill-opacity=".5" d="M26.499 127.843h1.506c1.563 0 2.531.77 2.531 2.003 0 1.175-1.026 2.01-2.482 2.01-1.448 0-2.44-.736-2.556-1.894h-1.78c.108 2.134 1.83 3.533 4.336 3.533 2.49 0 4.377-1.523 4.377-3.55 0-1.597-.993-2.714-2.623-2.904v-.141c1.316-.298 2.135-1.357 2.135-2.763 0-1.796-1.705-3.161-3.922-3.161-2.391 0-3.947 1.332-4.07 3.492h1.762c.099-1.175.951-1.895 2.25-1.895 1.3 0 2.151.728 2.151 1.837 0 1.125-.885 1.903-2.167 1.903h-1.448v1.53zm12.469 5.652c2.78 0 4.401-2.292 4.401-6.256 0-3.955-1.646-6.263-4.401-6.263-2.772 0-4.419 2.3-4.419 6.247 0 3.971 1.63 6.272 4.419 6.272zm0-1.622c-1.622 0-2.549-1.63-2.549-4.65 0-2.987.944-4.625 2.549-4.625s2.531 1.63 2.531 4.625c0 3.028-.91 4.65-2.531 4.65zm13.428 1.332v-8.481h.133l6.13 8.481h1.672v-11.939h-1.803v8.481h-.133l-6.13-8.481h-1.672v11.939h1.803zm14.538.174c2.631 0 4.245-1.763 4.245-4.683 0-2.904-1.622-4.675-4.245-4.675-2.631 0-4.253 1.771-4.253 4.675 0 2.92 1.614 4.683 4.253 4.683zm0-1.581c-1.547 0-2.416-1.133-2.416-3.102 0-1.953.869-3.095 2.416-3.095 1.539 0 2.416 1.142 2.416 3.095 0 1.961-.877 3.102-2.416 3.102zm7.016-9.846v2.284h-1.43v1.498h1.431v5.088c0 1.738.786 2.433 2.764 2.433.347 0 .678-.042.968-.091v-1.481c-.248.024-.405.041-.678.041-.886 0-1.275-.414-1.275-1.357v-4.633h1.953v-1.498H75.73v-2.284h-1.78zm9.425 3.583c1.315 0 2.176.918 2.217 2.333h-4.55c.099-1.406 1.017-2.333 2.333-2.333zm2.209 5.238c-.331.703-1.068 1.092-2.143 1.092-1.423 0-2.342-1.001-2.4-2.582v-.099h6.363v-.621c0-2.829-1.514-4.542-4.021-4.542-2.54 0-4.154 1.828-4.154 4.708 0 2.879 1.58 4.65 4.162 4.65 2.06 0 3.5-.993 3.905-2.606h-1.712zm3.748-4.03c0 1.34.794 2.11 2.507 2.515l1.572.364c.902.216 1.324.563 1.324 1.101 0 .72-.786 1.216-1.895 1.216-1.076 0-1.737-.43-1.96-1.125H89.1c.157 1.597 1.556 2.565 3.699 2.565 2.151 0 3.731-1.134 3.731-2.83 0-1.324-.802-2.06-2.515-2.457l-1.498-.348c-.976-.223-1.431-.562-1.431-1.1 0-.704.753-1.175 1.746-1.175 1.01 0 1.655.422 1.82 1.084h1.705c-.174-1.589-1.498-2.532-3.525-2.532-2.036 0-3.5 1.125-3.5 2.722z"/><path fill="#000" d="M39.853 108.963V94.039H36.73l-4.49 10.87h-.185l-4.489-10.87h-3.123v14.924h2.482V98.465h.145l4.126 9.919H33.1l4.127-9.919h.145v10.498h2.482zm4.654 4.106c2.534 0 3.744-.931 4.706-3.744l4.085-11.677h-2.71l-2.637 8.833h-.176l-2.647-8.833h-2.813l4.044 11.367-.135.496c-.331 1.045-.941 1.458-2.027 1.458-.176 0-.559-.01-.703-.041v2.1c.165.031.858.041 1.013.041zm22.816-15.607c-1.551 0-2.865.776-3.517 2.058h-.175v-1.872h-2.472v15.08h2.565v-5.482h.176c.579 1.2 1.83 1.903 3.454 1.903 2.855 0 4.633-2.234 4.633-5.843 0-3.63-1.8-5.844-4.664-5.844zm-.807 9.505c-1.748 0-2.834-1.396-2.844-3.661.01-2.255 1.107-3.662 2.855-3.662 1.758 0 2.823 1.376 2.823 3.662 0 2.285-1.055 3.661-2.834 3.661zm12.928 2.223c3.382 0 5.44-2.213 5.44-5.884 0-3.662-2.068-5.885-5.44-5.885-3.361 0-5.44 2.234-5.44 5.885 0 3.671 2.048 5.884 5.44 5.884zm0-2.151c-1.789 0-2.813-1.365-2.813-3.733 0-2.359 1.024-3.734 2.813-3.734 1.78 0 2.803 1.375 2.803 3.734 0 2.368-1.013 3.733-2.803 3.733zm12.773-7.58c1.541 0 2.555 1.075 2.607 2.75h-5.327c.114-1.655 1.19-2.75 2.72-2.75zm2.627 6.391c-.372.838-1.251 1.303-2.523 1.303-1.686 0-2.772-1.179-2.834-3.061v-.135h7.902v-.827c0-3.569-1.934-5.71-5.161-5.71-3.279 0-5.316 2.286-5.316 5.927 0 3.64 2.006 5.843 5.337 5.843 2.668 0 4.54-1.282 5.026-3.34h-2.43zm5.12 3.113h2.565v-6.878c0-1.386.941-2.43 2.213-2.43 1.262 0 2.048.755 2.048 1.996v7.312h2.493v-7.043c0-1.293.879-2.265 2.213-2.265 1.376 0 2.069.724 2.069 2.182v7.126h2.554v-7.778c0-2.347-1.365-3.764-3.63-3.764-1.572 0-2.875.817-3.434 2.058h-.176c-.475-1.272-1.561-2.058-3.123-2.058-1.5 0-2.658.765-3.144 2.058h-.176v-1.83h-2.472v11.314zm18.937-8.078c0 1.707 1.024 2.71 3.196 3.207l2.007.465c1.075.238 1.561.641 1.561 1.282 0 .838-.899 1.407-2.192 1.407-1.283 0-2.079-.496-2.327-1.334h-2.534c.196 2.058 1.975 3.278 4.799 3.278 2.823 0 4.819-1.448 4.819-3.619 0-1.666-1.003-2.596-3.165-3.083l-1.996-.455c-1.137-.258-1.675-.651-1.675-1.292 0-.817.879-1.376 2.048-1.376 1.199 0 1.954.507 2.141 1.303h2.409c-.186-2.058-1.872-3.247-4.561-3.247-2.668 0-4.53 1.416-4.53 3.464z"/><path fill="#000" fill-opacity=".5" d="M29.386 213.696h1.788v-2.308h1.646v-1.655h-1.646v-7.976h-2.64c-2.126 3.185-3.905 5.957-4.973 7.91v1.721h5.825v2.308zm-4.046-4.037a91.259 91.259 0 0 1 3.964-6.272h.107v6.387h-4.07v-.115zm12.42 4.037h1.853v-11.939h-1.845l-3.144 2.217v1.895l2.995-2.118h.14v9.945zm11.972 0v-8.481h.133l6.13 8.481h1.672v-11.939h-1.804v8.481h-.132l-6.131-8.481h-1.672v11.939h1.804zm14.538.174c2.63 0 4.244-1.762 4.244-4.683 0-2.904-1.621-4.675-4.244-4.675-2.631 0-4.253 1.771-4.253 4.675 0 2.921 1.613 4.683 4.253 4.683zm0-1.58c-1.547 0-2.416-1.134-2.416-3.103 0-1.953.868-3.095 2.416-3.095 1.539 0 2.416 1.142 2.416 3.095 0 1.961-.877 3.103-2.416 3.103zm7.016-9.846v2.283h-1.431v1.498h1.431v5.088c0 1.738.786 2.433 2.764 2.433.347 0 .678-.041.968-.091v-1.481c-.249.025-.406.041-.679.041-.885 0-1.274-.413-1.274-1.357v-4.633h1.953v-1.498h-1.953v-2.283h-1.779zm9.424 3.582c1.316 0 2.176.919 2.218 2.334h-4.551c.1-1.407 1.018-2.334 2.333-2.334zm2.21 5.238c-.332.703-1.068 1.092-2.144 1.092-1.423 0-2.341-1.001-2.399-2.582v-.099h6.363v-.62c0-2.83-1.514-4.543-4.021-4.543-2.54 0-4.154 1.829-4.154 4.708 0 2.879 1.58 4.65 4.162 4.65 2.06 0 3.5-.993 3.905-2.606H82.92zm3.748-4.03c0 1.341.794 2.11 2.507 2.516l1.572.364c.902.215 1.324.562 1.324 1.1 0 .72-.786 1.216-1.895 1.216-1.076 0-1.738-.43-1.961-1.125h-1.779c.157 1.597 1.555 2.565 3.698 2.565 2.152 0 3.732-1.134 3.732-2.83 0-1.324-.802-2.06-2.515-2.457l-1.498-.348c-.976-.223-1.431-.562-1.431-1.1 0-.703.753-1.175 1.746-1.175 1.009 0 1.654.422 1.82 1.084h1.704c-.173-1.589-1.497-2.532-3.524-2.532-2.036 0-3.5 1.125-3.5 2.722z"/><path fill="#000" d="M33.958 187.117H27.11V174.53h-2.669v14.924h9.516v-2.337zm6.97 2.565c3.383 0 5.44-2.214 5.44-5.885 0-3.662-2.068-5.885-5.44-5.885-3.36 0-5.44 2.234-5.44 5.885 0 3.671 2.048 5.885 5.44 5.885zm0-2.152c-1.789 0-2.813-1.365-2.813-3.733 0-2.358 1.024-3.734 2.814-3.734 1.779 0 2.802 1.376 2.802 3.734 0 2.368-1.013 3.733-2.802 3.733zm17.438-9.391h-2.71l-2.596 8.75h-.175l-2.617-8.75h-2.751l4.023 11.315h2.824l4.002-11.315zm6.464 1.81c1.541 0 2.555 1.076 2.607 2.751H62.11c.114-1.654 1.19-2.751 2.72-2.751zm2.627 6.392c-.372.838-1.251 1.303-2.523 1.303-1.686 0-2.772-1.179-2.834-3.061v-.135h7.902v-.827c0-3.568-1.934-5.709-5.161-5.709-3.279 0-5.316 2.285-5.316 5.926s2.006 5.844 5.336 5.844c2.669 0 4.54-1.283 5.027-3.341h-2.43zm10.87 3.113h2.565v-15.69h-2.565v15.69zm10.56-9.505c1.541 0 2.555 1.076 2.606 2.751h-5.326c.114-1.654 1.19-2.751 2.72-2.751zm2.627 6.392c-.372.838-1.251 1.303-2.523 1.303-1.686 0-2.772-1.179-2.834-3.061v-.135h7.901v-.827c0-3.568-1.934-5.709-5.16-5.709-3.28 0-5.317 2.285-5.317 5.926s2.007 5.844 5.337 5.844c2.669 0 4.54-1.283 5.027-3.341h-2.43zm5.937-10.973v2.844h-1.79v2.048h1.79v6.174c0 2.193 1.034 3.072 3.63 3.072.496 0 .972-.052 1.345-.124v-2.007c-.311.031-.507.052-.869.052-1.076 0-1.552-.496-1.552-1.613v-5.554h2.421v-2.048h-2.421v-2.844h-2.554zm8.419 0v2.844h-1.79v2.048h1.79v6.174c0 2.193 1.034 3.072 3.63 3.072.496 0 .972-.052 1.344-.124v-2.007c-.31.031-.506.052-.868.052-1.076 0-1.552-.496-1.552-1.613v-5.554h2.42v-2.048h-2.42v-2.844h-2.554zm12.183 4.581c1.541 0 2.555 1.076 2.607 2.751h-5.327c.114-1.654 1.19-2.751 2.72-2.751zm2.627 6.392c-.372.838-1.251 1.303-2.523 1.303-1.686 0-2.772-1.179-2.834-3.061v-.135h7.902v-.827c0-3.568-1.935-5.709-5.161-5.709-3.279 0-5.317 2.285-5.317 5.926s2.007 5.844 5.337 5.844c2.669 0 4.541-1.283 5.027-3.341h-2.431zm5.12 3.113h2.565v-6.536c0-1.583 1.158-2.617 2.823-2.617.435 0 1.117.072 1.314.145v-2.379c-.238-.072-.693-.114-1.065-.114-1.459 0-2.679.828-2.989 1.945h-.176v-1.759H125.8v11.315zm8.305-8.077c0 1.706 1.024 2.709 3.196 3.206l2.006.465c1.076.238 1.562.641 1.562 1.283 0 .837-.9 1.406-2.193 1.406-1.282 0-2.079-.496-2.327-1.334h-2.534c.197 2.058 1.976 3.279 4.799 3.279 2.824 0 4.82-1.448 4.82-3.62 0-1.665-1.003-2.596-3.165-3.082l-1.996-.455c-1.138-.259-1.676-.652-1.676-1.293 0-.817.88-1.376 2.048-1.376 1.2 0 1.955.507 2.141 1.303h2.41c-.186-2.058-1.872-3.247-4.561-3.247-2.668 0-4.53 1.417-4.53 3.465z"/><path fill="#000" fill-opacity=".5" d="M26.755 294.187h1.854v-11.94h-1.846l-3.144 2.217v1.895l2.995-2.118h.141v9.946zm9.466.289c2.573 0 4.319-1.68 4.319-4.153 0-2.35-1.597-4.005-3.864-4.005-1.134 0-1.978.38-2.524 1.084h-.14l.314-3.5h5.519v-1.655h-6.967l-.629 6.834h1.696c.464-.769 1.291-1.224 2.317-1.224 1.456 0 2.466 1.018 2.466 2.515 0 1.49-1.002 2.474-2.49 2.474-1.308 0-2.276-.769-2.417-1.928H32.06c.107 2.094 1.787 3.558 4.162 3.558zm13.263-.289v-8.481h.132l6.132 8.481h1.67v-11.94h-1.803v8.481h-.132l-6.131-8.481H47.68v11.94h1.804zm14.538.173c2.63 0 4.244-1.762 4.244-4.683 0-2.904-1.622-4.675-4.245-4.675-2.63 0-4.252 1.771-4.252 4.675 0 2.921 1.613 4.683 4.253 4.683zm0-1.58c-1.548 0-2.417-1.134-2.417-3.103 0-1.953.87-3.094 2.417-3.094 1.538 0 2.415 1.141 2.415 3.094 0 1.961-.876 3.103-2.415 3.103zm7.016-9.846v2.283h-1.431v1.498h1.43v5.089c0 1.737.787 2.432 2.764 2.432.348 0 .679-.041.968-.091v-1.481c-.248.025-.405.041-.678.041-.885 0-1.274-.413-1.274-1.356v-4.634h1.953v-1.498h-1.953v-2.283h-1.78zm9.424 3.582c1.316 0 2.176.919 2.218 2.334h-4.551c.1-1.407 1.017-2.334 2.333-2.334zm2.21 5.238c-.332.703-1.068 1.092-2.144 1.092-1.423 0-2.341-1.001-2.4-2.581v-.1h6.364v-.62c0-2.83-1.515-4.543-4.022-4.543-2.54 0-4.153 1.829-4.153 4.708 0 2.88 1.58 4.65 4.162 4.65 2.06 0 3.5-.993 3.905-2.606h-1.713zm3.747-4.03c0 1.341.795 2.11 2.507 2.516l1.573.364c.901.215 1.323.562 1.323 1.1 0 .72-.786 1.217-1.894 1.217-1.076 0-1.738-.431-1.961-1.126h-1.78c.158 1.597 1.556 2.565 3.7 2.565 2.15 0 3.73-1.133 3.73-2.829 0-1.324-.802-2.061-2.514-2.458l-1.498-.347c-.976-.224-1.431-.563-1.431-1.101 0-.703.752-1.175 1.745-1.175 1.01 0 1.655.422 1.82 1.084h1.705c-.174-1.588-1.498-2.532-3.525-2.532-2.035 0-3.5 1.126-3.5 2.722z"/><path fill="#000" d="M27.11 257.233h3.021c1.696 0 2.73.952 2.73 2.503 0 1.583-.972 2.493-2.668 2.493h-3.082v-4.996zm0 7.116h2.959l2.927 5.595h3.05l-3.257-6.009c1.779-.641 2.813-2.285 2.813-4.251 0-2.864-1.965-4.664-5.099-4.664h-6.06v14.924h2.668v-5.595zm15.856-3.909c1.541 0 2.555 1.075 2.606 2.751h-5.326c.114-1.655 1.19-2.751 2.72-2.751zm2.627 6.391c-.372.838-1.251 1.303-2.524 1.303-1.685 0-2.771-1.179-2.833-3.061v-.134h7.901v-.828c0-3.568-1.934-5.709-5.16-5.709-3.28 0-5.317 2.286-5.317 5.926 0 3.641 2.007 5.844 5.337 5.844 2.669 0 4.54-1.283 5.027-3.341h-2.43zm14.893-4.395c-.268-2.379-2.027-4.034-4.933-4.034-3.403 0-5.399 2.182-5.399 5.854 0 3.723 2.007 5.916 5.41 5.916 2.864 0 4.643-1.593 4.922-3.961h-2.44c-.27 1.179-1.159 1.81-2.493 1.81-1.748 0-2.803-1.386-2.803-3.765 0-2.348 1.045-3.703 2.803-3.703 1.407 0 2.255.786 2.493 1.883h2.44zm2.483 7.508h2.554V258.63H62.97v11.314zm1.272-13.155c.941 0 1.582-.6 1.582-1.417 0-.817-.641-1.417-1.582-1.417-.931 0-1.583.6-1.583 1.417 0 .817.652 1.417 1.583 1.417zm10.632 1.654c-1.551 0-2.865.776-3.517 2.059h-.175v-1.872h-2.472v15.079h2.565v-5.482h.176c.579 1.2 1.83 1.904 3.454 1.904 2.855 0 4.633-2.234 4.633-5.844 0-3.63-1.8-5.844-4.664-5.844zm-.807 9.505c-1.748 0-2.834-1.396-2.844-3.661.01-2.255 1.107-3.661 2.855-3.661 1.758 0 2.823 1.375 2.823 3.661s-1.055 3.661-2.834 3.661zm12.794-7.508c1.541 0 2.555 1.075 2.606 2.751H84.14c.114-1.655 1.19-2.751 2.72-2.751zm2.627 6.391c-.372.838-1.251 1.303-2.524 1.303-1.685 0-2.771-1.179-2.833-3.061v-.134h7.901v-.828c0-3.568-1.934-5.709-5.16-5.709-3.28 0-5.317 2.286-5.317 5.926 0 3.641 2.007 5.844 5.337 5.844 2.668 0 4.54-1.283 5.026-3.341h-2.43zm4.861-4.964c0 1.706 1.024 2.71 3.196 3.206l2.006.465c1.076.238 1.562.642 1.562 1.283 0 .838-.9 1.406-2.192 1.406-1.283 0-2.08-.496-2.328-1.334h-2.534c.197 2.058 1.976 3.279 4.8 3.279 2.823 0 4.819-1.448 4.819-3.62 0-1.665-1.003-2.596-3.165-3.082l-1.996-.455c-1.138-.259-1.675-.652-1.675-1.293 0-.817.879-1.376 2.047-1.376 1.2 0 1.955.507 2.141 1.304h2.41c-.186-2.059-1.872-3.248-4.56-3.248-2.67 0-4.531 1.417-4.531 3.465z"/><path fill="#000" fill-opacity=".5" d="M26.499 369.314h1.506c1.563 0 2.531.77 2.531 2.003 0 1.174-1.026 2.01-2.482 2.01-1.448 0-2.44-.736-2.556-1.895h-1.78c.108 2.135 1.83 3.533 4.336 3.533 2.49 0 4.377-1.522 4.377-3.549 0-1.597-.993-2.714-2.623-2.904v-.141c1.316-.298 2.135-1.357 2.135-2.764 0-1.795-1.705-3.16-3.922-3.16-2.391 0-3.947 1.332-4.07 3.491h1.762c.099-1.175.951-1.894 2.25-1.894 1.3 0 2.151.728 2.151 1.836 0 1.126-.885 1.903-2.167 1.903h-1.448v1.531zm12.419 5.651c2.573 0 4.32-1.679 4.32-4.153 0-2.35-1.598-4.005-3.865-4.005-1.133 0-1.977.381-2.523 1.084h-.141l.314-3.5h5.52v-1.655h-6.968l-.629 6.835h1.697c.463-.77 1.29-1.225 2.316-1.225 1.457 0 2.466 1.018 2.466 2.515 0 1.49-1.001 2.474-2.49 2.474-1.308 0-2.276-.769-2.416-1.927h-1.763c.108 2.093 1.787 3.557 4.162 3.557zm6.52-8.778v.024h1.754v-.024c0-1.275.885-2.135 2.201-2.135 1.233 0 2.168.819 2.168 1.911 0 .877-.39 1.506-1.986 3.169l-4.038 4.203v1.341h8.043v-1.663h-5.461v-.141l2.656-2.689c2.002-2.027 2.614-3.061 2.614-4.327 0-1.97-1.671-3.409-3.938-3.409-2.35 0-4.013 1.539-4.013 3.74zm17.218 8.489v-8.481h.133l6.13 8.481h1.672v-11.94h-1.804v8.481h-.132l-6.131-8.481h-1.671v11.94h1.803zm14.538.174c2.631 0 4.244-1.763 4.244-4.684 0-2.904-1.621-4.674-4.244-4.674-2.631 0-4.253 1.77-4.253 4.674 0 2.921 1.613 4.684 4.253 4.684zm0-1.581c-1.547 0-2.416-1.133-2.416-3.103 0-1.952.869-3.094 2.416-3.094 1.539 0 2.416 1.142 2.416 3.094 0 1.961-.877 3.103-2.416 3.103zm7.016-9.846v2.284h-1.43v1.497h1.431v5.089c0 1.737.786 2.432 2.764 2.432.347 0 .678-.041.968-.091v-1.481c-.248.025-.406.042-.679.042-.885 0-1.274-.414-1.274-1.357v-4.634h1.953v-1.497H85.99v-2.284h-1.78zm9.424 3.583c1.316 0 2.177.918 2.218 2.333h-4.55c.098-1.407 1.017-2.333 2.332-2.333zm2.21 5.237c-.331.704-1.068 1.092-2.143 1.092-1.424 0-2.342-1.001-2.4-2.581v-.099h6.363v-.621c0-2.83-1.514-4.542-4.021-4.542-2.54 0-4.154 1.828-4.154 4.708 0 2.879 1.58 4.65 4.162 4.65 2.06 0 3.5-.993 3.905-2.607h-1.712zm3.748-4.029c0 1.34.794 2.11 2.507 2.515l1.572.364c.902.215 1.324.563 1.324 1.101 0 .719-.786 1.216-1.895 1.216-1.076 0-1.738-.43-1.961-1.125H99.36c.157 1.596 1.556 2.565 3.699 2.565 2.151 0 3.731-1.134 3.731-2.83 0-1.324-.802-2.06-2.515-2.458l-1.498-.347c-.976-.223-1.431-.563-1.431-1.101 0-.703.753-1.174 1.746-1.174 1.009 0 1.654.422 1.82 1.083h1.704c-.173-1.588-1.497-2.531-3.524-2.531-2.036 0-3.5 1.125-3.5 2.722z"/><path fill="#000" d="M33.958 348.096H27.11v-12.587h-2.669v14.925h9.516v-2.338zm6.474.507c-1.138 0-1.955-.569-1.955-1.52 0-.921.673-1.438 2.11-1.531l2.555-.166v.9c0 1.314-1.158 2.317-2.71 2.317zm-.755 2.017c1.48 0 2.72-.641 3.351-1.738h.176v1.552h2.472v-7.726c0-2.4-1.634-3.817-4.54-3.817-2.69 0-4.562 1.272-4.769 3.269h2.42c.239-.766 1.045-1.18 2.224-1.18 1.386 0 2.13.621 2.13 1.728v.951l-2.916.176c-2.75.166-4.292 1.345-4.292 3.392 0 2.069 1.562 3.393 3.744 3.393zm9.908-14.273v2.844h-1.789v2.048h1.79v6.175c0 2.192 1.034 3.071 3.63 3.071.496 0 .972-.051 1.344-.124v-2.006c-.31.031-.507.051-.869.051-1.075 0-1.551-.496-1.551-1.613v-5.554h2.42v-2.048h-2.42v-2.844h-2.555zm12.184 4.582c1.541 0 2.554 1.075 2.606 2.751H59.05c.114-1.655 1.19-2.751 2.72-2.751zm2.627 6.391c-.372.838-1.252 1.304-2.524 1.304-1.685 0-2.772-1.179-2.834-3.062v-.134h7.902v-.828c0-3.568-1.934-5.709-5.16-5.709-3.28 0-5.317 2.286-5.317 5.927 0 3.64 2.007 5.843 5.337 5.843 2.668 0 4.54-1.282 5.026-3.341h-2.43zm10.766 3.114h2.566v-6.589c0-1.665.961-2.72 2.492-2.72 1.562 0 2.286.869 2.286 2.596v6.713h2.565v-7.323c0-2.699-1.376-4.22-3.9-4.22-1.685 0-2.823.776-3.36 2.038h-.177v-1.81h-2.472v11.315zm12.98 0h2.555v-11.315h-2.555v11.315zm1.273-13.156c.94 0 1.582-.6 1.582-1.417 0-.817-.641-1.417-1.582-1.417-.931 0-1.583.6-1.583 1.417 0 .817.652 1.417 1.583 1.417zm9.329 10.901c-1.79 0-2.803-1.365-2.803-3.527s1.013-3.537 2.803-3.537c1.779 0 2.865 1.375 2.865 3.537s-1.076 3.527-2.865 3.527zm0 6.557c3.299 0 5.388-1.644 5.388-4.261v-11.356h-2.472v1.81h-.176c-.62-1.231-1.965-1.996-3.506-1.996-2.885 0-4.675 2.254-4.675 5.719 0 3.403 1.78 5.616 4.634 5.616 1.572 0 2.803-.662 3.454-1.872h.176v2.141c0 1.417-1.024 2.244-2.782 2.244-1.407 0-2.317-.496-2.482-1.272h-2.575c.206 1.945 2.11 3.227 5.016 3.227zm8.646-4.302h2.565v-6.568c0-1.624.941-2.72 2.627-2.72 1.489 0 2.275.879 2.275 2.596v6.692h2.565v-7.302c0-2.689-1.468-4.22-3.888-4.22-1.686 0-2.896.765-3.434 2.037h-.186v-6.205h-2.524v15.69zm13.89-14.087v2.844h-1.789v2.048h1.789v6.175c0 2.192 1.034 3.071 3.63 3.071a7.21 7.21 0 0 0 1.345-.124v-2.006c-.31.031-.507.051-.869.051-1.076 0-1.551-.496-1.551-1.613v-5.554h2.42v-2.048h-2.42v-2.844h-2.555zm14.004 0v2.844h-1.789v2.048h1.789v6.175c0 2.192 1.034 3.071 3.63 3.071.497 0 .972-.051 1.345-.124v-2.006c-.311.031-.507.051-.869.051-1.076 0-1.551-.496-1.551-1.613v-5.554h2.42v-2.048h-2.42v-2.844h-2.555zm7.643 14.087h2.565v-6.568c0-1.624.941-2.72 2.627-2.72 1.489 0 2.275.879 2.275 2.596v6.692h2.565v-7.302c0-2.689-1.468-4.22-3.888-4.22-1.686 0-2.896.765-3.434 2.037h-.186v-6.205h-2.524v15.69zm17.955.227c3.382 0 5.44-2.213 5.44-5.885 0-3.661-2.068-5.885-5.44-5.885-3.361 0-5.44 2.234-5.44 5.885 0 3.672 2.047 5.885 5.44 5.885zm0-2.151c-1.789 0-2.813-1.365-2.813-3.734 0-2.358 1.024-3.733 2.813-3.733 1.779 0 2.803 1.375 2.803 3.733 0 2.369-1.014 3.734-2.803 3.734zm17.872-9.391h-2.565v6.588c0 1.676-.91 2.699-2.575 2.699-1.531 0-2.245-.848-2.245-2.575v-6.712h-2.565v7.353c0 2.648 1.448 4.189 3.92 4.189 1.727 0 2.834-.734 3.382-2.027h.176v1.8h2.472v-11.315zm8.005 9.06c-1.789 0-2.803-1.365-2.803-3.527s1.014-3.537 2.803-3.537c1.779 0 2.865 1.375 2.865 3.537s-1.076 3.527-2.865 3.527zm0 6.557c3.299 0 5.388-1.644 5.388-4.261v-11.356h-2.471v1.81h-.176c-.621-1.231-1.965-1.996-3.506-1.996-2.886 0-4.675 2.254-4.675 5.719 0 3.403 1.779 5.616 4.633 5.616 1.572 0 2.803-.662 3.455-1.872h.175v2.141c0 1.417-1.023 2.244-2.782 2.244-1.406 0-2.316-.496-2.482-1.272h-2.575c.207 1.945 2.11 3.227 5.016 3.227zm8.646-4.302h2.565v-6.568c0-1.624.941-2.72 2.627-2.72 1.49 0 2.276.879 2.276 2.596v6.692h2.565v-7.302c0-2.689-1.469-4.22-3.889-4.22-1.686 0-2.896.765-3.434 2.037h-.186v-6.205h-2.524v15.69zm13.89-14.087v2.844h-1.789v2.048h1.789v6.175c0 2.192 1.035 3.071 3.631 3.071.496 0 .972-.051 1.344-.124v-2.006c-.31.031-.507.051-.869.051-1.075 0-1.551-.496-1.551-1.613v-5.554h2.42v-2.048h-2.42v-2.844h-2.555zm7.137 6.009c0 1.707 1.024 2.71 3.196 3.206l2.006.466c1.076.238 1.562.641 1.562 1.282 0 .838-.9 1.407-2.193 1.407-1.282 0-2.079-.497-2.327-1.334h-2.534c.197 2.058 1.976 3.278 4.799 3.278 2.824 0 4.82-1.448 4.82-3.62 0-1.665-1.003-2.596-3.165-3.082l-1.996-.455c-1.138-.258-1.676-.652-1.676-1.293 0-.817.88-1.375 2.048-1.375 1.2 0 1.955.506 2.141 1.303h2.41c-.186-2.058-1.872-3.248-4.561-3.248-2.669 0-4.53 1.417-4.53 3.465z"/><path fill="#000" fill-opacity=".5" d="M26.499 449.805h1.506c1.563 0 2.531.77 2.531 2.003 0 1.175-1.026 2.01-2.482 2.01-1.448 0-2.44-.736-2.556-1.894h-1.78c.108 2.134 1.83 3.533 4.336 3.533 2.49 0 4.377-1.523 4.377-3.55 0-1.597-.993-2.714-2.623-2.904v-.141c1.316-.298 2.135-1.357 2.135-2.763 0-1.796-1.705-3.161-3.922-3.161-2.391 0-3.947 1.332-4.07 3.492h1.762c.099-1.175.951-1.895 2.25-1.895 1.3 0 2.151.728 2.151 1.837 0 1.125-.885 1.903-2.167 1.903h-1.448v1.53zm12.419 5.652c2.573 0 4.32-1.68 4.32-4.154 0-2.35-1.598-4.005-3.865-4.005-1.133 0-1.977.381-2.523 1.084h-.141l.314-3.5h5.52v-1.654h-6.968l-.629 6.834h1.697c.463-.77 1.29-1.225 2.316-1.225 1.457 0 2.466 1.018 2.466 2.516 0 1.489-1.001 2.474-2.49 2.474-1.308 0-2.276-.77-2.416-1.928h-1.763c.108 2.093 1.787 3.558 4.162 3.558zm6.52-8.779v.025h1.754v-.025c0-1.274.885-2.135 2.201-2.135 1.233 0 2.168.819 2.168 1.911 0 .877-.39 1.506-1.986 3.169l-4.038 4.204v1.34h8.043v-1.663h-5.461v-.141l2.656-2.689c2.002-2.027 2.614-3.061 2.614-4.327 0-1.969-1.671-3.409-3.938-3.409-2.35 0-4.013 1.539-4.013 3.74zm17.218 8.489v-8.481h.133l6.13 8.481h1.672v-11.939h-1.804v8.48h-.132l-6.131-8.48h-1.671v11.939h1.803zm14.538.174c2.631 0 4.244-1.763 4.244-4.683 0-2.905-1.621-4.675-4.244-4.675-2.631 0-4.253 1.77-4.253 4.675 0 2.92 1.613 4.683 4.253 4.683zm0-1.581c-1.547 0-2.416-1.133-2.416-3.102 0-1.953.869-3.095 2.416-3.095 1.539 0 2.416 1.142 2.416 3.095 0 1.961-.877 3.102-2.416 3.102zm7.016-9.846v2.284h-1.43v1.498h1.431v5.088c0 1.738.786 2.433 2.764 2.433.347 0 .678-.042.968-.091v-1.481c-.248.024-.406.041-.679.041-.885 0-1.274-.414-1.274-1.357v-4.633h1.953v-1.498H85.99v-2.284h-1.78zm9.424 3.583c1.316 0 2.177.918 2.218 2.333h-4.55c.098-1.406 1.017-2.333 2.332-2.333zm2.21 5.237c-.331.704-1.068 1.093-2.143 1.093-1.424 0-2.342-1.002-2.4-2.582v-.099h6.363v-.621c0-2.829-1.514-4.542-4.021-4.542-2.54 0-4.154 1.828-4.154 4.708 0 2.879 1.58 4.65 4.162 4.65 2.06 0 3.5-.993 3.905-2.607h-1.712zm3.748-4.029c0 1.34.794 2.11 2.507 2.515l1.572.364c.902.215 1.324.563 1.324 1.101 0 .72-.786 1.216-1.895 1.216-1.076 0-1.738-.43-1.961-1.125H99.36c.157 1.597 1.556 2.565 3.699 2.565 2.151 0 3.731-1.134 3.731-2.83 0-1.324-.802-2.06-2.515-2.457l-1.498-.348c-.976-.223-1.431-.563-1.431-1.1 0-.704.753-1.175 1.746-1.175 1.009 0 1.654.422 1.82 1.084h1.704c-.173-1.589-1.497-2.532-3.524-2.532-2.036 0-3.5 1.125-3.5 2.722z"/><path fill="#000" d="M24.442 416v14.925h2.669v-4.892h3.237c3.02 0 5.13-2.027 5.13-4.985 0-3.01-2.037-5.048-5.016-5.048h-6.02zm2.669 2.234h2.648c1.923 0 3.01.983 3.01 2.814 0 1.779-1.118 2.771-3.02 2.771H27.11v-5.585zm11.046 12.691h2.565v-6.537c0-1.582 1.158-2.616 2.823-2.616.435 0 1.117.072 1.314.144v-2.378c-.238-.073-.693-.114-1.066-.114-1.458 0-2.678.827-2.989 1.944h-.175v-1.758h-2.472v11.315zm13.27-9.505c1.54 0 2.554 1.076 2.606 2.751h-5.327c.114-1.655 1.19-2.751 2.72-2.751zm2.626 6.392c-.372.837-1.251 1.303-2.523 1.303-1.686 0-2.772-1.179-2.834-3.062v-.134h7.902v-.827c0-3.569-1.934-5.71-5.161-5.71-3.279 0-5.316 2.286-5.316 5.927 0 3.64 2.006 5.843 5.336 5.843 2.669 0 4.54-1.282 5.027-3.34h-2.43zm4.861-4.965c0 1.707 1.024 2.71 3.196 3.206l2.007.466c1.075.238 1.561.641 1.561 1.282 0 .838-.9 1.407-2.192 1.407-1.283 0-2.08-.497-2.327-1.334h-2.534c.196 2.058 1.975 3.278 4.799 3.278 2.823 0 4.82-1.448 4.82-3.62 0-1.665-1.004-2.596-3.165-3.082l-1.997-.455c-1.137-.258-1.675-.651-1.675-1.293 0-.817.879-1.375 2.048-1.375 1.2 0 1.954.507 2.14 1.303h2.41c-.186-2.058-1.871-3.248-4.56-3.248-2.669 0-4.53 1.417-4.53 3.465zm16.673-1.427c1.54 0 2.554 1.076 2.606 2.751h-5.326c.113-1.655 1.189-2.751 2.72-2.751zm2.627 6.392c-.373.837-1.252 1.303-2.524 1.303-1.686 0-2.772-1.179-2.834-3.062v-.134h7.902v-.827c0-3.569-1.934-5.71-5.161-5.71-3.279 0-5.316 2.286-5.316 5.927 0 3.64 2.006 5.843 5.337 5.843 2.668 0 4.54-1.282 5.026-3.34h-2.43zm5.12 3.113h2.564v-6.588c0-1.666.962-2.721 2.493-2.721 1.561 0 2.285.869 2.285 2.596v6.713h2.565v-7.323c0-2.699-1.375-4.22-3.899-4.22-1.686 0-2.823.776-3.361 2.038h-.176v-1.81h-2.472v11.315zm13.765-14.087v2.844h-1.79v2.048h1.79v6.175c0 2.192 1.034 3.072 3.63 3.072.497 0 .973-.052 1.345-.125v-2.006c-.31.031-.507.052-.869.052-1.075 0-1.551-.497-1.551-1.614v-5.554h2.42v-2.048h-2.42v-2.844h-2.555zm13.218 14.087h2.555V419.61h-2.555v11.315zm1.272-13.156c.941 0 1.583-.6 1.583-1.417 0-.817-.642-1.417-1.583-1.417-.931 0-1.582.6-1.582 1.417 0 .817.651 1.417 1.582 1.417zm8.564 13.342c1.572 0 2.875-.734 3.516-1.975h.176v1.789h2.482v-15.69h-2.565v6.175h-.175c-.6-1.241-1.883-1.986-3.434-1.986-2.855 0-4.654 2.255-4.654 5.833 0 3.599 1.789 5.854 4.654 5.854zm.796-9.505c1.758 0 2.844 1.407 2.844 3.661 0 2.276-1.075 3.662-2.844 3.662-1.758 0-2.823-1.376-2.823-3.662 0-2.275 1.075-3.661 2.823-3.661zm13.363-.186c1.541 0 2.554 1.076 2.606 2.751h-5.326c.113-1.655 1.189-2.751 2.72-2.751zm2.627 6.392c-.373.837-1.252 1.303-2.524 1.303-1.686 0-2.772-1.179-2.834-3.062v-.134h7.902v-.827c0-3.569-1.934-5.71-5.161-5.71-3.279 0-5.316 2.286-5.316 5.927 0 3.64 2.006 5.843 5.337 5.843 2.668 0 4.54-1.282 5.026-3.34h-2.43zm8.987 1.282c-1.137 0-1.954-.569-1.954-1.52 0-.921.672-1.438 2.11-1.531l2.554-.165v.899c0 1.314-1.158 2.317-2.71 2.317zm-.755 2.017c1.479 0 2.721-.641 3.351-1.738h.176v1.552h2.472v-7.726c0-2.4-1.634-3.817-4.54-3.817-2.689 0-4.561 1.273-4.768 3.269h2.42c.238-.766 1.045-1.179 2.224-1.179 1.386 0 2.13.62 2.13 1.727v.951l-2.916.176c-2.752.166-4.293 1.345-4.293 3.393 0 2.068 1.562 3.392 3.744 3.392zm8.833-8.264c0 1.707 1.024 2.71 3.196 3.206l2.006.466c1.076.238 1.562.641 1.562 1.282 0 .838-.9 1.407-2.193 1.407-1.282 0-2.078-.497-2.327-1.334h-2.534c.197 2.058 1.976 3.278 4.799 3.278 2.824 0 4.82-1.448 4.82-3.62 0-1.665-1.003-2.596-3.165-3.082l-1.996-.455c-1.138-.258-1.675-.651-1.675-1.293 0-.817.879-1.375 2.047-1.375 1.2 0 1.955.507 2.141 1.303h2.41c-.186-2.058-1.872-3.248-4.561-3.248-2.668 0-4.53 1.417-4.53 3.465zm18.399 8.078h2.555v-9.195h2.431v-2.048h-2.462v-1.023c0-1.066.476-1.593 1.686-1.593.362 0 .672.02.879.051v-1.882a8.264 8.264 0 0 0-1.427-.114c-2.513 0-3.662 1.128-3.662 3.372v1.189h-1.851v2.048h1.851v9.195zm11.936.227c3.382 0 5.44-2.213 5.44-5.885 0-3.661-2.069-5.885-5.44-5.885-3.362 0-5.44 2.234-5.44 5.885 0 3.672 2.047 5.885 5.44 5.885zm0-2.151c-1.789 0-2.813-1.365-2.813-3.734 0-2.358 1.024-3.733 2.813-3.733 1.779 0 2.803 1.375 2.803 3.733 0 2.369-1.014 3.734-2.803 3.734zm8.026 1.924h2.565v-6.537c0-1.582 1.158-2.616 2.823-2.616.435 0 1.117.072 1.314.144v-2.378c-.238-.073-.693-.114-1.066-.114-1.458 0-2.678.827-2.989 1.944h-.175v-1.758h-2.472v11.315zm15.286 0h2.555v-9.195h2.43v-2.048h-2.461v-1.023c0-1.066.475-1.593 1.685-1.593.362 0 .673.02.88.051v-1.882a8.277 8.277 0 0 0-1.428-.114c-2.513 0-3.661 1.128-3.661 3.372v1.189H205.8v2.048h1.851v9.195zm10.984-1.831c-1.138 0-1.955-.569-1.955-1.52 0-.921.672-1.438 2.11-1.531l2.555-.165v.899c0 1.314-1.159 2.317-2.71 2.317zm-.755 2.017c1.479 0 2.72-.641 3.351-1.738h.176v1.552h2.471v-7.726c0-2.4-1.634-3.817-4.54-3.817-2.689 0-4.561 1.273-4.768 3.269h2.42c.238-.766 1.045-1.179 2.224-1.179 1.386 0 2.131.62 2.131 1.727v.951l-2.917.176c-2.751.166-4.292 1.345-4.292 3.393 0 2.068 1.561 3.392 3.744 3.392zm9.091-.186h2.565v-6.878c0-1.386.941-2.431 2.213-2.431 1.262 0 2.048.755 2.048 1.997v7.312h2.493v-7.043c0-1.293.879-2.266 2.213-2.266 1.375 0 2.068.724 2.068 2.183v7.126h2.555v-7.778c0-2.348-1.365-3.765-3.63-3.765-1.572 0-2.875.818-3.434 2.059h-.176c-.476-1.272-1.562-2.059-3.123-2.059-1.5 0-2.658.766-3.144 2.059h-.176v-1.831h-2.472v11.315zm19.227 0h2.554V419.61h-2.554v11.315zm1.272-13.156c.941 0 1.582-.6 1.582-1.417 0-.817-.641-1.417-1.582-1.417-.931 0-1.583.6-1.583 1.417 0 .817.652 1.417 1.583 1.417zm4.571 13.156h2.565v-15.69h-2.565v15.69zm7.054 4.106c2.534 0 3.744-.931 4.706-3.744l4.085-11.677h-2.71l-2.637 8.833h-.176l-2.647-8.833h-2.814l4.044 11.367-.134.496c-.331 1.045-.941 1.458-2.027 1.458-.176 0-.559-.01-.704-.041v2.099c.166.031.859.042 1.014.042z"/><path fill="#323136" d="M23.992 152.507h440.577v.706H23.992z"/><path fill="#DCDCDC" d="M23.992 232.996h440.577v.706H23.992zm0 80.491h440.577v.706H23.992zm0 80.49h440.577v.706H23.992zm0-241.47h440.577v.706H23.992z"/></g><defs><linearGradient id="b" x1="232.292" x2="232.292" y1="0" y2="72.017" gradientUnits="userSpaceOnUse"><stop stop-color="#FFD422"/><stop offset="1" stop-color="#F2C800"/></linearGradient><clipPath id="a"><path fill="#fff" d="M0 32C0 14.327 14.327 0 32 0h365v487H32c-17.673 0-32-14.327-32-32V32z"/></clipPath><filter id="c" width="45.188" height="40.95" x="16.953" y="18.357" color-interpolation-filters="sRGB" filterUnits="userSpaceOnUse"><feFlood flood-opacity="0" result="BackgroundImageFix"/><feGaussianBlur in="BackgroundImageFix" stdDeviation="2.824"/><feComposite in2="SourceAlpha" operator="in" result="effect1_backgroundBlur_105_701"/><feColorMatrix in="SourceAlpha" result="hardAlpha" values="0 0 0 0 0 0 0 0 0 0 0 0 0 0 0 0 0 0 127 0"/><feOffset dy="2.824"/><feGaussianBlur stdDeviation="2.824"/><feColorMatrix values="0 0 0 0 0 0 0 0 0 0 0 0 0 0 0 0 0 0 0.06 0"/><feBlend in2="effect1_backgroundBlur_105_701" result="effect2_dropShadow_105_701"/><feBlend in="SourceGraphic" in2="effect2_dropShadow_105_701" result="shape"/></filter></defs></svg>