<svg version="1.1" id="Layer_1" xmlns="http://www.w3.org/2000/svg" xmlns:xlink="http://www.w3.org/1999/xlink" x="0px" y="0px"
	 width="100%" viewBox="0 0 700 250" enable-background="new 0 0 700 250" xml:space="preserve">
<path fill="#FFFFFF" opacity="1.000000" stroke="none" 
	d="
M501.000000,251.000000 
	C334.000000,251.000000 167.500000,251.000000 1.000000,251.000000 
	C1.000000,167.666672 1.000000,84.333336 1.000000,1.000000 
	C234.333328,1.000000 467.666656,1.000000 701.000000,1.000000 
	C701.000000,84.333336 701.000000,167.666672 701.000000,251.000000 
	C634.500000,251.000000 568.000000,251.000000 501.000000,251.000000 
M564.026001,223.980759 
	C568.025879,223.987167 572.181946,224.694275 575.991028,223.844986 
	C582.641357,222.362259 589.525391,220.784866 595.503052,217.687119 
	C605.254211,212.633865 610.064697,202.851303 613.804138,193.202652 
	C621.498108,173.350296 628.433777,153.197693 635.380798,133.064880 
	C638.776489,123.223862 644.489380,113.811134 642.857544,102.822701 
	C642.419312,99.871819 640.987061,96.037277 638.733154,94.565765 
	C628.953552,88.180962 617.465332,90.675323 614.005737,102.630806 
	C608.968323,120.038681 604.009216,137.469254 598.958557,154.873260 
	C598.074402,157.920059 596.903809,160.883743 595.425903,165.156876 
	C593.959045,161.111877 592.841125,158.474213 592.038574,155.743835 
	C586.658264,137.440140 581.381958,119.105804 575.989441,100.805725 
	C574.174316,94.645889 569.531433,91.503159 563.469238,91.122498 
	C557.693420,90.759819 552.556091,92.552124 548.753052,97.588272 
	C543.829407,104.108513 546.106567,110.538429 548.485474,116.923622 
	C557.487427,141.085266 566.657349,165.184311 575.715698,189.325073 
	C577.408569,193.836884 575.743469,197.661133 571.071106,198.851624 
	C567.486511,199.764969 563.647278,199.763779 559.910339,199.975815 
	C553.531372,200.337753 549.970703,203.911407 550.000000,210.135544 
	C550.034302,217.402344 553.733215,221.210464 564.026001,223.980759 
M212.038742,185.549698 
	C229.853653,194.135391 245.446686,191.445114 258.838959,176.101105 
	C258.906372,176.938507 258.902008,177.533585 259.008301,178.108170 
	C260.912079,188.397797 268.374847,191.665268 276.088348,190.958420 
	C284.531921,190.184677 288.999573,184.636093 288.999847,175.403671 
	C289.000397,158.085052 288.558105,140.751892 289.127350,123.451996 
	C289.669495,106.977112 275.740540,96.228371 262.531525,92.962601 
	C253.001831,90.606506 243.466690,90.379272 233.845322,92.007011 
	C224.319031,93.618668 215.192657,96.241356 208.608902,103.943298 
	C204.375168,108.896072 202.155884,114.751877 205.139420,120.983536 
	C207.599762,126.122513 212.780670,127.156944 218.075836,126.981697 
	C224.398209,126.772461 228.217972,122.364517 232.195175,118.290146 
	C236.580643,113.797508 245.238785,111.363411 252.299561,114.781326 
	C257.834930,117.460846 259.503174,121.389343 258.701202,130.372055 
	C248.398499,131.249985 238.116013,131.988342 227.865860,133.041473 
	C219.004761,133.951889 210.400192,136.802063 204.495651,143.366409 
	C193.175995,155.951004 196.438126,176.302612 212.038742,185.549698 
M435.961395,190.975800 
	C443.536621,190.650360 451.176605,190.831436 458.670929,189.873169 
	C468.364929,188.633652 476.887390,184.557892 483.547363,177.018311 
	C490.977173,168.607239 489.698395,157.785492 478.780518,155.433456 
	C474.546509,154.521317 470.428436,155.854050 467.345490,159.188553 
	C463.069611,163.813354 458.135773,167.286972 451.881073,168.646881 
	C436.361420,172.021240 425.388092,161.340057 427.448425,148.000000 
	C429.023590,148.000000 430.658234,148.000000 432.292908,148.000000 
	C447.959045,148.000000 463.625244,148.020157 479.291321,147.989182 
	C484.866516,147.978165 490.563568,144.095062 490.932709,139.585495 
	C492.263214,123.332085 487.222015,109.665619 473.588928,99.998840 
	C462.031555,91.803894 449.212097,89.620956 435.216125,91.883362 
	C422.848297,93.882591 413.197449,99.449600 405.741302,109.573318 
	C396.277252,122.423309 395.906311,137.138748 397.282410,151.780350 
	C398.268829,162.276291 402.714691,172.030701 410.932251,179.442719 
	C417.838654,185.672119 426.184204,188.786407 435.961395,190.975800 
M62.000000,174.255707 
	C62.397133,185.922943 68.223579,190.635056 77.953003,190.905716 
	C88.579224,191.201340 94.130463,184.620300 94.062592,174.548492 
	C93.879585,147.389938 94.000000,120.229332 94.000000,93.069542 
	C94.000000,91.465416 94.000000,89.861290 94.000000,88.000000 
	C100.828506,88.000000 107.133888,88.072601 113.436325,87.967758 
	C116.355499,87.919189 119.467049,88.097961 122.145050,87.171997 
	C128.348175,85.027176 132.028976,78.730583 130.982849,73.156914 
	C129.771408,66.702454 123.959839,62.043259 116.639137,62.025040 
	C90.812500,61.960773 64.982452,61.803631 39.162312,62.218296 
	C35.421043,62.278385 30.876377,64.421616 28.210709,67.100609 
	C24.239851,71.091309 24.467930,76.691635 26.989012,81.764076 
	C29.383173,86.581154 33.925861,87.874489 38.823128,87.963463 
	C46.434265,88.101746 54.049770,88.000000 62.000000,88.000000 
	C62.000000,116.733803 62.000000,145.020706 62.000000,174.255707 
M319.480072,164.986542 
	C320.772400,168.604095 321.876343,172.302963 323.395996,175.822357 
	C326.615021,183.277298 331.436188,189.134399 340.017670,190.521698 
	C350.482574,192.213486 362.231750,190.675705 366.975891,177.872070 
	C375.031342,156.131638 383.273834,134.443390 390.496704,112.424522 
	C392.148102,107.390312 393.293365,100.434631 388.079376,95.653244 
	C379.499512,87.785378 366.095062,90.402672 362.989685,101.813873 
	C358.990356,116.509964 354.997192,131.207718 351.000092,145.904419 
	C349.610382,151.014160 348.216797,156.122849 346.489105,162.464859 
	C345.451111,160.636826 345.145996,160.285797 345.037720,159.881989 
	C340.343872,142.376999 335.779694,124.836182 330.933350,107.373665 
	C329.011383,100.448326 327.237610,93.447372 318.274445,91.592773 
	C308.866119,89.646065 297.252075,96.190186 300.018097,107.958900 
	C301.297180,113.401146 302.791443,118.821022 304.625305,124.099159 
	C309.297516,137.546616 314.215851,150.908600 319.480072,164.986542 
M504.000000,124.500000 
	C504.000031,141.492493 503.821014,158.487564 504.067566,175.476486 
	C504.213837,185.555374 509.742859,190.758163 518.973083,190.970230 
	C528.289612,191.184265 534.924866,185.533859 534.953003,177.033966 
	C535.066467,142.716217 535.129333,108.397095 534.921692,74.080238 
	C534.858948,63.713123 525.421448,58.143879 515.797119,60.721504 
	C507.475037,62.950356 504.477264,65.398041 504.125153,76.524788 
	C503.630096,92.168846 504.000000,107.840279 504.000000,124.500000 
M159.983383,97.825752 
	C156.220139,92.642769 151.287415,89.990402 144.866791,91.637154 
	C135.676071,93.994370 132.161285,98.517479 132.060623,108.912521 
	C131.857468,129.892242 131.868088,150.876495 132.052277,171.856583 
	C132.153961,183.440018 135.380127,188.253250 144.161301,190.630569 
	C150.313828,192.296234 160.005997,190.154114 162.182068,182.250397 
	C163.072144,179.017532 163.867401,175.639923 163.919083,172.315918 
	C164.118423,159.496857 163.982437,146.672836 164.008377,133.850723 
	C164.019211,128.497025 167.527191,123.062210 171.776154,122.138245 
	C174.627014,121.518295 177.570267,121.253296 180.487427,121.021667 
	C188.125107,120.415222 192.421448,117.089401 194.584106,109.940147 
	C196.794128,102.634346 191.697540,92.839172 185.251434,92.003601 
	C176.806290,90.908905 169.680252,94.851738 165.795990,102.645660 
	C164.911148,104.421112 163.706070,106.036972 162.821884,107.449165 
	C161.875732,104.371071 160.989075,101.486504 159.983383,97.825752 
M645.066345,176.927917 
	C646.900330,179.971909 648.269653,183.458755 650.662842,185.969803 
	C656.022095,191.593063 666.164001,191.324234 672.214783,185.904968 
	C677.554504,181.122574 678.709412,169.974304 674.480347,164.034683 
	C670.132507,157.928207 659.339783,155.435944 653.240051,159.412079 
	C647.304443,163.281204 644.258484,168.800964 645.066345,176.927917 
z"/>
<path fill="#000000" opacity="1.000000" stroke="none" 
	d="
M563.602234,223.841858 
	C553.733215,221.210464 550.034302,217.402344 550.000000,210.135544 
	C549.970703,203.911407 553.531372,200.337753 559.910339,199.975815 
	C563.647278,199.763779 567.486511,199.764969 571.071106,198.851624 
	C575.743469,197.661133 577.408569,193.836884 575.715698,189.325073 
	C566.657349,165.184311 557.487427,141.085266 548.485474,116.923622 
	C546.106567,110.538429 543.829407,104.108513 548.753052,97.588272 
	C552.556091,92.552124 557.693420,90.759819 563.469238,91.122498 
	C569.531433,91.503159 574.174316,94.645889 575.989441,100.805725 
	C581.381958,119.105804 586.658264,137.440140 592.038574,155.743835 
	C592.841125,158.474213 593.959045,161.111877 595.425903,165.156876 
	C596.903809,160.883743 598.074402,157.920059 598.958557,154.873260 
	C604.009216,137.469254 608.968323,120.038681 614.005737,102.630806 
	C617.465332,90.675323 628.953552,88.180962 638.733154,94.565765 
	C640.987061,96.037277 642.419312,99.871819 642.857544,102.822701 
	C644.489380,113.811134 638.776489,123.223862 635.380798,133.064880 
	C628.433777,153.197693 621.498108,173.350296 613.804138,193.202652 
	C610.064697,202.851303 605.254211,212.633865 595.503052,217.687119 
	C589.525391,220.784866 582.641357,222.362259 575.991028,223.844986 
	C572.181946,224.694275 568.025879,223.987167 563.602234,223.841858 
z"/>
<path fill="#000000" opacity="1.000000" stroke="none" 
	d="
M211.749573,185.295563 
	C196.438126,176.302612 193.175995,155.951004 204.495651,143.366409 
	C210.400192,136.802063 219.004761,133.951889 227.865860,133.041473 
	C238.116013,131.988342 248.398499,131.249985 258.701202,130.372055 
	C259.503174,121.389343 257.834930,117.460846 252.299561,114.781326 
	C245.238785,111.363411 236.580643,113.797508 232.195175,118.290146 
	C228.217972,122.364517 224.398209,126.772461 218.075836,126.981697 
	C212.780670,127.156944 207.599762,126.122513 205.139420,120.983536 
	C202.155884,114.751877 204.375168,108.896072 208.608902,103.943298 
	C215.192657,96.241356 224.319031,93.618668 233.845322,92.007011 
	C243.466690,90.379272 253.001831,90.606506 262.531525,92.962601 
	C275.740540,96.228371 289.669495,106.977112 289.127350,123.451996 
	C288.558105,140.751892 289.000397,158.085052 288.999847,175.403671 
	C288.999573,184.636093 284.531921,190.184677 276.088348,190.958420 
	C268.374847,191.665268 260.912079,188.397797 259.008301,178.108170 
	C258.902008,177.533585 258.906372,176.938507 258.838959,176.101105 
	C245.446686,191.445114 229.853653,194.135391 211.749573,185.295563 
M233.870621,151.012146 
	C227.447495,156.481003 227.083237,163.838242 233.146515,167.013077 
	C240.221527,170.717667 247.093826,169.323853 253.231369,165.086899 
	C259.186523,160.975861 259.959534,154.740799 258.441040,147.434113 
	C250.380661,148.593109 242.523621,149.722855 233.870621,151.012146 
z"/>
<path fill="#000000" opacity="1.000000" stroke="none" 
	d="
M435.538422,190.807281 
	C426.184204,188.786407 417.838654,185.672119 410.932251,179.442719 
	C402.714691,172.030701 398.268829,162.276291 397.282410,151.780350 
	C395.906311,137.138748 396.277252,122.423309 405.741302,109.573318 
	C413.197449,99.449600 422.848297,93.882591 435.216125,91.883362 
	C449.212097,89.620956 462.031555,91.803894 473.588928,99.998840 
	C487.222015,109.665619 492.263214,123.332085 490.932709,139.585495 
	C490.563568,144.095062 484.866516,147.978165 479.291321,147.989182 
	C463.625244,148.020157 447.959045,148.000000 432.292908,148.000000 
	C430.658234,148.000000 429.023590,148.000000 427.448425,148.000000 
	C425.388092,161.340057 436.361420,172.021240 451.881073,168.646881 
	C458.135773,167.286972 463.069611,163.813354 467.345490,159.188553 
	C470.428436,155.854050 474.546509,154.521317 478.780518,155.433456 
	C489.698395,157.785492 490.977173,168.607239 483.547363,177.018311 
	C476.887390,184.557892 468.364929,188.633652 458.670929,189.873169 
	C451.176605,190.831436 443.536621,190.650360 435.538422,190.807281 
M445.381042,113.000137 
	C435.931824,113.264175 428.259460,118.796661 427.713196,129.675812 
	C438.781006,129.675812 449.858124,129.675812 462.657104,129.675812 
	C460.559540,125.389389 459.632416,121.318665 457.113251,118.919876 
	C454.228027,116.172539 449.929260,114.909683 445.381042,113.000137 
z"/>
<path fill="#000000" opacity="1.000000" stroke="none" 
	d="
M62.000000,173.781662 
	C62.000000,145.020706 62.000000,116.733803 62.000000,88.000000 
	C54.049770,88.000000 46.434265,88.101746 38.823128,87.963463 
	C33.925861,87.874489 29.383173,86.581154 26.989012,81.764076 
	C24.467930,76.691635 24.239851,71.091309 28.210709,67.100609 
	C30.876377,64.421616 35.421043,62.278385 39.162312,62.218296 
	C64.982452,61.803631 90.812500,61.960773 116.639137,62.025040 
	C123.959839,62.043259 129.771408,66.702454 130.982849,73.156914 
	C132.028976,78.730583 128.348175,85.027176 122.145050,87.171997 
	C119.467049,88.097961 116.355499,87.919189 113.436325,87.967758 
	C107.133888,88.072601 100.828506,88.000000 94.000000,88.000000 
	C94.000000,89.861290 94.000000,91.465416 94.000000,93.069542 
	C94.000000,120.229332 93.879585,147.389938 94.062592,174.548492 
	C94.130463,184.620300 88.579224,191.201340 77.953003,190.905716 
	C68.223579,190.635056 62.397133,185.922943 62.000000,173.781662 
z"/>
<path fill="#000000" opacity="1.000000" stroke="none" 
	d="
M319.257874,164.645660 
	C314.215851,150.908600 309.297516,137.546616 304.625305,124.099159 
	C302.791443,118.821022 301.297180,113.401146 300.018097,107.958900 
	C297.252075,96.190186 308.866119,89.646065 318.274445,91.592773 
	C327.237610,93.447372 329.011383,100.448326 330.933350,107.373665 
	C335.779694,124.836182 340.343872,142.376999 345.037720,159.881989 
	C345.145996,160.285797 345.451111,160.636826 346.489105,162.464859 
	C348.216797,156.122849 349.610382,151.014160 351.000092,145.904419 
	C354.997192,131.207718 358.990356,116.509964 362.989685,101.813873 
	C366.095062,90.402672 379.499512,87.785378 388.079376,95.653244 
	C393.293365,100.434631 392.148102,107.390312 390.496704,112.424522 
	C383.273834,134.443390 375.031342,156.131638 366.975891,177.872070 
	C362.231750,190.675705 350.482574,192.213486 340.017670,190.521698 
	C331.436188,189.134399 326.615021,183.277298 323.395996,175.822357 
	C321.876343,172.302963 320.772400,168.604095 319.257874,164.645660 
z"/>
<path fill="#000000" opacity="1.000000" stroke="none" 
	d="
M504.000000,124.000000 
	C504.000000,107.840279 503.630096,92.168846 504.125153,76.524788 
	C504.477264,65.398041 507.475037,62.950356 515.797119,60.721504 
	C525.421448,58.143879 534.858948,63.713123 534.921692,74.080238 
	C535.129333,108.397095 535.066467,142.716217 534.953003,177.033966 
	C534.924866,185.533859 528.289612,191.184265 518.973083,190.970230 
	C509.742859,190.758163 504.213837,185.555374 504.067566,175.476486 
	C503.821014,158.487564 504.000031,141.492493 504.000000,124.000000 
z"/>
<path fill="#000000" opacity="1.000000" stroke="none" 
	d="
M160.042908,98.213852 
	C160.989075,101.486504 161.875732,104.371071 162.821884,107.449165 
	C163.706070,106.036972 164.911148,104.421112 165.795990,102.645660 
	C169.680252,94.851738 176.806290,90.908905 185.251434,92.003601 
	C191.697540,92.839172 196.794128,102.634346 194.584106,109.940147 
	C192.421448,117.089401 188.125107,120.415222 180.487427,121.021667 
	C177.570267,121.253296 174.627014,121.518295 171.776154,122.138245 
	C167.527191,123.062210 164.019211,128.497025 164.008377,133.850723 
	C163.982437,146.672836 164.118423,159.496857 163.919083,172.315918 
	C163.867401,175.639923 163.072144,179.017532 162.182068,182.250397 
	C160.005997,190.154114 150.313828,192.296234 144.161301,190.630569 
	C135.380127,188.253250 132.153961,183.440018 132.052277,171.856583 
	C131.868088,150.876495 131.857468,129.892242 132.060623,108.912521 
	C132.161285,98.517479 135.676071,93.994370 144.866791,91.637154 
	C151.287415,89.990402 156.220139,92.642769 160.042908,98.213852 
z"/>
<path fill="#FF935A" opacity="1.000000" stroke="none" 
	d="
M645.039185,176.505447 
	C644.258484,168.800964 647.304443,163.281204 653.240051,159.412079 
	C659.339783,155.435944 670.132507,157.928207 674.480347,164.034683 
	C678.709412,169.974304 677.554504,181.122574 672.214783,185.904968 
	C666.164001,191.324234 656.022095,191.593063 650.662842,185.969803 
	C648.269653,183.458755 646.900330,179.971909 645.039185,176.505447 
z"/>
<path fill="#FFFFFF" opacity="1.000000" stroke="none" 
	d="
M234.268600,150.932373 
	C242.523621,149.722855 250.380661,148.593109 258.441040,147.434113 
	C259.959534,154.740799 259.186523,160.975861 253.231369,165.086899 
	C247.093826,169.323853 240.221527,170.717667 233.146515,167.013077 
	C227.083237,163.838242 227.447495,156.481003 234.268600,150.932373 
z"/>
<path fill="#FFFFFF" opacity="1.000000" stroke="none" 
	d="
M445.812866,113.000999 
	C449.929260,114.909683 454.228027,116.172539 457.113251,118.919876 
	C459.632416,121.318665 460.559540,125.389389 462.657104,129.675812 
	C449.858124,129.675812 438.781006,129.675812 427.713196,129.675812 
	C428.259460,118.796661 435.931824,113.264175 445.812866,113.000999 
z"/>
</svg>